<?xml version="1.0" standalone="no"?>
<!DOCTYPE svg PUBLIC "-//W3C//DTD SVG 1.1//EN" "http://www.w3.org/Graphics/SVG/1.1/DTD/svg11.dtd" >
<svg xmlns="http://www.w3.org/2000/svg" xmlns:xlink="http://www.w3.org/1999/xlink" version="1.1">
<metadata>
Created by FontForge 20170812 at Tue Dec 22 07:46:35 2009
 By www-data
Copyright (c) 2009 by Michael Tension. All rights reserved.
</metadata>
<defs>
<font id="F*ckBeans-Bold" horiz-adv-x="426" >
  <font-face 
    font-family="F*ck Beans"
    font-weight="700"
    font-stretch="normal"
    units-per-em="1000"
    panose-1="2 0 0 0 0 0 0 0 0 0"
    ascent="750"
    descent="-250"
    x-height="406"
    cap-height="568.5"
    bbox="-188 -336 3030 1013"
    underline-thickness="50"
    underline-position="-100"
    unicode-range="U+0020-FB02"
  />
<missing-glyph horiz-adv-x="500" 
 />
    <glyph glyph-name="aa" unicode="aa" horiz-adv-x="739" 
d="M710 170q-26 -6 -41.5 -17.5t-24 -25t-11 -29.5t-2.5 -31q0 -8 0.5 -14.5t0.5 -13.5v-31q-15 -13 -31 -13.5t-28.5 7t-20 20.5t-5.5 27q1 5 2 12.5t2 15.5q2 11 2.5 20t6.5 23l-77 17q-10 -10 -19.5 -23.5t-20.5 -27.5l1 1q-11 -17 -23 -33t-25.5 -28.5t-30 -20
t-36.5 -5.5q-2 -11 -11.5 -19t-29.5 -14q-22 -7 -35.5 -2.5t-22 15t-12.5 25t-7 26.5q-1 7 -1.5 14t-0.5 18q0 17 2 32.5t4 29.5q2 10 2.5 12t1.5 13h-11q-18 0 -33 -7.5t-27.5 -20.5t-23.5 -29t-22 -33q-11 -16 -22 -32.5t-22 -29.5q-6 -9 -16 -13.5t-20.5 -4t-20.5 5.5
t-17 15q-8 18 -7.5 33t6.5 28t16.5 25t21.5 24v-1q8 10 16.5 19.5t13.5 18.5q-1 3 -2 5l-2 4v-1q-5 10 -8.5 20t-2 18t11 13t31.5 7h16q24 32 47 67.5t43 67.5q25 42 52.5 83.5t62.5 82.5q24 3 37 -2.5t19 -16t6.5 -24t0.5 -26.5v-11q0 -4 1 -7l-33 -172h4t7 2
q12 3 23.5 4.5t19.5 -3t12.5 -17.5t2.5 -39q-29 -2 -47.5 -13t-30 -27t-16.5 -36.5t-5 -42.5q3 7 2 15l21 16q15 11 31.5 24t29.5 29.5t21 37t5 45.5q43 17 67.5 48t45.5 66v-1q18 29 39 59.5t53 57.5q24 3 38.5 -5.5t23 -22.5t11.5 -31t5 -31l-29 -166q0 -1 1 -2q0 -1 1 -1
q5 -9 14 -20t29 -32zM242 287l-18 -34q3 0 7 1t7 1zM585 287q-10 -17 -18.5 -33.5t-15.5 -33.5l26 -1z" />
    <glyph glyph-name="bb" unicode="bb" horiz-adv-x="654" 
d="M352 -2q-12 29 -16 57.5t-2 54.5q-17 -38 -49.5 -64t-62.5 -46l-8 -5l-3 -1q-20 -6 -40 -6q-35 0 -65 15q-5 -11 -14.5 -23.5t-29.5 -12.5q-5 0 -13 2l-10 3l-4 8q-32 73 -26 166q5 69 28 150q-10 14 -5 30q2 8 7 14.5t10 12.5q3 4 7 8.5t3 6.5l-3 12l8 8q7 6 15 15
t17 19q15 17 31 35t34 32.5t36.5 24t38.5 9.5q52 0 85 -71l1 -1v-1q7 -21 7 -40.5t-4.5 -37t-12.5 -33t-16 -29.5q-2 -5 -5 -10t-5 -10q31 -36 44 -67q5 -13 8.5 -25t4.5 -25q4 17 8.5 33t9.5 32q10 33 17.5 65t7.5 64v2l1 3q5 17 14 20.5t13 3.5t7 -1l6 -2q23 31 51.5 56
t66.5 48l9 6l9 -4q29 -14 49 -37q23 -26 23 -55v-1q-4 -61 -47 -114q35 -40 47.5 -85t-1.5 -92q-5 -21 -15.5 -39t-25 -32.5t-32 -27t-34.5 -22.5l-3 -2h-5q-7 -1 -13.5 -1.5t-14.5 -0.5q-28 0 -52.5 5t-44.5 12l-26 -47zM550 405q-35 -27 -56.5 -61t-34 -70.5t-17.5 -75.5
t-7 -76v-1q-2 -6 -2 -12q-2 -9 -4 -21t2 -18q2 -4 9 -5h1l1 -1q10 -3 21 -3q17 0 31.5 8t26 19.5t19.5 22.5t12 17l1 1q18 24 12 49q-2 13 -9 24.5t-16.5 22t-20.5 19t-21 14.5l-4 2v6q-2 23 8.5 40t22.5 33q12 17 21 32t4 34zM119 81q10 -9 21.5 -11t19.5 -2q13 0 25 3
q16 10 30.5 22t26 26t17.5 31t4 38q-2 17 -11.5 24.5t-22.5 13.5q-13 7 -26.5 17.5t-17.5 36.5l-1 5l4 3q38 39 53.5 73t9.5 69l-20 3q-37 -17 -57.5 -43.5t-30.5 -59.5t-12.5 -70t-3.5 -74q-1 -29 -2 -55t-6 -50z" />
    <glyph glyph-name="cc" unicode="cc" horiz-adv-x="740" 
d="M781 113l-37 -26q-34 -23 -70 -45.5t-75 -40t-80.5 -27t-86.5 -5.5q-26 19 -42.5 42t-25.5 49q-32 -34 -68.5 -48t-71.5 -22l-27 -8q-55 4 -100.5 36t-70.5 92q-6 24 -6 43q0 28 8.5 52.5t22 46.5t30 41.5t32.5 37.5l12 13q42 39 93 39q26 0 49 -11.5t42 -37.5l4 -11
q0 -19 -5 -38t-15.5 -33t-27.5 -20t-41 0q-8 11 -16 16t-13 5q-11 0 -21.5 -8t-20 -20t-18 -26t-15.5 -27q2 -32 21.5 -55t42.5 -32h-1q15 -4 32 -4q27 0 52 10.5t49 22.5q14 7 38 16v4q0 33 5.5 66.5t13.5 63.5t26.5 55t42.5 44.5t51 33t54 21.5q18 3 31 3q38 0 68.5 -16.5
t47.5 -48.5v-18q-11 -23 -26.5 -30.5t-34.5 -7.5q-14 0 -24 2t-21 4q-12 2 -24.5 4.5t-20.5 2.5q-11 0 -21.5 -4.5t-18.5 -15.5q-26 -34 -41 -73.5t-15 -82.5q0 -41 15 -81q3 -6 10 -8.5t15 -2.5q12 0 25.5 4t22.5 8l54 27q35 18 78 35.5t85 21.5z" />
    <glyph glyph-name="dd" unicode="dd" horiz-adv-x="778" 
d="M394 369q6 -41 6 -87q0 -38 -5.5 -76t-19 -72.5t-35.5 -64.5t-54 -53q-28 -17 -58.5 -23t-62.5 -6h-22t-22 2q-4 -14 -10 -20.5t-12 -12.5l-4.5 -4.5t-4.5 -8.5t-4.5 -17.5t-4.5 -30.5q-40 30 -55 58t-15 55q0 25 6 50.5t14 50.5l10 38t7 39q2 16 11 33t19 33v-1
q11 19 18.5 35.5t-1.5 25.5q-15 23 -7 47.5t21 45.5q2 3 4.5 9.5t4.5 9.5q17 4 32 0t24 -12q20 23 47.5 33.5t58.5 10.5q38 0 69.5 -20t43.5 -65zM301 364l-14 -5l-3.5 7t-3.5 6zM287 359q-29 -12 -48 -31.5t-31 -45t-19.5 -54t-13.5 -58.5q-5 -26 -10.5 -51.5t-15.5 -49.5
q56 4 103 35q31 40 42 92.5t11 105.5v17t-1 16zM473 78q0 -3 -0.5 -6.5t-0.5 -5.5q9 2 17 1t16 -3t16.5 -2t13.5 5q22 25 44.5 52.5t40.5 57t29.5 61t11.5 65.5q0 12 -1 23.5t-4 25.5q-8 14 -22 24.5t-28 10.5q-5 0 -11 -2.5t-11 -5.5q-27 -30 -45.5 -65.5t-31 -74.5
t-20.5 -80t-14 -81zM737 373q8 -32 8 -66q0 -48 -15.5 -96.5t-42.5 -92.5t-63 -82t-76 -66q-25 0 -47.5 10t-39.5 27l-7 -44q-10 -2 -14 -4t-5 -3q-6 -5 -11.5 -9.5t-12 -6t-14 2t-16.5 14.5l-21 43l71 356q15 14 26 27t21 26q22 29 47.5 53.5t67.5 32.5q26 -1 48 -12
t39.5 -27.5t31.5 -37t23 -40.5z" />
    <glyph glyph-name="ee" unicode="ee" horiz-adv-x="878" 
d="M906 87l2 1q-14 -16 -30.5 -18.5t-33.5 -2.5h-5q-8 -1 -15.5 -2.5t-17.5 -6.5q-40 -8 -80.5 -17.5t-79.5 -20.5l-15 -3l1 1l-19 -6q-40 -11 -76.5 -20t-66.5 -14l-17 -1l-31 48l11 36l-11 -4q-41 -11 -81 -24q-61 -20 -123.5 -36t-125.5 -16q-11 0 -24 1t-28 3l-35 33
l1 14q9 28 19.5 58.5t21.5 57.5v-1l4 10q20 55 40 114.5t31 120.5q0 2 0.5 7.5t0.5 11t0.5 10t0.5 5.5l35 -19q27 -17 71 -17q16 0 33.5 1.5t34.5 3.5q16 2 34 4t35 2q55 0 93 -25l28 -14l-23 -23q-9 -9 -21.5 -15.5t-25 -11t-24 -6.5t-18.5 -3q-11 -1 -21.5 -1.5
t-21.5 -2.5l-21 -2l-12 -2q-16 -2 -32.5 -3t-33.5 -1l2 -1q5 -4 24 -4q8 0 14.5 0.5t17.5 1.5q8 1 17.5 1.5t18.5 0.5q35 0 56 -15q27 -21 27 -64v-46l-38 26q-11 7 -29 7q-4 0 -10 -0.5t-12 -1.5q-3 0 -5.5 -0.5t-5.5 -0.5q-17 -3 -41 -3q-17 0 -39.5 7t-45.5 40l24 53
q-4 0 -7 0.5t-6 0.5q-13 -54 -26.5 -106.5t-35.5 -100.5q23 2 46 5.5t48 7.5l13 2h-2l17 3q35 5 71 9t74 5l15 -5l26 -26l107 332h17q11 0 31 -3.5t32 -18.5q37 9 75 15.5t77 6.5q22 0 43 -2t41 -8q14 -5 26 -15.5t19 -24.5q8 -22 3 -39l-12 -24l-23 12h1q-29 14 -75 14
q-36 0 -73 -8.5t-73 -18.5l-41 -11q-4 -8 -7.5 -16.5t-7.5 -17.5q26 13 56.5 22.5t56.5 9.5q27 0 51 -13q29 -17 40 -49v-1q2 -8 2 -16t-5 -15q-7 -11 -22 -14l-27 -1l-1 19q-5 7 -15 7q-11 0 -24.5 -3.5t-24.5 -8.5q-10 -3 -18.5 -6t-16.5 -5q-1 0 -1.5 -1t-1.5 -1l-2 -1
l-5 -3q-9 -5 -20 -10t-23 -5h-4l-11 1q-4 3 -7.5 6t-6.5 7q-2 -4 -2.5 -7t-2.5 -7v2l-6 -19q-7 -19 -15 -32.5t-16 -29.5l67 14q54 12 112 21.5t118 9.5q36 0 66 -3l52 -2z" />
    <glyph glyph-name="ff" unicode="ff" horiz-adv-x="798" 
d="M604 344q-35 0 -59.5 -10t-24.5 -44q0 -9 1 -14q14 1 26.5 1.5t25.5 0.5q50 0 97.5 -16t93.5 -62q-32 -19 -63 -22t-65 -3q-33 0 -66 -0.5t-61 -7.5q-3 -15 -6.5 -30t-8.5 -32q-5 -19 -10 -37.5t-5 -35.5q0 -21 18 -42q-6 -17 -17 -27.5t-25.5 -16t-30 -4.5t-28.5 8
q-11 23 -15.5 45.5t-4.5 42.5q0 25 4.5 50t11.5 50q5 17 8 36t5 42v1q-32 -5 -55 -10t-44 -10q-32 -8 -62.5 -14.5t-62.5 -6.5q-23 0 -42 4q-4 -11 -8 -20.5t-9 -20.5q-8 -17 -14.5 -33.5t-6.5 -33.5q0 -16 13 -35q0 -15 -8.5 -26t-20.5 -17t-25.5 -6t-23.5 7
q-14 14 -21.5 31t-7.5 34t8 36q10 35 16.5 76t12.5 83q5 29 10 61.5t11 61.5l31 46l22 -7h-1q2 -1 5 -1.5t5 -1.5v4q0 14 8 26t28 19l266 -30q3 -4 5.5 -7.5t4.5 -7.5q2 9 4.5 19t5.5 21l78 -8q58 -5 114 -10t115 -3l11 -4q14 -11 22 -26t3 -38q-24 -17 -51 -22t-56 -5h-21
t-21 1q-8 0 -19.5 0.5t-19.5 0.5zM412 257q2 11 3 21.5t3 21.5q2 12 4 24.5t4 25.5l-261 6l-4 -81q8 1 17 2t19 3q22 3 48.5 6t52.5 3q29 0 57.5 -7t56.5 -25z" />
    <glyph glyph-name="gg" unicode="gg" horiz-adv-x="790" 
d="M760 258q-8 -38 -29.5 -55t-46.5 -31q-9 -26 -22 -55t-30.5 -56t-39 -50t-47.5 -38q-19 -2 -41.5 4.5t-43.5 18t-38.5 27t-27.5 32.5q-5 14 -8.5 28.5t-6.5 29.5q-9 -2 -18.5 -3t-19.5 -2q-12 -1 -23.5 -2.5t-19.5 -8t-12.5 -19.5t-2.5 -37q-11 -14 -26.5 -26.5t-33 -22
t-36 -15t-36.5 -5.5q-14 0 -27 2.5t-24 10.5q-26 12 -42.5 29t-26.5 37.5t-16 43t-10 45.5l-3 21q1 47 13.5 96t37 91.5t61.5 73.5t87 42q25 0 49 -10t41 -39l-36 -60q-23 15 -30 15q-9 0 -18.5 -6.5t-19 -16.5t-18.5 -22t-17 -23q-6 -8 -10.5 -14.5t-9.5 -11.5
q-10 -24 -16.5 -51.5t-6.5 -56.5q0 -27 8 -52t28 -47q3 -5 10 -3l14 4q3 2 4.5 2.5l4.5 1.5l37 51q-20 15 -38 36.5t-29 52.5q12 19 25.5 26t27.5 7q10 0 20 -2.5t19 -5.5l18 -6q16 -20 38.5 -24.5t45.5 -5.5q8 0 16 -0.5t16 -1.5q4 64 29 124t75 105q15 17 37 25t45 8
q24 0 46.5 -8.5t36.5 -28.5q17 -20 12.5 -36.5t-14.5 -31.5l-10 -16l-69 10q-40 -36 -59 -83t-19 -97q0 -26 6 -54q2 -4 4.5 -7.5t5.5 -5.5q5 -8 9.5 -13t12.5 -9q32 15 46.5 36t27.5 54q-6 5 -13 10q-11 8 -20.5 19.5t-15.5 39.5q17 20 32.5 26.5t29.5 6.5q2 0 13 -2t21 -4
q8 -2 16.5 -3t19.5 -1q9 0 20 5t27 18z" />
    <glyph glyph-name="ii" unicode="ii" horiz-adv-x="305" 
d="M258 416q11 -20 14 -56.5t4 -72.5q1 -18 1 -34.5t2 -29.5q2 -32 5 -55t6 -41q6 -32 6 -63q0 -17 -3.5 -38.5t-12.5 -53.5q-22 -12 -45.5 -10t-46.5 13q1 14 2 33t1 32q0 31 -2 59l-4 56t-3 57t-1 61q0 29 1.5 62.5t5.5 74.5l48 15zM71 -19q3 1 1 -0.5t-4 -3.5
q-6 -4 -12 -7.5t-12 -4.5t-13 2.5t-14 14.5q-9 28 -12.5 54.5t-3.5 52.5q0 33 3.5 67t8.5 66q5 29 8.5 59t4.5 67l48 37l53 -44l-42 -345z" />
    <glyph glyph-name="ll" unicode="ll" horiz-adv-x="752" 
d="M520 377q-5 -63 -20 -122t-32 -116v1q-3 -12 -6 -20t-5 -14.5t-4.5 -14t-5.5 -19.5q20 2 43 3.5t43 1.5q48 0 97.5 -9t97.5 -29v-56q-24 2 -46 4t-36 2q-35 0 -70 -3t-71 -7q-42 -5 -83.5 -8t-86.5 -2q-14 14 -20.5 29.5t-6.5 30.5q0 17 5.5 34t13.5 31l-1 -3
q30 68 49.5 151.5t35.5 162.5q1 6 3.5 17t3.5 16q13 4 30.5 -0.5t33.5 -14t27 -21.5t11 -23v-2zM160 221q-5 -17 -9 -30.5t-7.5 -26.5t-7 -27t-7.5 -32h17q24 0 48 -1t47 -10.5t45 -30.5t41 -59q-25 -2 -41 -2h-27t-20 0.5t-19 0.5q-12 1 -23 1.5t-22 0.5q-27 0 -54 -5
t-54 -21q-34 5 -46 23.5t-12 41.5q0 17 3 31q17 42 30.5 92.5t24.5 100.5q5 25 14 58.5t16 56.5q41 -11 54 -36.5t13 -55.5q0 -10 -0.5 -20.5t-1.5 -19.5q-1 -8 -1.5 -14.5t-0.5 -10.5v-5z" />
    <glyph glyph-name="mm" unicode="mm" horiz-adv-x="1009" 
d="M465 198q-23 -47 -37.5 -98.5t-22.5 -105.5h6q8 -1 16.5 -3.5t19.5 -13.5q2 -14 0 -22t-6.5 -13t-11 -7.5t-12.5 -4.5q-4 -2 -7 -2.5t-6 -3.5q-30 -4 -51 13t-33 38q-5 57 7 108.5t27 102.5q3 11 4.5 15.5t3 7.5t3 8t4.5 17l-15 -13q-16 -14 -33.5 -27.5t-36.5 -23
t-39.5 -13t-42.5 2.5q-20 12 -26.5 30t-9.5 38q-22 -28 -39.5 -56t-34.5 -56q-26 -44 -57.5 -90t-77.5 -88q-13 3 -25.5 12t-21 20t-11 23.5t5.5 23.5l251 360q14 8 28 6.5t26 -9t19.5 -19t9.5 -22.5l10 -64q15 2 28.5 10t26.5 19t25.5 24.5t24.5 26.5q15 18 33 36t42 35
q34 -19 46.5 -42.5t12.5 -49.5q0 -22 -3.5 -40t-8.5 -37q-3 -14 -5.5 -27t-3.5 -20zM772 264q14 4 28.5 17t30.5 27q21 20 42 37t47 17q14 0 29 -9t32 -29q-2 -65 -19.5 -118t-37.5 -105q-12 -31 -22.5 -60t-17.5 -56q1 -11 2.5 -27t2.5 -27q-20 -12 -35.5 -12t-27.5 6.5
t-21 18.5t-15 24q-2 47 11.5 85.5t30.5 75.5q9 20 17.5 42.5t13.5 45.5q-6 -5 -11.5 -10t-10.5 -11q-17 -15 -34 -28.5t-36 -23t-40 -13t-45 3.5q-20 14 -29 30.5t-16 33.5l-49 -61q-34 -44 -75.5 -90.5t-90.5 -78.5q-23 0 -31 9.5t-13 21.5v-1q-2 2 -3 4.5t-6 7.5v33
q57 53 98.5 102t80.5 98q23 29 50 62t52 62q24 -2 37.5 -10.5t20 -21.5t8 -28.5t2.5 -31.5q0 -14 0.5 -23.5t3.5 -9.5q6 0 15.5 4t25.5 15z" />
    <glyph glyph-name="nn" unicode="nn" horiz-adv-x="888" 
d="M539 347q5 -14 -1 -22.5t-14 -15.5l-11 -11l-25 13q-20 -32 -33 -65t-26 -70q-10 -28 -20.5 -56t-25.5 -55.5t-35.5 -54.5t-50.5 -53q-5 6 -6.5 6.5t-2.5 -0.5q-5 -4 -9.5 -8t-10.5 -6t-14 -0.5t-18 8.5q-25 39 -31 82.5t-6 88.5v28v2v6q-9 -14 -16 -27t-16 -30v1
q-11 -21 -23 -42t-27 -40.5t-33.5 -36.5t-42.5 -30q-29 -8 -42.5 6t-17.5 35v26q70 64 117 138.5t88 148.5l-1 -1l20 37q9 2 21 -0.5t23.5 -8t21 -14t12.5 -18.5q4 -22 5 -45.5t1 -48.5v-58q0 -39 3 -72q23 33 38.5 71.5t29.5 78.5q16 46 34.5 91t53.5 88q32 -2 47 -15
t28 -30l14 -17zM875 301q6 -15 1 -22t-10 -12l-12 -24q-6 5 -10 9t-7.5 6.5t-4.5 3.5q-4 2 -3.5 -1t-0.5 4q-16 -25 -28.5 -56t-23.5 -60q-11 -30 -23.5 -60t-30 -57.5t-41 -51.5t-57.5 -43q-26 16 -40 34.5t-21.5 38.5t-10 42t-4.5 44v10.5t-1 10.5l-12 -31
q-8 -21 -17 -43.5t-22 -43.5t-31.5 -39t-43.5 -31l-41 51q44 86 81.5 174t58.5 188h22q11 0 22.5 -0.5t21.5 -4.5t17.5 -13t9.5 -25q8 -30 10.5 -62t4.5 -62q1 -26 3 -51.5t7 -50.5q20 30 33 64t26 69q15 40 33.5 82.5t50.5 81.5q21 0 36 -6.5t26 -16.5t18.5 -22t13.5 -23
v-1z" />
    <glyph glyph-name="oo" unicode="oo" horiz-adv-x="790" 
d="M738 369q9 -44 9 -92q0 -91 -38 -177.5t-107 -151.5q-24 7 -33 7q-7 0 -15 -1t-16 -3t-15.5 -3t-17.5 -1q-13 0 -26.5 4.5t-28.5 16.5q-42 45 -65.5 98t-16.5 115q0 33 9.5 61t25 52.5t36 47t42.5 44.5q26 26 62 41t72 15q37 0 69 -16.5t52 -51.5zM614 349
q-26 -4 -50 -20t-43.5 -38t-35 -47.5t-24.5 -48.5v2q-5 -17 -5 -30q0 -30 12 -60t26 -56q5 0 12.5 1t15.5 3q7 1 15.5 2t16.5 1q18 0 27 -5q27 27 44 57t26 62.5t12.5 68t3.5 73.5q1 10 -3.5 17t-12.5 11.5t-17.5 6t-19.5 0.5zM359 227q2 -40 -6.5 -76.5t-25.5 -69.5
t-41 -61t-54 -51q-17 -10 -33 -14t-33 -4q-20 0 -37.5 3t-34.5 6q-7 2 -13 3.5t-14 2.5q-32 41 -44.5 80t-12.5 79q0 38 7.5 76.5t17.5 78.5q10 23 26.5 46t37.5 43.5t44.5 37t46.5 26.5q39 -1 64.5 -16.5t43 -39.5t28.5 -52.5t20 -56.5l12 -37zM247 116l12 67
q5 -9 7.5 -17.5t4.5 -15.5q2 -8 4 -15t5 -12zM221 325q-6 4 -13 2.5t-14.5 -6.5t-15.5 -12t-15 -14l-10 -9q-25 -31 -37 -71.5t-12 -83.5q0 -23 3 -45.5t10 -42.5q17 2 33 7.5t28 16.5q5 6 6.5 15.5t1.5 20.5v12t-1 14t-1.5 15.5t-0.5 16.5q0 19 7 37t29 37q16 -12 25.5 -25
t14.5 -27l7 36q-2 9 -3 14t-2 11l1 -1q-6 23 -14 45.5t-27 36.5z" />
    <glyph glyph-name="pp" unicode="pp" horiz-adv-x="803" 
d="M393 487q13 -36 13 -76q0 -45 -15.5 -87.5t-44.5 -78.5q-25 -16 -56.5 -31t-63.5 -15q-22 0 -43 9q-17 -43 -30.5 -97t-23.5 -105q-15 -12 -25.5 -13t-21.5 -1h-18q-26 52 -40.5 110t-14.5 115q0 66 18.5 128.5t60.5 112.5q16 18 39 38t49 36t53.5 26.5t54.5 10.5
q34 0 62 -18t47 -62v-2zM271 476q-52 -22 -90 -60q11 -14 15 -30.5t4 -34.5q0 -8 -0.5 -16.5t-1.5 -16.5q-1 -11 -1.5 -19.5t0.5 -17.5q23 0 44 7t37 21q25 26 37.5 56.5t6.5 69.5q-7 16 -21.5 29.5t-32.5 9.5zM100 248q4 15 6.5 30t4.5 29q-8 -29 -11 -59zM143 369
q-21 -25 -32 -62q1 9 1.5 18t0.5 19q0 15 -3 35zM81 180q5 17 9.5 34t9.5 34v-21q0 -20 2 -40t6 -41l-36 1zM756 482q6 -38 -2.5 -69.5t-26 -59t-41 -51.5t-48.5 -47v1q-12 -12 -24.5 -24t-23.5 -24q-17 -7 -29.5 -4t-22 11.5t-17 20.5t-13.5 22q26 17 55 39t54.5 47.5
t43.5 53.5t22 58q-3 1 -9 1q-11 0 -24 -7.5t-27 -15.5h-1q-5 -3 -11.5 -7t-13.5 -8q-23 -26 -44.5 -50t-46.5 -50q0 -75 -15.5 -159.5t-34.5 -164.5q-7 -7 -18 -12.5t-24 -8.5t-26 -2t-25 8q-27 27 -37.5 61t-10.5 70q0 18 2 37.5t5 35.5q13 57 45.5 111t76.5 100.5t95.5 84
t102.5 62.5q19 5 37.5 3.5t34 -9.5t26.5 -21t16 -31v-2zM438 230q-13 -20 -17 -49t-4 -55q0 -11 0.5 -20t0.5 -18l-37 1l23 153z" />
    <glyph glyph-name="rr" unicode="rr" horiz-adv-x="659" 
d="M354 343q3 -33 -7 -62t-28.5 -54.5t-43 -47t-50.5 -38.5q-5 2 -5.5 2.5t-1.5 -0.5q-3 -3 -1 -2.5t-2 -1.5q11 -23 31.5 -38.5t43.5 -29.5h-1q19 -11 38 -25.5t42 -46.5q-23 -11 -38 -14.5t-25 -3.5q-35 0 -65.5 18t-56.5 38l-21 16q-27 35 -42 71q-3 -8 -6 -16.5
t-6 -17.5q-11 -34 -27 -64.5t-47 -44.5q-15 -5 -24 -0.5t-14.5 13.5t-7 19.5t-1.5 19.5q33 88 60.5 175.5t48.5 180.5q20 25 35.5 23.5t28.5 -15.5q21 16 46 25t51 9q35 0 62 -20t34 -67v-1zM266 324q1 4 -2.5 6.5t-7.5 1.5q-19 -3 -34 -15.5t-26.5 -28.5t-19.5 -34.5
t-13 -33.5l32 4q13 8 26 18.5t23.5 22.5t16.5 26t5 28v5zM554 314q-30 -20 -54 -45.5t-44 -54.5q8 -8 13.5 -10.5t10.5 -2.5q9 0 17.5 5t16.5 12.5t14 17t10 17.5l3 8q5 11 9 23.5t4 23.5q0 4 1 4q-1 1 -1 2zM634 350q3 -15 3 -34q0 -30 -9 -56.5t-23.5 -49.5t-33.5 -43.5
t-39 -38.5q8 -11 22.5 -20t27.5 -15q23 -11 40 -23.5t17 -37.5q0 -9 -5.5 -21.5t-14.5 -29.5q-36 5 -68 20t-58 37t-45 50t-29 60q-20 -38 -36 -75q-8 -17 -17.5 -38t-17.5 -38l-69 -26l-18 55l149 351q19 26 32.5 21.5t25.5 -17.5q17 19 41.5 30.5t47.5 11.5
q28 0 49.5 -16.5t27.5 -57.5v1z" />
    <glyph glyph-name="ss" unicode="ss" horiz-adv-x="708" 
d="M673 433q0 -14 -13 -27t-30 -18q-18 6 -35 6q-31 0 -57.5 -10.5t-46.5 -29.5q6 -17 23 -26t38 -17q14 -6 30 -14t32 -22q25 -26 37 -59t12 -66q0 -42 -17 -81v1q-8 -20 -21.5 -33t-30.5 -22t-35 -14.5t-35 -9.5q-49 -2 -94.5 15.5t-70.5 64.5q-1 5 -2 9q-2 10 -2 12v-2
q-4 9 -6 21t1 37q19 1 33 -2t24 -9.5t17.5 -15t14.5 -16.5q9 -11 20 -21.5t26 -12.5q28 4 54.5 17.5t32.5 35.5l-1 -1q4 17 4 34q0 28 -12.5 49.5t-44.5 32.5l-29 12v-1q-14 6 -28.5 13t-27 16.5t-22 22t-13.5 29.5q-4 18 1.5 36t16.5 33.5t26 28t30 20.5q25 6 46 14
q18 7 38 13t40 6t38.5 -8.5t35.5 -29.5zM318 423q4 -22 -6 -35t-24 -25q-3 -4 -7 -7.5t-10 -11.5q-19 -7 -33 -2t-23 18q-2 11 -1 16.5t3 8.5q-23 -9 -42.5 -21t-32.5 -29q3 -15 11 -25t20 -16t26.5 -10t29.5 -7q23 -5 46.5 -11.5t45.5 -26.5q16 -19 31 -41t15 -51
q0 -20 -15 -44q-37 -53 -91.5 -73t-111.5 -20q-18 0 -37 1.5t-38 5.5q-32 25 -47.5 63t-15.5 76q0 12 2.5 28.5t7.5 36.5q23 0 35.5 -6t19 -16t8 -23.5t2.5 -27.5q1 -19 6 -36.5t25 -20.5q43 3 86 14t69 45q-2 11 -9 18.5t-17.5 13t-23.5 9t-26 6.5q-21 6 -41 12t-37 19
l1 -1q-38 23 -57 62t-8 85q13 17 29.5 34t35.5 32t40 25.5t44 15.5h-2q19 5 36 2t31 -10.5t25.5 -19t20.5 -22.5z" />
    <glyph glyph-name="tt" unicode="tt" horiz-adv-x="892" 
d="M880 309l-164 -24q-32 -29 -61 -63.5t-50.5 -74t-34 -83t-12.5 -91.5q-15 -14 -23.5 -15.5t-17.5 -1.5q-2 0 -6 -0.5t-18 -2.5q-14 29 -20 53t-6 45q0 55 23.5 100.5t55.5 90.5q-44 1 -92.5 6.5t-93.5 24.5l-7 24q-4 9 -6 19t0.5 19t11.5 16.5t28 12.5q32 -11 62 -15.5
t58 -4.5q40 0 82.5 6.5t84.5 14.5t88.5 14.5t100.5 6.5l17 -35v-42zM511 307q-30 -2 -50.5 -1t-38.5 3q-16 2 -31 3.5t-29 1.5q-31 0 -54 -14.5t-25 -60.5q-6 -13 -14 -28.5t-15 -29.5q-17 -32 -32 -64.5t-15 -64.5q0 -8 1.5 -18.5t6.5 -27.5q-20 -11 -36.5 -9.5t-29.5 10.5
t-21.5 22.5t-11.5 27.5q-3 27 0.5 52t11.5 47.5t20 44.5t24 43h-1q6 10 10.5 16.5t8 12.5t6.5 12.5t7 18.5q-12 -1 -27.5 -3.5t-27.5 -5.5q-20 -3 -40 -5.5t-40 -2.5q-34 0 -61.5 15t-46.5 57l42 34q17 -2 37.5 -2.5t38.5 -0.5q25 0 48.5 0.5t48.5 1.5q21 1 46.5 1.5
t45.5 0.5q63 0 124.5 -7.5t119.5 -30.5v-49z" />
    <glyph glyph-name="uu" unicode="uu" horiz-adv-x="740" 
d="M635 -24l3 -4q5 -9 8.5 -19.5t-7.5 -25.5q-5 -2 -9.5 -3t-6.5 -3q-9 -4 -18.5 -7t-21.5 2q-24 17 -32.5 37t-8.5 41v10t1 10q-3 -2 -5 -5q-20 -18 -44 -35t-54 -17q-11 0 -23.5 3.5t-26.5 12.5q-20 31 -28.5 61t-8.5 60q0 46 13.5 91t30.5 90q20 52 32 101q11 5 22 4.5
t21.5 -4.5t19.5 -11t17 -14q-7 -31 -15.5 -57.5t-16.5 -50.5q-12 -38 -23 -77.5t-11 -76.5q0 -7 0.5 -15.5t1.5 -15.5q18 3 36 16.5t33.5 31.5t29 38t22.5 37h1h-1l102 220q44 8 73 -30zM340 408q13 0 27.5 -6t25 -16t14 -23.5t-5.5 -28.5q-5 -34 -20 -64t-33 -62
q-20 -32 -36 -66.5t-16 -72.5q0 -16 3 -32l47 -30q-15 -20 -34.5 -33.5t-38.5 -13.5q-30 0 -52 28l-21 50q-23 -19 -50.5 -32t-56.5 -22q-15 1 -29.5 9t-26.5 19.5t-20 25.5t-10 28q0 87 27 165.5t79 152.5l24 -5q13 -3 26.5 -7.5t21 -12.5t7 -21t-16.5 -32v3
q-27 -49 -50.5 -100.5t-23.5 -112.5q0 -2 -0.5 -2t-0.5 -1v-1v-1q0 -1 0.5 -1.5t0.5 -1.5q21 7 42 27t41 41q11 10 20.5 20.5t23.5 22.5q9 27 19 54.5t23 54t30 51.5t40 49z" />
    <glyph glyph-name="zz" unicode="zz" horiz-adv-x="999" 
d="M888 382q-9 -50 -33.5 -96t-59.5 -87.5t-76.5 -77t-83.5 -65.5l54 3q32 2 66 3.5t69 1.5q66 0 131 -9.5t123 -38.5v-50q-38 3 -70.5 5t-60.5 2q-82 0 -163 -9t-162 -20q-43 -6 -89.5 -12t-90.5 -11l-15 16q-13 13 -24 29.5t-4 45.5q-3 0 -4 -1q-66 -11 -138 -17.5
t-142 -6.5q-32 0 -63 1.5t-63 5.5q-24 27 -24 46q0 21 15 36t32 28l13 11q53 37 107.5 78.5t102.5 89.5h-12q-33 0 -65.5 10t-55.5 38l-11 17q-8 13 -16 28.5t-8 32.5q0 14 8 26.5t28 26.5q32 -7 42.5 -20.5t17.5 -27.5q2 -6 5 -12.5t10 -10.5q56 -2 107.5 14t102.5 39
q15 -7 30.5 -17t25.5 -33q-14 -41 -37 -76t-52 -65.5t-61 -57t-64 -51.5q-10 -8 -16.5 -12.5t-11.5 -8.5t-11 -9.5t-16 -14.5l71 6q32 2 61.5 3.5t58.5 1.5q36 0 71 -3t75 -13q34 24 68 48.5t65 51.5t57.5 58t47.5 67l-14 -6q-35 -15 -73 -27.5t-86 -4.5l-40 73
q71 13 122.5 36t100.5 49l-1 -1q13 7 28.5 15.5t28.5 15.5q31 -8 51.5 -31.5t20.5 -55.5z" />
    <glyph glyph-name=".notdef" horiz-adv-x="500" 
 />
    <glyph glyph-name=".null" horiz-adv-x="0" 
 />
    <glyph glyph-name="nonmarkingreturn" horiz-adv-x="500" 
 />
    <glyph glyph-name="space" unicode=" " horiz-adv-x="410" 
 />
    <glyph glyph-name="space" unicode="&#xa0;" horiz-adv-x="410" 
 />
    <glyph glyph-name="E" unicode="E" horiz-adv-x="581" 
d="M556 429q-17 -19 -46 -29.5t-56 -12.5q-20 -1 -38 -3t-38 -4q-23 -3 -46.5 -5.5t-49.5 -2.5q-14 0 -27.5 1t-28.5 4q-16 -72 -35.5 -142t-51.5 -137q35 3 73 8.5t75 10.5q48 8 97.5 14.5t108.5 8.5l46 -46q-13 -4 -30.5 -9t-36.5 -10.5t-36.5 -11t-30.5 -9.5
q-75 -23 -150 -42.5t-150 -19.5q-12 0 -26.5 1t-31.5 3l-40 37q12 37 27.5 79.5t28.5 79.5q26 71 51 146.5t43 172.5q35 -22 64 -30.5t54 -8.5q19 0 41 2.5t43 5.5q20 3 42 5t42 2q29 0 56 -6.5t53 -23.5zM270 272q11 -13 27 -24.5t33 -11.5q13 0 27 1.5t30 2.5q14 2 30 3.5
t30 1.5q4 0 9.5 7t11 15.5t11 15t9.5 5.5q-8 16 -23.5 19.5t-35.5 3.5q-13 0 -25 -1t-26 -2q-14 -2 -28 -2.5t-26 -0.5t-32 3t-30 6z" />
    <glyph glyph-name="F" unicode="F" horiz-adv-x="455" 
d="M438 526q3 -26 -1 -38t-12 -15t-20 0.5t-26 9.5q-9 3 -18 5t-15 -4l-198 -49q-5 -34 -8.5 -61t-7.5 -63q24 2 49 7.5t49 11.5q28 7 56 13t59 8q18 -9 23 -24.5t0 -30t-17 -25t-28 -8.5q-13 -4 -28.5 -10.5t-32.5 -13.5q-32 -13 -67.5 -25t-73.5 -14l-7 -22
q-7 -24 -15 -55.5t-8 -54.5q0 -26 17 -60q-29 -29 -50 -29q-8 0 -20 3.5t-28 8.5q-2 19 -2.5 35t-0.5 30q0 54 7.5 111t16.5 110q10 59 18 120t7 124q8 17 15 24t14 7.5t14 -3.5t15 -10h-1q5 -3 9.5 -5t12.5 2q26 -1 51.5 6t51.5 15t51 14.5t50 6.5q26 0 50 -9t45 -32z" />
    <glyph glyph-name="G" unicode="G" horiz-adv-x="571" 
d="M391 561q-13 -26 -45 -43t-67 -17q-16 13 -24 13q-11 0 -25 -10.5t-25 -20.5l-5 -4q-44 -50 -66.5 -113t-22.5 -132q0 -33 5.5 -65t18.5 -64q4 -12 14.5 -20.5t21.5 -8.5q5 0 13 6q20 30 38.5 56t38.5 57l-4 3l1 -1q-12 9 -23.5 19t-19 23.5t-9.5 30.5t6 41q8 17 21 23.5
t27 6.5q17 0 34.5 -8t29.5 -16q14 -14 31 -18.5t34 -4.5q11 0 22.5 1t23.5 3q13 2 26 3t27 1q19 0 41 -5.5t52 -21.5q-41 -41 -87 -57t-86 -24q-23 3 -37 -2t-23 -15.5t-15 -25t-11 -30.5q-9 -28 -21.5 -53.5t-35.5 -44.5q-23 -17 -49.5 -29.5t-55.5 -12.5q-22 0 -45 10
q-31 23 -51.5 50.5t-32.5 59t-16.5 65t-4.5 68.5q0 32 3 65.5t8 67.5q12 43 34 85.5t53 78t69.5 61.5t82.5 35q20 2 39.5 1.5t37 -6t31.5 -16t23 -29.5v-16z" />
    <glyph glyph-name="H" unicode="H" horiz-adv-x="495" 
d="M392 307l8 -5q7 -4 14 -9t11 -12.5t4.5 -18.5t-5.5 -28l-56 -8q-20 -61 -42.5 -124t-42.5 -123q-14 -5 -27 -3t-22.5 8.5t-14.5 16.5t-2 22v-1q8 57 20.5 112t35.5 111q-18 11 -39.5 16.5t-46.5 10.5l-25 5q-14 -63 -29 -123t-29 -125q10 -5 19.5 -12t17.5 -12
q0 -21 -9 -35t-22 -21t-28.5 -7t-27.5 8q-26 19 -35 45t-9 56q0 23 3.5 44.5t7.5 39.5v-1l4 17q6 39 15.5 79.5t21.5 80.5t25.5 78.5t26.5 73.5l30 83q30 -19 42 -37t12 -35q0 -15 -4.5 -31.5t-9.5 -30.5q-3 -8 -5.5 -17t-4.5 -16l29 -14q20 -10 40.5 -18.5t38.5 -8.5
q19 0 30 19l-1 -3q8 21 13.5 42t12.5 44q13 48 30 98.5t51 94.5q20 0 27 -4t13 -9l20 -15z" />
    <glyph glyph-name="I" unicode="I" horiz-adv-x="296" 
d="M132 67q12 -8 26 -16.5t23 -14.5q-5 -24 -14.5 -37t-22.5 -18t-27 -5h-26h-18q-23 25 -35.5 55t-12.5 60q0 20 6 43q11 34 22.5 67.5t22.5 65.5q24 66 45.5 133t26.5 144q12 22 26.5 24.5t27.5 -5.5t24 -22t17 -24l-32 -180z" />
    <glyph glyph-name="J" unicode="J" horiz-adv-x="474" 
d="M453 542q-4 -81 -14 -164t-35.5 -158.5t-72.5 -139.5t-124 -107q-29 -5 -55 1.5t-48.5 20.5t-40.5 34t-30 43q-5 17 -7 31.5t-2 28.5q0 24 7 45.5t24 44.5q12 8 15.5 12t9.5 9q12 10 25 19.5t27.5 14t31 2t35.5 -15.5q-4 -26 -16.5 -44.5t-28.5 -34.5q-14 -14 -25 -29
t-11 -30q0 -9 6 -21l-2 1q11 -17 27.5 -27t34.5 -10q16 0 29 10q38 39 60.5 84t36 94.5t20.5 102t13 105.5l6 52l-10 -10q-17 13 -24 26.5t-7 27.5q0 16 6 31t13 29q3 6 7 15t8 22q29 3 46.5 -2.5t28 -16.5t15.5 -27l10 -32q2 -8 10 -30z" />
    <glyph glyph-name="K" unicode="K" horiz-adv-x="525" 
d="M183 440q-5 -23 -10 -44.5t-10 -43.5q-6 -29 -12.5 -58.5t-11.5 -58.5q34 38 74 79t85.5 75.5t97.5 57t111 24.5v-50q-58 -29 -112.5 -69.5t-95.5 -82.5q37 -29 63.5 -66.5t45.5 -80t32.5 -87.5t25.5 -88l11 -36l-29 -17q-36 40 -64.5 86.5t-54.5 91.5q-17 31 -36 64
t-42 66l-152 -210q-11 6 -16 5t-8 -3q-6 -4 -11 -7t-11 -3t-13.5 4t-17.5 14q0 100 17 187t39 174q8 30 16 68t16 71q13 0 26 -4.5t23.5 -13t17 -19t6.5 -22.5v-3z" />
    <glyph glyph-name="L" unicode="L" horiz-adv-x="554" 
d="M266 423q-17 -87 -48 -169t-67 -163q29 4 62 6t66 2q66 0 141.5 -14t156.5 -47q-48 -13 -88 -21t-74.5 -12.5t-65.5 -7t-60 -3.5q-66 -3 -130 -10t-133 -30l-23 64q14 35 31 72t33 71q33 74 64.5 151.5t50.5 171.5q13 0 28 -4t27.5 -11t20.5 -18t8 -24v-4z" />
    <glyph glyph-name="M" unicode="M" horiz-adv-x="648" 
d="M536 51l5 -5q11 -10 20.5 -20.5t4.5 -33.5q-19 -14 -35 -16t-30 0q-3 1 -9 1h-12q-19 35 -27 67.5t-8 61.5q0 44 11 87.5t25 87.5q8 26 16 56.5t13 57.5l-25 -23h1q-22 -20 -45 -39.5t-49 -35t-56 -25t-65 -8.5q-23 17 -28 33.5t-7 34.5q-1 4 -0.5 4t1.5 -1.5t0.5 -2
t-2.5 4.5q-65 -66 -101 -149.5t-41 -175.5l-38 -43q-26 24 -36.5 49t-10.5 49q0 25 4.5 51t9.5 49q2 11 4.5 21.5t4.5 20.5q12 27 30.5 55t38.5 54.5t41.5 51t39.5 44.5q20 22 42.5 48t39.5 49q15 2 29 -2.5t25.5 -14.5t18 -23.5t6.5 -29.5q6 -16 3 -29.5t-7 -24.5l-3 -5h1
q43 26 83.5 66t75.5 79l55 61q42 -21 58 -50t16 -61q0 -28 -7.5 -59t-15.5 -60v1q-8 -23 -13 -46.5t-7 -48.5z" />
    <glyph glyph-name="N" unicode="N" horiz-adv-x="640" 
d="M611 444q8 -17 7.5 -26.5t-6.5 -15.5t-15.5 -9t-19.5 -6l-2 -1q-5 -1 -3.5 0t-1.5 -1q-26 -36 -41.5 -79.5t-28.5 -88.5q-10 -34 -21.5 -67.5t-28.5 -65t-42 -60t-63 -52.5q-36 24 -58.5 53t-36.5 62t-22 68t-15 70q-2 12 -2.5 16.5t-1 8t-1.5 8.5t-4 17
q-7 -14 -11.5 -25.5t-10.5 -24.5q-27 -62 -59.5 -127t-87.5 -128q-30 19 -43 36.5t-13 34.5q0 24 15 45.5t35 44.5q18 20 33 41t15 44l24 62q18 46 37.5 93t49.5 98q30 4 48.5 -3.5t29 -23t15.5 -35.5t8 -39q2 -9 4.5 -20.5t5.5 -20.5q8 -57 18 -111.5t27 -102.5
q35 38 51.5 83t33.5 96q16 49 35 98t55 95q16 6 30 4t26 -8.5t21.5 -16.5t14.5 -20z" />
    <glyph glyph-name="O" unicode="O" horiz-adv-x="522" 
d="M481 429q5 -20 6.5 -41.5t1.5 -42.5q0 -102 -44 -196.5t-116 -175.5h-19q-18 0 -35 1.5t-33 12.5q-39 -18 -82 -18q-50 0 -94 25q-33 28 -41.5 62.5t-11.5 70.5l-4 31q17 67 54 124t85.5 106t104 92t109.5 83q51 -17 79.5 -54t39.5 -79v-1zM377 457l-15 -13q-3 7 -10 15z
M353 196q13 -38 8 -63l-35 13l18 29l-1 -1zM387 348q0 26 -6 51t-19 45q-42 -34 -85.5 -71t-79 -79t-58.5 -89.5t-25 -101.5q6 -13 20 -24.5t28 -11.5q10 0 17 4h-1q32 22 55 52.5t25 68.5q2 8 -4 14t-11 8q-13 5 -25.5 13.5t-18.5 34.5l27 23q9 -2 14 -2h10q16 0 32.5 -4.5
t27.5 -18.5q15 -13 25.5 -30t17.5 -34q14 33 24 72.5t10 79.5z" />
    <glyph glyph-name="P" unicode="P" horiz-adv-x="491" 
d="M462 472q6 -36 -5 -66.5t-31 -56t-45.5 -46.5t-49.5 -40q-14 -1 -24 -4t-18 -7q-20 -8 -41 -13t-50 11q-12 13 -17 23.5t-5 18.5q0 23 17.5 27t39.5 6q13 1 26 3.5t17 10.5q30 23 57 53.5t35 65.5q-4 17 -23 27t-39 17q-6 2 -9 2.5t-8 2.5q-38 -10 -62 -28t-37.5 -42
t-18.5 -53t-5 -62q0 -23 2 -49.5t4 -52.5q2 -27 4 -55t2 -54q0 -32 -4.5 -62t-15.5 -57q-25 -37 -70 -28q-41 54 -60.5 120.5t-19.5 135.5q0 46 8.5 91.5t24.5 85.5q22 64 68 119.5t112 92.5q11 2 21.5 3t24.5 1q73 0 120.5 -37.5t72.5 -98.5zM120 181l-36 -8
q0 29 -1.5 57.5t-2.5 57.5l15 -15l15 15v-86z" />
    <glyph glyph-name="Q" unicode="Q" horiz-adv-x="558" 
d="M496 491q19 -35 27.5 -68.5t8.5 -67.5q0 -41 -10 -81t-26 -78.5t-36 -75t-39 -70.5q0 -15 9.5 -27t20.5 -23l25 -25q-3 -23 -19.5 -35.5t-35.5 -12.5q-11 0 -23.5 6t-20.5 14q-19 20 -43 28.5t-50 8.5q-13 0 -28 -1.5t-30 -3.5q-30 -3 -59 -3q-21 0 -40.5 3.5t-36.5 13
t-32 27t-26 45.5h1q-14 32 -21 66.5t-7 70.5q0 51 11.5 100t31.5 91l20 19q27 28 61 60.5t71.5 60.5t76.5 46.5t76 18.5q41 0 78 -24.5t66 -83.5zM221 60q-5 11 -6 22l14 1q2 0 4.5 0.5t4.5 0.5zM134 336q-14 -28 -22.5 -61t-8.5 -67t9.5 -65.5t29.5 -57.5q8 -5 17.5 -6.5
t18.5 -1.5q6 0 14.5 5t19.5 7q-3 12 -2.5 21t0.5 21q0 20 2 38t5 36v-1l4 40q55 0 95 -26.5t63 -65.5q30 60 45.5 128t12.5 135q-16 45 -35.5 63t-42.5 18q-22 0 -46 -12t-48 -30t-47.5 -39.5t-43.5 -41.5q-22 -22 -40 -37z" />
    <glyph glyph-name="R" unicode="R" horiz-adv-x="502" 
d="M401 578q39 -31 52.5 -67.5t13.5 -75.5q0 -19 -1.5 -36t-3.5 -32q-19 -40 -48.5 -72t-66.5 -52q41 -53 76 -106t58 -121q-11 -17 -23.5 -21.5t-25 -1.5t-23.5 10t-18 13l-204 295q19 17 32.5 22.5t24.5 5.5q9 0 18 -2.5t19 -6.5q6 -3 12.5 -5.5t12.5 -2.5q9 0 22 11
q23 26 41.5 54.5t18.5 61.5v10.5t-2 12.5q-23 25 -50.5 40t-58.5 15q-17 0 -35 -6h1q-17 -6 -30.5 -20.5t-23.5 -27.5l-5 -5q-3 -119 -13 -245t-30 -255q-11 6 -21.5 -3.5t-13.5 -24.5q-57 60 -78 124t-21 130q0 65 11 132t22 120q2 14 11 25.5t19 23.5q8 9 15 18t7 17
q0 7 -14 25q9 15 17 22.5t15 9.5t14 0.5t14 -3.5q10 -4 13 -1q20 24 50 35t61 11q39 0 77 -14.5t64 -37.5zM82 177l-10 66l16 119l15 -1z" />
    <glyph glyph-name="T" unicode="T" horiz-adv-x="624" 
d="M623 472q-40 -20 -82 -30t-84 -18q-29 -5 -55.5 -10.5t-52.5 -14.5q-5 -25 -13.5 -52.5t-17.5 -55.5q-14 -45 -26.5 -89.5t-12.5 -87.5q0 -27 8.5 -56t28.5 -59q-14 -18 -27 -23t-25 -2t-23 11t-21 16l-10 9q-17 30 -24 60t-7 60q0 66 25 130.5t55 121.5q-16 0 -32.5 -2
t-35.5 -6q-21 -4 -42.5 -6.5t-43.5 -2.5q-20 0 -38.5 4t-33.5 15t-25.5 30t-15.5 48q10 12 19.5 17t18.5 5.5t18 -3t18 -7.5q5 -2 11 -3.5t11 -2.5q40 4 88.5 10t98 13t97.5 14t88 13q33 6 68.5 11t67.5 10q20 -5 32 -19.5t4 -37.5z" />
    <glyph glyph-name="S" unicode="S" horiz-adv-x="394" 
d="M382 533q3 -18 -2.5 -33t-15.5 -28t-22 -23.5t-24 -19.5q-6 -4 -11.5 -8.5t-13.5 -11.5h-37v17q-26 -14 -51 -37.5t-48 -46.5q57 -16 106 -52t78 -90l9 -28v1q5 -14 9.5 -28t4.5 -31q0 -13 -3.5 -26.5t-14.5 -25.5q-34 -36 -76 -56.5t-88 -20.5q-14 0 -27 1t-27 6
q-36 6 -70 28.5t-51 58.5l4 81q29 8 45.5 7t25.5 -8t12 -19t6 -25q2 -13 7.5 -24t24.5 -11q38 2 73.5 11t56.5 38q-4 24 -15 40.5t-27 27.5t-35.5 19t-39.5 16q-26 11 -51.5 23t-53.5 36q-3 34 9 62.5t32.5 52.5t45.5 44t48 36q8 5 18.5 12.5t21.5 18.5q23 20 48 37.5
t54 17.5q31 0 60 -28z" />
    <glyph glyph-name="U" unicode="U" horiz-adv-x="535" 
d="M231 471q-8 -30 -21.5 -61t-28.5 -60q-21 -45 -40 -91t-19 -87q0 -27 12.5 -54.5t37.5 -50.5q43 4 71 21.5t47 43t30.5 57t20.5 64.5q8 28 17.5 57t23.5 57t35 53t52 46q16 -11 23 -13q9 -3 19.5 -9t23.5 -21q-6 -31 -17 -50.5t-23 -38.5q-11 -17 -20.5 -35t-11.5 -38
q-29 -49 -50 -111t-21 -123q0 -35 10 -70t33 -69q-29 -29 -54 -29q-11 0 -24 5.5t-27 18.5q-23 24 -30.5 54t-12.5 62q-22 -11 -47.5 -20t-54.5 -9q-30 0 -60 16q-22 13 -43 33t-36 44t-23 51.5t-4 57.5q8 45 19 89.5t27.5 88t40 86t55.5 83.5l60 -27z" />
    <glyph glyph-name="V" unicode="V" horiz-adv-x="511" 
d="M132 462q0 -8 0.5 -16t0.5 -17q0 -29 -1.5 -59t-2.5 -61q-2 -29 -3 -61t-1 -61q0 -23 1 -45t3 -44q21 12 40 30t36.5 39.5t32.5 44.5t29 44l16 24v-1q20 35 45 70t48 66q13 18 27.5 38t26.5 37q27 5 50.5 -11t32.5 -42q-41 -45 -77 -98.5t-62 -95.5q-23 -38 -47.5 -76.5
t-53 -74.5t-62.5 -68.5t-76 -59.5q-21 -3 -35.5 1.5t-25 14t-18 22t-13.5 25.5l-12 21q-7 37 -10 76.5t-3 81.5q0 70 8.5 144t22.5 146l69 -16z" />
    <glyph glyph-name="W" unicode="W" horiz-adv-x="694" 
d="M626 337q-11 -47 -28 -94t-42.5 -90.5t-60 -82t-79.5 -68.5q-42 -4 -75.5 19.5t-46.5 59.5v2q-20 -29 -42.5 -59t-50 -54t-60 -38t-71.5 -12q-35 32 -47 69t-12 76q0 29 2.5 52t6.5 45l78 287q15 10 30 11.5t28.5 -3.5t24.5 -14t17 -19q-9 -41 -18.5 -70.5t-20.5 -57.5v1
q-17 -51 -31.5 -101t-14.5 -101q0 -16 1.5 -33.5t6.5 -34.5q36 27 64.5 60.5t51.5 71t42.5 78.5t36.5 84q25 -5 40 -14.5t23.5 -22.5t11.5 -28.5t3 -33.5q0 -10 -0.5 -21t-1.5 -22t-1.5 -20.5t-0.5 -19.5v-14t2 -13q14 5 28 18t26.5 28.5t23 32.5t19.5 31q14 23 24 52t18 56
q7 25 15 50t20 49t29 46t43 41q28 -13 39 -26t11 -28q0 -16 -10 -32t-22 -33q-11 -14 -20 -29t-9 -27z" />
    <glyph glyph-name="X" unicode="X" horiz-adv-x="484" 
d="M218 405q8 -28 17 -50q9 8 17.5 14.5t16.5 13.5q20 17 40 33.5t43 27.5t49.5 15.5t59.5 -2.5q0 -10 0.5 -13t1.5 -5q7 -13 9.5 -25.5t-18.5 -24.5q-45 -19 -82 -49.5t-74 -64.5l-30 -28q0 -47 15.5 -96.5t51.5 -81.5q4 0 9.5 2t9.5 4q8 3 15.5 6.5t15.5 3t17 -6t20 -18.5
q0 -18 -6 -30t-15 -20t-20 -13t-21 -9q-28 -6 -51.5 1.5t-42.5 23t-34.5 35.5t-27.5 40l-18 64q-24 -19 -40.5 -48t-33.5 -60q-11 -20 -22.5 -41t-29.5 -47h-68q0 51 15 96t39 85t54 76t59 70q-13 51 -31.5 101t-56.5 101l26 56q33 -6 53.5 -20t33.5 -32.5t20.5 -40
t13.5 -43.5z" />
    <glyph glyph-name="Y" unicode="Y" horiz-adv-x="511" 
d="M450 454q-50 -51 -99.5 -103t-94 -106.5t-80.5 -112t-59 -118.5q8 -2 15 -6t13 -16q2 -12 -1.5 -22t-10.5 -17.5t-16 -12.5t-18 -5q-32 -2 -58 18t-30 58q17 71 47.5 129.5t72.5 112.5q-17 9 -34 22.5t-32 30t-26.5 35t-16.5 36.5v-3q-8 20 -10.5 44.5t-2.5 49.5
q0 10 0.5 18.5t0.5 17.5v11t0.5 14.5t0.5 14v9.5q30 0 49 -11t30.5 -28t17.5 -38.5t10 -43.5q3 -16 6.5 -31.5t9 -28t13 -20t18.5 -7.5q10 0 24 4.5t31 14.5l221 224q11 -4 25 -12t24.5 -19.5t13 -26t-9.5 -31.5z" />
    <glyph glyph-name="Z" unicode="Z" horiz-adv-x="720" 
d="M540 537q-2 -68 -28 -124t-66.5 -104t-90.5 -89t-99 -80q-11 -9 -16.5 -13t-10.5 -7t-10.5 -7.5t-16.5 -14.5q27 2 54 5t56 6q59 6 119 11t120 5q82 0 171 -19.5t192 -73.5q-42 -5 -68 -7.5t-39 -2.5q-26 0 -52.5 2t-52.5 5q-27 3 -53 5.5t-52 2.5q-23 0 -47.5 -2.5
t-47.5 -10.5q-118 -2 -237.5 -21.5t-229.5 -40.5l-67 -14q-14 20 -19.5 40t-5.5 40q21 15 46.5 33t48.5 33q54 36 109 74.5t106 82t95 92t75 104.5q-20 -5 -40.5 -13t-39.5 -15q-21 -8 -46 -17t-51.5 -15.5t-53.5 -9t-54 0.5q-16 17 -23.5 37t-3.5 45q15 10 29.5 11.5
t29.5 1.5q11 0 22 0.5t20 4.5q38 9 72.5 23t66.5 29q34 14 71 28.5t79 25.5l33 -33z" />
    <glyph glyph-name="bracketleft" unicode="[" horiz-adv-x="490" 
d="M458 574q-26 -17 -60 -24t-72 -7q-31 0 -61 3t-55 8q-8 -48 -19.5 -95t-25.5 -93q-21 -73 -38.5 -150t-15.5 -158q14 3 28.5 6t28.5 6q38 9 75.5 16.5t74.5 7.5q23 0 49.5 -4.5t58.5 -15.5l-16 -44q-90 -29 -187 -48t-201 -28q0 13 -1 21.5t-3 13.5q-5 16 -6.5 32
t14.5 27q-4 18 -5.5 37.5t-1.5 38.5q0 66 17.5 131.5t37.5 125.5q16 49 30.5 101.5t23.5 122.5q18 -10 21.5 -9t3.5 6q1 11 3 21t7.5 17.5t14.5 10t25 -1.5q20 -5 46 -6.5t51 -3.5q40 -2 80.5 -7.5t76.5 -25.5z" />
    <glyph glyph-name="bracketright" unicode="]" horiz-adv-x="519" 
d="M498 637q5 -17 3.5 -27t-8 -16t-16 -9.5t-19.5 -5.5q-5 -2 -3.5 -1t-2.5 -1q-7 -49 -19.5 -99.5t-26.5 -99.5q-20 -73 -37 -146t-14 -154l85 -41l-16 -45l-371 -16q-2 14 -3.5 20t-3.5 10q-5 10 -9 21.5t1 34.5q53 17 102.5 19.5t97.5 2.5h11q8 100 31 204t48 198l5 20
t4 15t4.5 15t5.5 20q-49 -6 -101.5 -10.5t-108.5 -4.5q-28 0 -53.5 1.5t-48.5 3.5q-23 8 -27 21.5t-2 27.5q0 3 -1 9.5t-4 25.5q118 2 239 11t234 28z" />
    <glyph glyph-name="backslash" unicode="\" horiz-adv-x="519" 
d="M84 550q90 -114 193.5 -225.5t218.5 -207.5q4 -17 2.5 -27t-5.5 -16t-10 -8.5t-12 -3.5l6 -9l-34 -34q-61 52 -122 113.5t-118 128t-108.5 134.5t-94.5 133l8 54l67 -26z" />
    <glyph glyph-name="asciicircum" unicode="^" horiz-adv-x="580" 
d="M451 772q0 -21 -5.5 -44.5t-10.5 -48.5l1 1q-6 -26 -11 -51t-5 -47q0 -26 9.5 -47t35.5 -36q2 -1 6 -0.5t7 1.5q8 1 16 1.5t15.5 -2t14 -9.5t12.5 -20q-6 -28 -25 -37t-42 -9q-12 0 -24.5 1.5t-21.5 3.5q-5 0 -11 1t-9 1q-23 13 -37.5 30t-22.5 37t-12 42t-5 45
q5 13 6.5 28.5t0.5 30.5q-19 -12 -38.5 -26t-39.5 -28q-47 -33 -96.5 -64.5t-118.5 -54.5q-5 19 -8.5 41t0.5 44q98 50 186 116.5t172 139.5q19 0 35.5 -8t23.5 -24z" />
    <glyph glyph-name="underscore" unicode="_" horiz-adv-x="833" 
d="M793 -10q9 -11 10.5 -24t0.5 -22v-13q-20 -18 -36 -24.5t-33 -6.5t-33 4t-32 10q-18 6 -37.5 11t-39.5 2q-38 1 -81 -1t-87.5 -5.5t-87 -8t-79.5 -8.5q-57 -8 -117.5 -14t-117.5 -9q-17 10 -23 22.5t-6 26.5q0 11 3.5 24.5t8.5 26.5q57 3 118.5 9t118.5 13q82 9 171 17.5
t175 8.5q38 0 78 -2.5t84 -7.5l38 -25z" />
    <glyph glyph-name="acute" unicode="&#xb4;" horiz-adv-x="557" 
d="M519 825v-6.5t1 -7.5q1 -8 2 -15.5t-1.5 -14.5t-10 -13t-22.5 -10l-35 17q-39 -20 -72.5 -42t-67.5 -45l-62 -42t-64.5 -39t-69.5 -32t-77 -21q-17 21 -24 36t-7 26q0 25 21 35t47 16q16 3 30 7t21 15q78 60 164 112.5t183 86.5l40 -48z" />
    <glyph glyph-name="grave" unicode="`" horiz-adv-x="385" 
d="M356 629q4 -10 1 -23.5t-11 -26t-19.5 -22.5t-24.5 -13q-33 30 -64 51t-62 41q-44 27 -86 57t-80 75l15 50q66 -24 118 -54.5t98 -60.5q26 -17 53.5 -34t53.5 -31z" />
    <glyph glyph-name="exclam" unicode="!" horiz-adv-x="394" 
d="M364 931q-13 -72 -33 -142.5t-43 -142.5q-32 -100 -58.5 -198t-28.5 -196q6 -16 16 -40t15 -38q-33 -4 -53 1t-31.5 17t-15.5 29t-4 37q0 11 0.5 22.5t1.5 22.5q1 5 1.5 11t0.5 12l137 626q13 12 26 15t25 0.5t22 -8.5t16 -12zM140 68q8 -27 0 -51.5t-20 -47.5
q-16 -6 -26.5 -6.5t-18.5 3t-13.5 9.5t-10.5 14q-5 5 -12 10t-31 10q6 12 14 27.5t18.5 29.5t23 23.5t27.5 9.5q24 0 46 -23z" />
    <glyph glyph-name="quotedbl" unicode="&#x22;" horiz-adv-x="323" 
d="M293 442q-27 -15 -46.5 -10.5t-32.5 18.5t-21 34t-11 36q-5 20 -1.5 40.5t8.5 40.5v-1q2 13 4.5 24.5t2.5 20.5q0 19 -13 41q-5 38 14.5 55.5t44.5 17.5q15 0 29.5 -5t24 -15.5t12 -25.5t-6.5 -35zM135 693q4 -21 0 -43.5t-9 -44.5q-4 -13 -6.5 -25.5t-2.5 -23.5t6 -21
t21 -19q9 -15 10.5 -28t-2.5 -24.5t-11 -21.5t-15 -20q-3 -4 -7.5 -10.5t-8.5 -14.5q-35 -4 -63.5 17.5t-36.5 53.5q1 14 1 27.5v27.5q0 51 5 101t33 99q24 5 45.5 -1.5t34.5 -19.5z" />
    <glyph glyph-name="numbersign" unicode="#" horiz-adv-x="802" 
d="M484 717l21 -7t22.5 -10t17.5 -15t6 -22q3 -23 -1 -43t-10 -39q-1 -5 -1 -5.5t-2 -8.5q5 -1 9.5 -1.5t9.5 -0.5q14 0 28 2.5t30 5.5q17 4 34.5 6.5t38.5 2.5q8 0 16.5 -0.5t14.5 -0.5q13 1 22 -2t17 -8l40 -26q-24 -13 -44 -21t-37 -14t-32.5 -9.5t-31.5 -7.5
q-42 -9 -80 -21t-65 -36l-8 -35q-3 -10 -5.5 -21t-4.5 -22q17 1 42 6q19 3 38.5 5t39.5 2q14 0 40 -6t71 -20q-79 -22 -150.5 -51.5t-115.5 -65.5q-2 -17 -3 -34t-1 -34q0 -36 8 -72.5t29 -70.5q-9 -17 -16.5 -25t-15 -10t-15.5 -0.5t-16 4.5q-5 2 -9.5 3t-12.5 3
q-26 39 -35 72t-9 65q0 20 2 39.5t4 40.5v6t1 6q-25 -5 -49 -14t-47 -23q2 -8 2.5 -17.5t1.5 -17.5q0 -9 1.5 -18t5.5 -16.5t12 -12.5t23 -7q6 -29 -5 -45t-31 -21q-37 0 -58 24.5t-34 54.5l-13 67q-10 2 -23.5 -1.5t-26.5 -6.5h1q-14 -4 -26 -7t-23 -3q-23 0 -37.5 14
t-18.5 54q22 31 50 38.5t57 9.5q14 1 27.5 2t24.5 6q2 27 4 49t4 51q-11 0 -25 -2t-26 -4q-25 -5 -49 -5q-23 0 -44 10.5t-39 40.5q12 17 25.5 26.5t28 14.5t29.5 7t30 3q22 2 44 6t32 17v113q15 3 31 -1t30 -12.5t23.5 -21t9.5 -27.5q2 -10 2.5 -17.5t2.5 -19.5
q17 2 35.5 7t37.5 11q37 13 72 19zM437 433l-27 -4q2 6 3 12.5t3 14.5zM410 429q-16 -5 -32 -9.5t-30 -9.5t-28 -9.5t-26 -6.5q-1 -12 -2 -22t-1.5 -20t-1.5 -21t-1 -25l43 13l56 14z" />
    <glyph glyph-name="dollar" unicode="$" horiz-adv-x="394" 
d="M394 806q0 -17 -3.5 -35t-8.5 -37q-4 -14 -7 -28.5t-3 -28.5q0 -12 8 -23.5t28 -22.5q-5 -14 -11 -28.5t-13.5 -28t-18 -24t-24.5 -14.5q-3 -23 -14.5 -49t-25.5 -51q-14 -26 -25 -50.5t-11 -42.5t19 -29t71 -15q20 -19 31.5 -44.5t11.5 -50.5q0 -18 -4.5 -35.5
t-16.5 -31.5q-16 -32 -41.5 -52.5t-52.5 -39.5q-15 -10 -29 -20.5t-25.5 -25t-18 -33t-6.5 -45.5q-17 0 -20 -3t-5 -7v1q-4 -9 -8.5 -17t-12 -10t-18.5 3t-28 20q4 22 0 38t-12 27.5t-19.5 20t-23.5 16.5q-16 10 -31 21.5t-26 28t-16.5 39t-1.5 54.5q18 3 31 0.5t22.5 -9
t16 -15.5t12.5 -19q7 -10 16.5 -20.5t20.5 -12.5l56 197l-15 13q-13 11 -28 23.5t-27.5 27.5t-20.5 32t-8 37q0 16 9 39q10 25 26 47.5t36 42.5t42 39t44 37l1 1q14 11 25 20.5t24 20.5q7 15 8.5 35.5t2.5 40.5q1 32 6.5 64t33.5 62q46 -7 74 -40zM243 499
q-7 -9 -16.5 -18.5l-20.5 -20.5h1q-2 -2 -3 -2.5t-2 -1.5l3 25l3 30zM178 382q11 11 16 31.5t8 42.5q-15 -14 -27 -27t-12 -24t15 -23zM263 252q-2 -2 -3.5 -4.5t-2.5 -4.5q-3 1 -9 1zM215 121v-1q-2 -8 -4 -17t-4 -17l-22 23q7 2 11.5 3.5t11.5 3.5zM280 230
q-6 4 -11.5 7.5t-11.5 5.5q-18 -26 -27 -58t-15 -64l8 7q23 20 44.5 42t25.5 50z" />
    <glyph glyph-name="percent" unicode="%" horiz-adv-x="721" 
d="M-62 -145q-13 0 -22 6.5t-17 13.5q-2 2 -5 4.5t-5 4.5l-7 4l49 109l1 1q31 32 61.5 63t60.5 62q95 96 186 191.5t172 194.5t148 204t115 221l3 8l9 -2q20 -4 41 -14.5t26 -38.5v-2v-2q-13 -42 -31 -81t-41 -80q-42 -73 -102 -148q-57 -72 -123 -139t-132 -133
q-52 -51 -103.5 -103.5t-99 -107.5t-89.5 -112t-75 -117l-2 -3l-3 -1q-8 -3 -15 -3zM442 -63q-37 0 -68 10h-1l-1 1q-25 12 -40.5 30.5t-25 40t-13.5 45t-6 46.5v2l1 2q11 35 32 68t50 62q62 62 133 80h1q16 3 33 3q53 0 93 -29.5t54 -79.5q25 -53 -1 -113q-18 -43 -66 -91
q-17 -18 -37 -32.5t-43 -24.5q-46 -20 -95 -20zM514 215q-6 -4 -10 -6q-17 -11 -35.5 -24t-33.5 -29t-23.5 -34t-5.5 -40v-1q0 -4 1 -12t5 -15.5t11.5 -13.5t21.5 -6q4 0 12 2q55 31 90 78.5t43 98.5q-7 10 -22 10q-7 0 -13.5 -1t-13.5 -3t-13.5 -3t-13.5 -1zM235 445
q-28 0 -49 12.5t-37.5 31t-28.5 40t-21 39.5q-29 59 8 118q14 22 36.5 41t49.5 33l1 1h2q13 3 26 4t26 1q57 0 94 -22q45 -27 54 -80l1 -1v-2q-2 -25 -8 -57.5t-20.5 -63t-39.5 -55.5t-64 -36q-13 -4 -30 -4zM261 664q-43 0 -52 -39q-5 -18 1 -39.5t26 -35.5q23 23 29.5 53
t6.5 60q-4 1 -11 1z" />
    <glyph glyph-name="ampersand" unicode="&#x26;" horiz-adv-x="710" 
d="M502 725q10 -36 10 -70q0 -43 -14 -82t-36.5 -73.5t-51.5 -65t-60 -56.5q8 -56 32.5 -104t74.5 -80q29 16 52.5 39t46.5 48q29 29 58 56t70 44q21 -9 29 -20.5t8 -22.5q0 -13 -7 -26t-15 -23l-138 -132l49 -38l-29 -30l-13 -33l-100 24q-64 -44 -135.5 -70.5
t-142.5 -48.5q-20 -6 -41 -12.5t-41 -14.5l-38 5q-18 2 -35 5.5t-32 11.5t-26.5 22t-17.5 38q15 64 44.5 122t67.5 111t82.5 102t88.5 96q-14 47 -14 88t11.5 80t32.5 75.5t49.5 69.5t62.5 63q44 -3 76.5 -32.5t41.5 -66.5v1zM409 663q-3 21 -11 22t-18 -10.5t-20.5 -31.5
t-18 -40.5t-10 -38.5t3.5 -26q9 -12 22.5 1t25.5 35.5t20 48t6 40.5zM257 294q-28 -29 -56.5 -59t-53 -62.5t-44 -66.5t-28.5 -70q79 8 150.5 39t140.5 67q-22 18 -43 40.5t-35 48.5l-22 72z" />
    <glyph glyph-name="quotesingle" unicode="'" horiz-adv-x="223" 
d="M202 787q-9 -36 -19.5 -64t-20.5 -57q-16 -40 -29 -81t-20 -83l48 -19q-4 -13 -15.5 -26t-26 -22t-30 -12t-28.5 4q-26 12 -35.5 29t-9.5 37q0 17 5 39q2 10 3 19.5t1 18.5l104 290q12 -9 17.5 -13t8 -5t3 -1t3.5 -1q11 -7 23 -15.5t18 -27.5v-10z" />
    <glyph glyph-name="parenleft" unicode="(" horiz-adv-x="457" 
d="M444 659q-13 -15 -31 -23.5t-39 -16.5h1q-19 -8 -38 -16.5t-33 -19.5q-11 -15 -22.5 -30t-24.5 -32q-26 -34 -52 -69.5t-47 -72t-34 -74t-13 -74.5q0 -53 29 -102q20 -33 50 -43t62 -10h17.5t17.5 1q8 0 17 0.5t17 0.5q12 0 28.5 -1.5t37.5 -5.5q-11 -25 -23.5 -40
t-27 -24.5t-30 -15t-30.5 -10.5l-24 -7q-39 -3 -73.5 11.5t-63.5 38.5t-51.5 55t-38.5 63q-3 18 -5 36.5t-2 39.5q0 75 25.5 146.5t69 134.5t102 116t123.5 92l16 4v-1q11 2 22 5t20 3q20 0 34 -9.5t19 -34.5z" />
    <glyph glyph-name="parenright" unicode=")" horiz-adv-x="319" 
d="M278 517q14 -37 19.5 -73.5t5.5 -72.5q0 -63 -18 -121.5t-48.5 -111.5t-72.5 -101t-90 -88q-13 -6 -21 -6t-13.5 3.5t-8.5 9.5l-6 12q-1 1 -4 3t-11 6v42q36 40 70.5 82t61 87t42.5 92.5t16 98.5q0 23 -3 47.5t-11 50.5q-3 16 -11.5 29.5t-20.5 25t-26.5 21.5t-29.5 20
q-20 13 -38.5 26.5t-30.5 31.5t-15.5 42.5t6.5 58.5q39 -15 79 -36t75.5 -48t62.5 -60t41 -71z" />
    <glyph glyph-name="asterisk" unicode="*" horiz-adv-x="513" 
d="M320 454q-1 -8 -2 -17t-4 -19q-2 -9 -4 -21.5t-2 -24.5q14 2 27.5 10.5t28.5 18.5q20 14 39 25t40 11q28 0 58 -30q-3 -24 -14.5 -43t-29 -35t-38 -29.5t-41.5 -25.5q-16 -9 -31 -18.5t-27 -18.5t-19 -17.5t-7 -15.5q0 -11 23.5 -30.5t80.5 -48.5q-16 -9 -25 -17
t-13.5 -15t-5.5 -14t-1 -13q-1 -16 -3 -30.5t-10.5 -23.5t-26 -11t-49.5 7q-10 20 -15.5 34.5t-10.5 28.5q-7 20 -14.5 39.5t-19.5 35.5q-14 -11 -28 -26t-28 -29q-23 -25 -49 -48t-69 -43q-23 41 -23 63q0 32 18.5 56.5t41.5 50.5q15 17 29.5 35t20.5 36q-7 14 -20.5 27.5
t-28.5 27.5q-23 20 -41 41t-18 49q0 21 22 56l144 -71q17 35 24.5 74.5t13.5 80.5q5 40 15 83t33 91q44 -14 58.5 -39t14.5 -55q0 -17 -2.5 -35t-4.5 -35q-4 -21 -6.5 -40.5t-0.5 -36.5v-5z" />
    <glyph glyph-name="plus" unicode="+" horiz-adv-x="446" 
d="M262 381q5 -2 9.5 -2h9.5q8 0 17 1t19 2q8 2 18.5 3t20.5 1q15 0 32.5 -5t39.5 -22q-9 -18 -20.5 -29.5t-25.5 -18.5t-29.5 -10.5t-30.5 -6.5q-24 -4 -45 -10.5t-21 -25.5q0 -6 2 -15t7 -22q2 -17 4.5 -32.5t2.5 -34.5q0 -17 -4.5 -36t-17.5 -42q-31 7 -47.5 23.5
t-24 37.5t-8.5 45.5t-1 48.5v29v9q-24 1 -49 3.5t-47.5 11.5t-40.5 27t-28 48q17 17 31.5 22.5t29.5 5.5q14 0 24 -2t21 -4q10 -2 19 -4t15 -2q14 0 24 12l-3 191q31 -11 49 -28.5t27.5 -38t12.5 -43t4 -44.5v1z" />
    <glyph glyph-name="comma" unicode="," horiz-adv-x="249" 
d="M226 33q3 -14 3 -32q0 -31 -12 -59.5t-31.5 -54.5t-43 -49t-45.5 -42q-18 20 -25.5 36t-7.5 28q0 21 10 39.5t23 37.5v-1q13 20 23.5 39.5t5.5 42.5q-5 9 -15 11t-21 2q-13 1 -25.5 2.5t-21.5 8.5t-14.5 20.5t-4.5 39.5q19 16 36 22.5t33 6.5q20 0 39.5 -8.5t36 -21.5
t30.5 -29.5t24 -31.5z" />
    <glyph glyph-name="hyphen" unicode="-" horiz-adv-x="643" 
d="M599 331q-5 -37 -18 -50t-32 -13q-11 0 -22 3.5t-22 8.5q-13 5 -25.5 9.5t-22.5 4.5q-12 0 -25 -9q-14 2 -20.5 2h-11.5q-35 0 -70.5 -4.5t-70.5 -10.5q-35 -5 -69 -9.5t-71 -4.5q-17 0 -35.5 1t-39.5 5l-2 22q-5 14 -5 33t10 32.5t39 17.5h38q41 0 82 2.5t82 6.5
q41 3 80.5 6t80.5 3q29 0 58 -1.5t58 -6.5z" />
    <glyph glyph-name="period" unicode="." horiz-adv-x="214" 
d="M89 135q36 -4 63.5 -25.5t24.5 -59.5v-4q1 -13 -3 -26t-24 -23q-7 2 -10.5 2h-7.5q-13 0 -26.5 1.5t-24 7t-15 17t0.5 31.5z" />
    <glyph glyph-name="slash" unicode="/" horiz-adv-x="615" 
d="M588 534q-119 -116 -227 -230t-214 -231q5 -3 9 -6.5t5 -5.5q-4 -4 -14 -15.5t-14 -16.5q-17 -22 -40 -42.5t-61 -23.5q-20 16 -23.5 34t-2.5 34v16q99 91 181.5 181t160.5 179q45 50 92 103.5t92 101.5q20 -6 27 -12l14 -12l15 -15v-39z" />
    <glyph glyph-name="zero" unicode="0" horiz-adv-x="491" 
d="M462 375q3 -20 3 -42q0 -49 -14 -97.5t-37.5 -94.5t-54.5 -89.5t-66 -82.5q-30 -8 -47 -8q-24 0 -47.5 6t-45.5 14q-12 4 -25.5 7.5t-30.5 6.5q-47 29 -65 70.5t-18 88.5q0 18 2 35.5t5 34.5q21 46 55 86.5t75.5 72.5t88.5 54t95 32q21 0 42.5 -6.5t39.5 -18.5t30 -29.5
t15 -39.5zM168 247q-23 -23 -36.5 -52.5t-13.5 -59.5q0 -10 3 -23l-1 2q8 -22 26.5 -30.5t40.5 -8.5q8 0 16.5 1.5t16.5 3.5q31 21 57.5 48.5t46 60t30.5 67.5t11 71v11.5t-1 12.5q-6 1 -11 1h-10q-25 0 -48 -9t-45 -24t-42.5 -34t-39.5 -38z" />
    <glyph glyph-name="one" unicode="1" horiz-adv-x="214" 
d="M203 495q-5 -29 -12.5 -59.5t-14.5 -60.5q-17 -71 -31 -142t-14 -147q0 -19 2 -42.5t6 -52.5q-31 -16 -47 -16q-20 0 -37.5 13t-25.5 36q-2 20 -3.5 39t-1.5 39q0 77 16.5 157t36.5 158l24 102q11 18 23.5 22.5t24.5 1.5t23.5 -11t20.5 -15l5 -5z" />
    <glyph glyph-name="two" unicode="2" horiz-adv-x="569" 
d="M400 418q0 -44 -14.5 -83.5t-37.5 -75.5t-53 -68.5t-61 -62.5q23 2 46.5 3.5t47.5 1.5q60 0 125.5 -12.5t132.5 -41.5q-40 -24 -69 -32t-53 -8q-13 0 -27 1l-28 2q-14 2 -27 2h-26q-20 0 -40.5 -3t-42.5 -11q-25 -1 -48 -9t-44 -18q-26 -11 -52 -20.5t-51 -9.5
q-18 0 -36 7t-38 25v34l27 22q42 34 85 71.5t80.5 78.5t65.5 86.5t40 95.5q-27 -2 -57.5 -9t-56.5 -15q-24 -8 -57.5 -17t-70.5 -11q0 14 -1 18t-3 6q-5 4 -9.5 9t-6.5 11.5t0.5 15t10.5 20.5q26 6 47.5 14t41.5 16q35 15 72 28t72 13q32 0 61.5 -14t51.5 -50z" />
    <glyph glyph-name="three" unicode="3" horiz-adv-x="516" 
d="M480 498q2 -27 -6 -50t-22 -42t-32.5 -35.5t-36.5 -31.5q30 -23 57 -50t38 -63q9 -20 9 -41q0 -22 -7.5 -41t-16.5 -37v1l-12 -24q-27 -22 -57.5 -41t-64 -32.5t-68.5 -21.5t-69 -8q-35 0 -70 9t-67 27q-21 25 -35.5 55.5t-14.5 63.5q0 20 8 47l5 5q2 2 4 3.5t4 3.5
q15 15 32.5 24t43.5 -9q9 -16 7.5 -32t-3.5 -33q-5 -22 -5 -34q0 -10 4.5 -17.5t18.5 -12.5l-1 1q28 -5 49 -5q44 0 86.5 13.5t77.5 34.5l-1 -1q44 31 44 75q0 15 -5 29q-11 14 -25 23t-28 15t-26 12.5t-22.5 16t-18 24t-10.5 36.5q11 12 25 22.5t28 21.5q20 14 38.5 29.5
t23.5 30.5q-33 -8 -63.5 -20t-59.5 -25q-28 -13 -59.5 -25t-73.5 -23l-34 75q37 21 75 40.5t76.5 35.5t78 25.5t79.5 9.5q17 0 34 -1.5t34 -5.5l29 -37z" />
    <glyph glyph-name="four" unicode="4" horiz-adv-x="680" 
d="M547 473q-5 -25 -14 -48.5t-20 -46.5q-8 -15 -14 -30t-11 -29q10 0 21 1.5t23 3.5l26 4t27 2q26 0 45 -14t29 -56q-35 -11 -59.5 -15t-46.5 -7q-28 -3 -55.5 -7.5t-49 -16t-34 -32t-11.5 -55.5q-4 -13 -4.5 -22.5t-2.5 -20.5q-3 -26 -10 -50t-33 -41q-33 20 -45.5 42
t-12.5 46q0 15 3 31t8 33t8 32.5t2 28.5h-15q-17 0 -37 -2t-41 -5q-22 -3 -43 -5t-44 -2q-38 0 -71.5 13t-61.5 51v38l266 226q14 -2 32 -8t31 -17t16 -26.5t-13 -36.5q-32 -36 -68.5 -67t-75.5 -60h161q30 54 64.5 111.5t63.5 111.5q12 -2 23.5 -5.5t21.5 -9.5t16 -15
t6 -22v-3z" />
    <glyph glyph-name="five" unicode="5" horiz-adv-x="669" 
d="M419 394q-54 0 -105 7.5t-99 25.5l-1 1v-5q0 -15 -3 -29t-11 -25l1 3q-4 -10 -9 -19.5t-10 -19.5q-5 -9 -8 -13t-5.5 -7.5t-4.5 -8t-4 -15.5h2q1 0 1 0.5t1 0.5h-1q39 11 82 20.5t85 9.5q29 0 56 -6t50 -22q23 -21 37 -50.5t14 -59.5q0 -17 -5.5 -34t-16.5 -31
q-10 -25 -26.5 -44.5t-36.5 -36t-42.5 -29.5t-43.5 -25l-12 -6q-21 -10 -44 -10q-21 0 -40 8.5t-35 22t-28.5 31t-21.5 34.5v60q66 -60 109 -60q41 0 82 35q30 20 48.5 48.5t17.5 64.5q-17 10 -33.5 13.5t-33.5 3.5q-31 0 -64.5 -11.5t-62.5 -23.5q-34 -15 -69 -26.5
t-70 -11.5q-8 0 -18 1t-22 3l-21 33q7 15 16.5 35.5t17.5 35.5q26 52 48.5 105t33.5 116q26 22 45 22q14 0 24.5 -7.5t17.5 -20.5q7 10 23 14t34 6q6 2 14 3.5t16 4.5q26 -8 52 -10.5t52 -2.5h22t22 1q12 1 24.5 1h24.5q45 0 86 -10t73 -42l-11 -32q-50 -5 -104 -10.5
t-110 -5.5z" />
    <glyph glyph-name="six" unicode="6" horiz-adv-x="496" 
d="M365 475q9 -25 4 -41t-18.5 -25t-31.5 -12t-33 -3q-21 14 -37 14q-15 0 -30 -9.5t-28 -23t-24 -29.5t-20 -28l2 1q-17 -32 -33.5 -68.5t-16.5 -73.5q0 -12 2 -24t7 -23q11 37 40 64.5t62 53.5l-1 -1q8 7 15.5 12.5t15.5 11.5q18 15 40.5 20.5t45.5 5.5q22 0 44.5 -4
t40.5 -12q29 -8 45 -32.5t16 -53.5q0 -25 -13 -46l-21 -23q-26 -28 -53 -56t-57 -49t-64.5 -33t-74.5 -7q-31 -4 -56 6t-45.5 27t-36.5 38.5t-29 41.5q-14 26 -19.5 50.5t-5.5 49.5q0 36 11 71t28.5 68t39 64t42.5 59q15 10 33.5 22t38.5 22t41 16.5t42 6.5q24 0 47 -9.5
t42 -33.5zM296 172q-12 -7 -25 -15t-24 -17.5t-18 -20t-7 -21.5q9 -2 17 -3t19 -2q28 17 56 42.5t45 53.5q-5 1 -7 1h-7q-18 0 -30 -6z" />
    <glyph glyph-name="seven" unicode="7" horiz-adv-x="587" 
d="M481 459q2 -35 -11.5 -63.5t-27.5 -54.5q-6 -11 -12.5 -23t-10.5 -23q9 -1 19 -1.5t20 -1.5q26 -2 55 -9t71 -33q-55 -30 -96 -35.5t-78 -4.5h-39t-34 -4q-14 -19 -29 -35.5t-29 -31.5q-37 -39 -71 -82.5t-44 -94.5q-12 -16 -22.5 -16.5t-20.5 0.5q-3 1 -7 1h-8
q-22 14 -31 28t-9 28q0 17 9.5 31.5t20.5 29.5q7 10 13.5 19.5t8.5 20.5l105 117q-5 3 -12 3.5t-16 0.5q-12 0 -25 -1.5t-25 -3.5l-22 -2t-21 -1q-20 0 -31.5 7t-11.5 26q0 11 5.5 24t19.5 33q19 9 37.5 13t36.5 4q20 0 37.5 -2.5t34.5 -4.5q17 -3 33.5 -5.5t31.5 -1.5
q20 26 39 54.5t30 57.5q-20 -1 -42 -4t-46 -8q-28 -5 -56 -9t-57 -4q-44 0 -83.5 19t-69.5 72q17 15 32 21.5t29 6.5t28 -3t28 -8h-1q17 -5 33.5 -9t34.5 -2q25 -4 53.5 2t57.5 14q24 7 47 12.5t43 5.5q29 0 51.5 -13.5t33.5 -50.5z" />
    <glyph glyph-name="eight" unicode="8" horiz-adv-x="484" 
d="M332 517q-7 -27 -28 -42.5t-41 -26.5l-15 -9q-11 2 -22.5 4t-22.5 6t-22 6.5t-21 2.5q-8 0 -14.5 -3.5t-12.5 -13.5l-7 -9q-8 -12 -15.5 -26t-7.5 -28q0 -7 5 -20l-2 3q11 -13 19.5 -18t15.5 -5q13 0 28 12t30 28q20 18 40.5 34t43.5 19q12 5 27.5 13t26.5 15
q25 15 50 27.5t53 12.5q22 0 55 -16l-5 -52q-22 -14 -48 -28.5t-47 -25.5q-35 -18 -72.5 -39.5t-71.5 -50.5q25 -20 49 -44t33 -60q-4 -54 -29.5 -96.5t-63.5 -80.5q-5 -1 -9.5 -2t-13.5 -6q-14 -5 -28.5 -9.5t-30.5 -4.5q-11 0 -23.5 4.5t-26.5 16.5q-28 35 -49 73.5
t-21 85.5q0 13 2.5 27.5t8.5 33.5q20 10 28 16.5t8 11.5t-9.5 13.5t-21.5 18.5h1q-18 14 -33 30t-19 36q-7 17 -7 42q0 18 6.5 36.5t16.5 35t22.5 31t24.5 25.5q31 29 68.5 47t78.5 29q30 -8 62 -21t54 -44zM184 214l-1 -1q-8 3 -15 10l26 2zM200 206q-4 2 -8 3.5t-9 3.5
q-9 -10 -18 -20.5t-16 -21.5t-10 -23.5t1 -26.5q8 -8 15 -25v1q3 -7 7 -12.5t9 -3.5q25 23 40.5 48.5t13.5 57.5q-2 8 -9.5 12t-15.5 7z" />
    <glyph glyph-name="nine" unicode="9" horiz-adv-x="472" 
d="M387 419q-9 -11 -20 -18.5t-34 -1.5q-28 17 -58 17q-33 0 -65.5 -15.5t-62.5 -32.5l2 1l-14 -9q-21 -15 -21 -33q0 -13 5 -26.5t10 -27.5q7 -7 14.5 -9t15.5 -2q12 0 23 2.5t22 4.5q5 2 11.5 4t10.5 3q38 22 77 57.5t71 69.5q20 0 36.5 -8t26 -21t10.5 -29.5t-10 -33.5v1
l-161 -262l5 -6h-1q9 -11 14 -25t-3 -37q-27 -9 -47 -9q-27 0 -48.5 15t-26.5 47q7 42 22 78.5t35 72.5q-16 -4 -33.5 -6.5t-37.5 -2.5q-30 0 -57 10t-46 38q-14 26 -27.5 59t-13.5 65q0 15 3.5 30.5t11.5 30.5q24 18 53 37t61 34.5t65 25.5t65 10q36 0 70.5 -18t65.5 -60z
" />
    <glyph glyph-name="colon" unicode=":" horiz-adv-x="221" 
d="M104 502q18 -2 35 -8.5t29.5 -17t19 -25.5t4.5 -34v-4q1 -14 -3 -26.5t-23 -22.5q-8 2 -11 2h-7q-13 0 -27 1.5t-24.5 7t-15 17t0.5 31.5zM157 105q-13 -17 -37.5 -31t-59.5 -6q-10 20 -15.5 38t-5.5 33q0 14 5.5 31t19.5 36q20 -1 33 -6t22 -13t15 -18t12 -21
q3 -5 5.5 -10.5t6.5 -11.5z" />
    <glyph glyph-name="semicolon" unicode=";" horiz-adv-x="214" 
d="M180 418q-8 -3 -14 -10.5t-13 -15.5q-11 -17 -27 -31.5t-48 -14.5q-27 31 -27 57q0 17 7.5 32t16.5 31q5 8 15 34q20 4 35.5 -0.5t27.5 -13.5t21 -20.5t15 -20.5zM170 126q1 -36 -2.5 -74t-16.5 -72.5t-37.5 -63t-64.5 -47.5q-10 19 -14 31.5t-4 23.5q0 20 7.5 38
t16.5 35q10 18 17.5 37t4.5 40q1 15 -2 28t-8 26q-6 20 -9.5 40.5t5.5 49.5q24 6 39.5 2.5t26 -13t17 -23t11.5 -26.5q5 -16 10 -23z" />
    <glyph glyph-name="less" unicode="&#x3c;" horiz-adv-x="638" 
d="M474 487q-8 -43 -30 -74.5t-51.5 -54.5t-64 -41t-68.5 -34l-4 -2l-5 -2q18 -6 36 -9.5t37 -8.5q43 -10 86.5 -21.5t80.5 -32.5t66 -54.5t44 -87.5q-6 -19 -15 -22t-19 -3l2 1.5l2 1.5l-3 -2t-14 -9q-42 46 -90 73.5t-99 44t-104.5 24.5t-106.5 14q-31 4 -70.5 9t-68.5 10
v86q62 20 115 40.5t100 48t89 64.5t82 91q13 6 22.5 5.5t16 -4.5t10.5 -10.5t8 -12.5q4 -7 7 -9z" />
    <glyph glyph-name="greater" unicode="&#x3e;" horiz-adv-x="549" 
d="M488 434q20 -16 20.5 -41t-11.5 -40q-32 -32 -68.5 -64.5t-71.5 -64.5q-63 -55 -122.5 -111t-107.5 -121q-12 -3 -24.5 -1.5t-23 7t-16.5 15.5t-4 25l16 67q30 32 61 59.5t63 54.5q30 26 60.5 53t58.5 56q-5 1 -11.5 1h-12.5q-39 2 -80.5 6t-80.5 16.5t-72.5 37
t-56.5 67.5q31 24 49 24t35.5 -9t35.5 -20q14 -9 29 -17t29 -10q22 -3 43 -4t41 -1q51 0 103.5 6t103.5 14z" />
    <glyph glyph-name="equal" unicode="=" horiz-adv-x="441" 
d="M408 376q-39 -8 -79 -12t-80 -4q-56 0 -116 8.5t-118 27.5v72q28 -2 64.5 -4t64.5 -3q67 -2 132.5 -7.5t131.5 -31.5v-46zM397 209q-39 -3 -72.5 -9t-67.5 -12q-42 -8 -84.5 -15t-89.5 -7q-27 0 -60 3q-14 22 -13.5 36t1.5 28q1 5 1 14.5v21.5q26 -4 38.5 -4.5t22.5 -0.5
q24 0 50 2.5t53 4.5q26 3 52 5.5t53 2.5q26 0 54.5 -3.5t61.5 -14.5v-52z" />
    <glyph glyph-name="question" unicode="?" horiz-adv-x="453" 
d="M438 684q4 -46 -7.5 -82t-34 -66.5t-53 -57t-62.5 -51.5h1l-48 -40t-44 -42.5t-36 -48.5t-23 -57q-18 -7 -29.5 -6t-18.5 7t-11.5 14.5t-7.5 16.5l1 -2q-1 2 -3 6.5t-5 8.5q10 36 26.5 65t37.5 53t45.5 44.5t48.5 40.5q23 19 45.5 38t41.5 40t33.5 44.5t20.5 52.5
q-17 14 -38 14q-20 0 -42.5 -10t-45.5 -22q-14 -8 -27 -14t-28 -11q-15 -12 -32.5 -25.5t-35.5 -27.5t-35.5 -27.5t-32.5 -25.5q-11 22 -15 36t-4 24q0 21 9.5 38.5t25 31.5t35 26t38.5 23q27 14 50 31q8 3 17.5 6t19.5 8q28 12 61 23t62 11q33 0 60 -17.5t39 -66.5zM142 32
q-4 -22 -17.5 -28.5t-27.5 -8.5q-5 -1 -8 -0.5t-17 -8.5q-17 23 -23 41.5t-6 35.5q0 22 6 45t14 44q25 10 41.5 8t26.5 -12t14 -25.5t4 -33.5q0 -31 -8 -58z" />
    <glyph glyph-name="at" unicode="@" horiz-adv-x="772" 
d="M356 595q-4 -1 -6.5 -1.5t-6.5 -1.5q43 2 80.5 -22t57.5 -64v-6q17 -1 36 -9t31 -31q0 -61 -11.5 -117t-40.5 -104h1l19 5q20 23 40 48.5t35.5 53t25 55.5t9.5 56q0 40 -20 80q-11 27 -31 42t-46 21.5t-55.5 7.5t-58.5 1h-14l-46 -14h1zM651 646q34 -38 52 -82.5
t18 -94.5q0 -17 -1.5 -32.5t-6.5 -33.5q-5 -44 -21.5 -85.5t-43 -78t-61 -66.5t-74.5 -51q-37 -10 -61.5 3.5t-44.5 34.5q-23 -14 -47 -20.5t-50 -6.5q-32 0 -76 14q-31 35 -53 75t-22 84q0 8 0.5 15.5t3.5 16.5q0 38 11 73t30.5 65.5t46.5 57t58 47.5q-26 -8 -50.5 -19
t-44.5 -27t-33 -38t-17 -53q-14 -26 -20 -53t-6 -55q0 -23 3.5 -52t7.5 -54q2 -17 4 -33.5t4 -31.5q12 -20 28 -38.5t35 -33.5t40 -24.5t43 -12.5q78 13 157 32t160 57l17 -23q8 -10 13 -20t-2 -30q-64 -57 -145 -90.5t-165 -33.5q-38 0 -74.5 7t-70.5 23q-44 24 -75 58.5
t-51 75.5t-29 87.5t-9 95.5q0 14 0.5 28.5t2.5 28.5q5 77 37.5 143t74.5 127q17 7 36 14t36 15q61 26 126 48.5t129 22.5q48 0 93 -16.5t87 -58.5v-1zM373 483q-2 0 -4 0.5t-4 0.5q-3 5 -4 7t2 -2zM376 469q-2 2 -5 6.5t-6 8.5q-17 0 -29 -14.5t-23 -31.5q-5 -8 -9.5 -15
t-12.5 -17q-8 -21 -15 -47t-7 -52q0 -14 5 -29t16 -26q23 0 41.5 2t32.5 11q-1 6 -1 13v13q0 36 11.5 67t23.5 56q5 11 6.5 11.5t3.5 8.5q-12 8 -18.5 16.5t-13.5 19.5v-1z" />
    <glyph glyph-name="fi" unicode="&#xfb01;" horiz-adv-x="604" 
d="M109 576q125 -22 259 -22h29.5t29.5 1q17 -12 28 -30.5t6 -42.5q-21 -14 -44 -19t-47 -5q-20 0 -38.5 2t-37.5 4q-18 2 -35.5 3.5t-32.5 1.5q-28 0 -46 -10t-18 -40q0 -10 0.5 -19.5t3.5 -20.5q33 -3 66 -14.5t63.5 -30.5t57.5 -45t49 -57q-47 0 -76 5.5t-52 13.5
q-20 6 -43.5 12t-43.5 6q-8 0 -17.5 -1t-17.5 -3q-11 -31 -22 -65.5t-11 -66.5q0 -16 5 -31t18 -31q-7 -17 -19 -28t-27 -16.5t-31 -4.5t-29 9q-10 20 -14 38.5t-4 35.5q0 24 5 46.5t13 44.5q5 20 10 39.5t5 38.5q0 7 -1.5 17t-5.5 22q20 35 25 71t7 73q2 26 3.5 51.5
t8.5 53.5zM483 48q3 1 1 -0.5t-4 -3.5q-6 -4 -12 -7.5t-12 -4.5t-13 2.5t-14 14.5q-9 28 -12.5 54.5t-3.5 52.5q0 33 3.5 67t8.5 66q5 29 8.5 59t4.5 67l48 37l53 -44l-42 -345z" />
    <glyph glyph-name="fl" unicode="&#xfb02;" horiz-adv-x="782" 
d="M470 508q-3 -20 -10.5 -31t-17 -16.5t-21 -7.5t-22.5 -2q-10 -1 -18 -1.5t-14 -5.5q-22 -10 -49 -14t-56 -7q-21 -2 -40.5 -4.5t-35.5 -8t-27.5 -14t-14.5 -22.5q9 2 18.5 3t18.5 2q26 4 55.5 7.5t58.5 3.5q32 0 68.5 -10.5t81.5 -37.5q-31 -12 -55 -20t-43.5 -13
t-37 -8.5t-34.5 -6.5q-37 -6 -72 -13.5t-67 -21.5q-2 -11 -5 -20.5t-5 -19.5q-5 -23 -9 -47t-4 -49q0 -18 4 -35.5t15 -36.5q-6 -16 -16 -23t-21 -8.5t-21.5 2t-17.5 8.5q-21 19 -27.5 40t-6.5 45q0 13 1 26t3 26q5 25 5 45q0 14 -4 27t-14 27q-5 26 4.5 37t23.5 20
q6 4 11 8t7 9l-1 -1l27 143q70 25 143.5 41t147.5 16q13 0 26.5 -0.5t33.5 -2.5zM561 462q-4 -48 -11.5 -89.5t-17.5 -80.5t-21 -77.5t-21 -80.5q38 5 72 10t66 6t64 -4t67 -20l2 -69q-49 5 -94 2t-89.5 -8.5t-89 -10.5t-93.5 -4q-11 10 -16.5 25.5t-6.5 31t2 30.5t9 26
q38 85 59.5 168t40.5 176q9 3 22.5 2t25.5 -5.5t21 -11.5t9 -16z" />
    <glyph glyph-name="caron" unicode="&#x2c7;" horiz-adv-x="520" 
d="M146 719q23 30 51 64t61 63t70.5 49.5t79.5 23.5q30 -14 48.5 -39t18.5 -52q0 -16 -25 -72q-15 35 -25 49t-16 14q-17 0 -36.5 -16t-36.5 -33v1l-15 -14q-30 -15 -47 -42.5t-32 -55.5q-11 -21 -22.5 -40.5t-27 -35t-38 -25.5t-54.5 -12q-19 27 -29 54t-15.5 55t-6.5 56
l-2 56q-1 38 -3.5 76t-16.5 76l19 61q35 -18 54 -41t28.5 -49.5t11.5 -55t3 -57.5q0 -13 -0.5 -19.5t-1 -11t0.5 -10t4 -17.5z" />
    <glyph glyph-name="braceleft" unicode="{" horiz-adv-x="381" 
d="M305 787l-7 -8q-7 -11 -16 -18.5t-26 -3.5q-36 -29 -65 -66t-40 -76q6 -12 12 -23.5t12 -23.5q17 -32 32 -66.5t15 -71.5q0 -18 -4 -36t-15 -38q-11 -9 -15 -17t-4 -14q0 -11 7.5 -24t17.5 -27q13 -19 24 -39.5t11 -45.5t-14 -47q-5 -11 -11 -23t-13 -25
q-11 -19 -20.5 -37.5t-9.5 -34.5q0 -9 6.5 -17.5t20.5 -14.5q53 -26 123.5 -36.5t150.5 -10.5q-13 -28 -28.5 -44t-32.5 -25t-34.5 -12.5t-34.5 -5.5l-25 -3q-11 3 -29 6.5t-38 7.5q-31 5 -61.5 12t-56 20.5t-44 36t-25.5 58.5q0 31 10.5 59t24.5 54q11 23 20.5 45t9.5 40
q0 13 -5.5 25t-21.5 24h-10.5t-11.5 -1q-14 -1 -27 -1t-23 4.5t-14.5 16t-0.5 34.5q9 17 22.5 30t27.5 25q11 10 23 21t21.5 22.5t15.5 24.5t6 27q0 8 -1.5 15.5t-6.5 17.5q-24 29 -42 64t-18 73q0 34 17 65q15 25 33 49.5t40 46.5t47.5 38.5t55.5 25.5h-1q16 6 25 -0.5
t14 -14.5q2 -2 -1 -2z" />
    <glyph glyph-name="braceright" unicode="}" horiz-adv-x="384" 
d="M349 734q12 -29 12 -53q0 -23 -7.5 -44t-19.5 -40.5t-27 -38.5t-30 -37q-22 -26 -39 -50t-17 -44q0 -18 24.5 -37t87.5 -41q-14 -36 -32.5 -48.5t-38.5 -21.5q-12 -5 -22.5 -10.5t-17.5 -13.5l6 -10l-1 1q17 -23 34 -46.5t30 -48.5t21 -52.5t8 -57.5q0 -14 -2.5 -28.5
t-6.5 -31.5l-18 -35q-14 -32 -35 -63t-63 -46q-14 1 -29.5 -3t-29.5 -8q-17 -5 -32 -9.5t-30 -4.5q-21 0 -39 13.5t-30 50.5q26 20 48 26.5t44 11.5q15 3 30 7.5t28.5 11.5t24.5 17.5t17 26.5q27 36 27 65q0 25 -15.5 49t-33.5 47q-21 26 -39 54.5t-18 63.5q0 21 9 48
q15 9 20.5 16.5t5.5 14.5q0 9 -4 20.5t-10 23.5q-8 16 -13.5 33t-5.5 35q0 27 18 52q11 23 27.5 43t33.5 38q25 27 45.5 54.5t20.5 57.5q0 4 -0.5 7.5t-0.5 8.5q-11 15 -26 19.5t-34 4.5q-9 0 -17 -0.5t-17 -0.5q-9 -1 -19.5 -1.5t-19.5 -0.5t-18.5 0.5t-24.5 3.5
q-4 26 2 43t18 26.5t29 13.5t37 4q31 0 61.5 -5.5t50.5 -8.5z" />
    <glyph glyph-name="bar" unicode="|" horiz-adv-x="232" 
d="M53 -32q-5 24 -6.5 49t-1.5 51q0 64 9 124.5t20 121.5v-1q11 60 20 119.5t9 118.5q0 54 -12 110l-34 18q0 13 9 27.5t23 24.5t30.5 12t30.5 -8q21 -42 28.5 -85t7.5 -86q0 -35 -3 -69t-7 -68q-5 -35 -7.5 -68t-2.5 -65q0 -20 1 -40t6 -43q-17 -31 -21 -60.5t-4 -58.5v-29
q0 -7 0.5 -14t0.5 -14q0 -18 -2 -38t-5 -41l-70 -4z" />
    <glyph glyph-name="asciitilde" unicode="~" horiz-adv-x="1006" 
d="M403 444q1 -8 1 -17.5t-1 -17.5q0 -8 1 -17.5t3 -17.5t6.5 -13.5t12.5 -5.5q67 0 128 19t119 43q57 22 119.5 42t140.5 22l26 -39q-87 -45 -163 -76t-151 -60q-30 -11 -61 -23.5t-61 -24.5q-16 -2 -32.5 -4t-36.5 -2q-33 0 -65 10t-61 33l-23 120h-12q-28 0 -55.5 -9
t-53.5 -23.5t-51.5 -33.5t-49.5 -39q-26 4 -44 16.5t-22 47.5q20 26 49 51.5t62.5 46t70 33t71.5 12.5q36 0 69.5 -14.5t59.5 -49.5z" />
    <glyph glyph-name="Euro" unicode="&#x20ac;" horiz-adv-x="607" 
d="M534 468l-3 -14q-2 -16 -10 -27t-43 -11q-5 16 -13 22t-18 6q-11 0 -24.5 -3.5t-22.5 -7.5q-6 -5 -8.5 -7t-4.5 -3.5t-5 -4l-9 -7.5q21 -3 46 -3h29q29 0 59.5 -1.5t72.5 -16.5q-10 -24 -25 -38t-32 -20.5t-36 -8.5t-37 -3q-14 -1 -27 -1.5t-26 -5.5q-17 3 -34.5 5.5
t-34.5 2.5q-29 0 -56 -10t-37 -39q13 -5 30 -7l34 -4q16 -2 32.5 -3.5t33 -8t32 -19.5t30.5 -37q-51 -11 -102.5 -17.5t-95.5 -6.5h-25q-2 -9 3 -17t10 -18q7 -14 14 -33q14 -15 33 -20t40 -5q19 0 40.5 3.5t41.5 7.5l18 4l-2 -1q10 2 23.5 8.5t26.5 13.5q19 10 40.5 18.5
t40.5 8.5q10 0 24 -6.5t36 -21.5q-32 -23 -67.5 -44.5t-72.5 -38.5t-75.5 -27.5t-76.5 -10.5q-23 0 -46.5 3.5t-46.5 12.5q-22 4 -36 15t-23 25.5t-14.5 31t-9.5 33.5q-5 21 -12 38t-23 17q-12 0 -44 -13q-19 14 -30 32t-6 44q23 23 48.5 28.5t53.5 5.5l46 69q-5 1 -10 1.5
t-10 0.5q-23 3 -42.5 10.5t-27.5 39.5v46l163 -9q19 19 43 39.5t49.5 38t53 28.5t54.5 11t52 -12.5t48 -41.5z" />
    <glyph glyph-name="a" unicode="a" 
d="M383 221q-2 -30 -8 -53.5t-13 -45.5q-6 -20 -11 -37.5t-5 -39.5q0 -5 1.5 -15t3.5 -24q-15 -12 -31.5 -12.5t-30 6.5t-21.5 20t-6 27l5 25q2 13 4.5 25.5t5.5 22.5q-21 5 -40 8.5t-41 8.5q-10 -10 -20.5 -24t-19.5 -28q-11 -17 -22.5 -32.5t-25 -28t-29.5 -20t-36 -7.5
q-8 0 -16.5 2t-17.5 5q-15 11 -20.5 20.5t-4.5 18.5t7 16.5t14 15.5v-1q3 5 6.5 9.5t1.5 15.5q59 47 100 100.5t76 106.5q29 43 63 89.5t81 93.5q24 4 39 -4.5t23.5 -23.5t12 -32.5t4.5 -32.5zM294 220q1 14 2 20.5t1.5 12t2 14t3.5 27.5q-22 -38 -36 -72z" />
    <glyph glyph-name="b" unicode="b" horiz-adv-x="419" 
d="M386 419q5 -11 7 -22t2 -22q0 -32 -14.5 -55.5t-31.5 -44.5q-11 -14 -19.5 -27.5t-8.5 -24.5q0 -9 8.5 -21t30.5 -27q12 -29 12 -52q0 -38 -22.5 -69.5t-51.5 -49.5q-12 -12 -27 -19t-30 -7q-14 0 -28 3.5t-27 8.5h1q-11 3 -20.5 6t-17.5 3t-17 -9t-19 -35
q-28 4 -45.5 15.5t-28.5 26.5t-17.5 32t-11.5 33q-3 27 -3 56q0 60 13.5 118t40.5 109t66.5 94t92.5 73l23 5l-2 -1q13 3 24 5t20 2q14 0 27 -4.5t25.5 -16t24.5 -32t24 -51.5zM190 83q8 -2 15.5 -3t16.5 -2q20 7 36.5 23.5t10.5 42.5q-34 17 -47.5 34t-13.5 36
q0 23 13 40.5t30 36.5v-1q18 20 32.5 41t9.5 45q-1 18 -7 25.5t-15 7.5q-19 0 -40 -12t-34 -29zM112 305q12 -5 18 -8.5t8 -6t2 -4.5t-1 -4q-3 -11 -8 -26t-8 -29q-3 -9 -5.5 -20t-1.5 -11q-3 -11 -2.5 -21t0.5 -19q0 -15 2.5 -26t5.5 -18q4 -8 8 -13l-31 -13z" />
    <glyph glyph-name="c" unicode="c" horiz-adv-x="454" 
d="M345 363q5 -12 4 -21.5t-5.5 -17t-11 -13t-12.5 -10.5l-10 -8q-25 -9 -36 0.5t-19 23.5v-1q-3 4 -5.5 8t-6.5 3q-18 0 -34.5 -9.5t-30.5 -24t-25 -32t-18 -33.5l-2 -9q-5 -18 -8.5 -37t-3.5 -39q0 -17 4.5 -32.5t17.5 -29.5q41 2 74.5 19.5t68.5 38.5q28 16 57 31t67 26
q14 -11 20 -26t6 -35q-22 -13 -42 -27l-40 -28q-23 -17 -46.5 -33t-47.5 -29t-49 -20.5t-52 -7.5q-41 0 -80 19q-35 26 -49 60t-18 75q6 41 18 84t34 81.5t54.5 69t79.5 45.5q18 3 39 3q34 0 62.5 -13.5t45.5 -50.5z" />
    <glyph glyph-name="d" unicode="d" horiz-adv-x="338" 
d="M124 107q18 3 32 13t25 22.5t19.5 26.5t14.5 26l-1 -3q6 22 11.5 46.5t5.5 47.5q0 25 -8 44q-17 -8 -32.5 -25.5t-23.5 -34.5zM319 319q1 -10 1.5 -23t0.5 -24q0 -46 -10 -91t-33 -80q-15 -17 -31 -32.5t-34 -26.5t-37.5 -14.5t-41.5 4.5l-9 9q0 -2 -3 0.5t-5 4.5l-8 6
l-7 -30v1q-5 -17 -16 -24t-25 -7q-16 0 -32 10.5t-24 30.5q2 62 15.5 119.5t29.5 108.5v-1q7 26 12 46t9 41q2 6 13 21.5t28 32t39 29.5t46 13q19 0 37 -9t35 -29z" />
    <glyph glyph-name="e" unicode="e" horiz-adv-x="476" 
d="M62 308l-1 1q0 -1 1 -1zM473 336l-11 -52l-321 -34v-6q0 -6 2.5 -6t-2.5 -3q11 -3 24 -3.5t27 -0.5q31 0 64 3q17 2 33.5 3t33.5 1q11 0 30.5 -1.5t40.5 -3.5q-19 -23 -45 -40.5t-54 -30t-55.5 -19t-49.5 -6.5q-36 0 -55 13l-10 10l-19 -54q21 0 43 4t43 9q26 6 52.5 11
t52.5 5q25 0 51.5 -7t56.5 -26v-57q-23 5 -33 5.5t-17 0.5q-34 0 -67.5 -8.5t-65.5 -18.5q-33 -10 -66 -18t-70 -11l-4 4q1 -21 -13.5 -30.5t-58.5 1.5q-15 14 -22.5 24t-9.5 17.5t0 13t6 10.5q0 1 0.5 2.5t0.5 3.5q8 24 14 50l12 52q11 42 21.5 85.5t27.5 81.5q-4 5 -6 11
t3 20q23 22 46 22q11 0 18.5 -2.5t15.5 -4.5q8 -3 16 -5t16 -1q32 0 64 4t64 9t64.5 9.5t76.5 4.5z" />
    <glyph glyph-name="f" unicode="f" horiz-adv-x="385" 
d="M369 345v-33q-43 0 -81 -9t-71 -20q-28 -8 -53 -14.5t-48 -6.5l-3 -76q18 -5 39 -6t42 0q32 1 63 -2t65 -23v-44q-39 -14 -78.5 -21.5t-76.5 -7.5q-16 0 -31 1t-29 3q-5 -18 -6.5 -34t-1.5 -33q0 -16 2.5 -40.5t4.5 -49.5q-15 -20 -30.5 -23t-29 3t-25.5 18.5t-19 24.5
q-3 25 -3 58q0 36 3 71t7 69q4 33 6.5 66t2.5 65q0 13 -1 28.5t-3 33.5q22 17 42.5 14.5t34.5 -13.5q11 4 22 8.5t22 9.5l-1 -1q32 14 68 25.5t74 11.5q29 0 70 -12z" />
    <glyph glyph-name="g" unicode="g" horiz-adv-x="417" 
d="M256 336q-14 8 -21.5 12t-11.5 4q-19 0 -38 -23t-36 -47v1q-5 -8 -10.5 -14.5t-10.5 -12.5q-11 -26 -18 -54.5t-7 -57.5q0 -28 7.5 -53.5t27.5 -45.5q5 -7 12 -5.5t15 4.5q3 1 5 1.5t4 1.5q11 15 19.5 25.5t19.5 27.5q-20 16 -38.5 38t-30.5 53q13 20 26.5 27t28.5 7
q9 0 19.5 -3t19.5 -5l19 -6q17 -23 39.5 -26.5t48.5 -5.5q24 -1 49 -5t55 -27q-11 -21 -24 -33t-27.5 -18.5t-30 -8.5t-31.5 -3q-14 -1 -27 -3t-23 -8.5t-15 -19.5t-3 -37q-23 -29 -51.5 -48.5t-57.5 -19.5q-28 0 -50 15l2 -1q-30 12 -48.5 31.5t-29.5 43t-17.5 49.5
t-11.5 52q1 49 16 94.5t40.5 85.5t60.5 73t77 56q26 0 51 -10.5t41 -38.5z" />
    <glyph glyph-name="h" unicode="h" horiz-adv-x="387" 
d="M371 313q-1 -3 -1 -6t-1 -5q-1 -3 -1 -6v-1q-2 -11 -6 -21.5t-7 -21.5q-7 -20 -12 -45.5t-3 -59.5q-23 -20 -28 -42t-7 -42q-3 -27 -9.5 -46t-33.5 -19q-10 0 -23.5 5.5t-35.5 18.5l7 88q-2 1 -9 1t-12.5 -1t-12.5 -2q-11 -2 -22 -3t-22 1v-4q-1 -5 -1 -10t-1 -10
q-1 -6 -1 -12q0 -9 4 -17t17 -14q-5 -29 -25 -44.5t-42 -15.5q-12 0 -25.5 5.5t-24.5 14.5q-13 42 -13 79q0 51 15.5 98.5t35.5 95.5q10 26 19.5 52.5t19.5 58.5l67 -23q11 -39 2.5 -68.5t-19.5 -56.5l-10 -24q7 -3 13 -3q5 0 11.5 1t13.5 3q11 2 21.5 4t24.5 0
q14 20 19.5 42t11.5 47q5 23 13 49t22 55q22 5 36.5 2t23 -11t11.5 -20t3 -26q0 -11 -1 -22t-2 -19z" />
    <glyph glyph-name="i" unicode="i" horiz-adv-x="203" 
d="M153 169q-7 -14 -10 -34.5t-6 -40.5q-3 -24 -7 -47t-14.5 -42t-29.5 -32t-52 -17q-5 25 -6.5 43.5t-1.5 32.5q0 45 9 90t20 90l-1 -1q5 25 11.5 55.5t10.5 54.5q27 5 44 2t27.5 -12t14.5 -22t4 -29t-2.5 -29.5t-4.5 -25.5q-2 -10 -3 -17.5t-1 -11.5z" />
    <glyph glyph-name="j" unicode="j" horiz-adv-x="306" 
d="M292 281q-4 -29 -4.5 -54t-1.5 -46q0 -33 -2.5 -67.5t-11.5 -65.5t-26.5 -57.5t-47.5 -42.5q-59 -5 -104.5 21.5t-70.5 71.5l-8 19q-10 19 -18 39.5t-8 43.5q0 18 6 35q9 17 21 22.5t25 5.5q8 0 16 -2l16 -4q5 -2 11.5 -3.5t20.5 -1.5q3 -8 7.5 -12.5t7.5 -9.5t2.5 -11.5
t-7.5 -16.5l-37 -18q8 -30 30.5 -54t47.5 -35q11 -3 15.5 5.5t7.5 19.5q2 8 3 15.5t7 15.5q5 37 9 75.5t4 74.5q0 38 -5 77.5t-17 79.5q9 18 20.5 24t22.5 6q10 0 21.5 -3.5t22.5 -8.5z" />
    <glyph glyph-name="k" unicode="k" horiz-adv-x="429" 
d="M133 274q-7 -20 -11 -41t-6 -44l29 30q25 27 52.5 53.5t57 47.5t62.5 33.5t69 9.5l17 -15q8 -6 13 -17t-2 -30q-44 -20 -79.5 -42t-69.5 -54q9 -18 17.5 -36.5t17.5 -35.5t19.5 -37t21 -41.5t20.5 -42t18 -36.5q-30 -5 -52 0.5t-38.5 18t-29 28.5t-22.5 32l-21 28
q-8 11 -9 24t-1 25v2q-8 -9 -15.5 -19t-14.5 -21q-11 -15 -23 -29.5t-26.5 -28t-33 -24.5t-42.5 -18q-29 25 -39.5 51t-10.5 53q0 23 4 44.5t9 43.5q5 24 9 46.5t4 42.5l34 116q24 5 39.5 1.5t24 -12t12 -21.5t3.5 -28q0 -17 -2 -30.5t-4 -23.5z" />
    <glyph glyph-name="l" unicode="l" horiz-adv-x="353" 
d="M157 328q0 -52 -13 -95.5t-27 -86.5q-3 -9 -5 -13l-3.5 -7t-2.5 -7t-4 -13q23 5 48 8.5t49 3.5q35 0 72 -11.5t72 -37.5q-13 -18 -27 -28t-29 -14.5t-30.5 -5t-31.5 -0.5q-20 1 -39.5 -0.5t-34.5 -10.5q-13 -3 -16 -5t-7 -4q-21 -9 -44 -17t-56 -8q-17 28 -24 51.5
t-7 46.5q0 35 11 70.5t24 69.5q14 35 25.5 73.5t7.5 83.5q18 6 33 5.5t26.5 -6.5t19.5 -15.5t12 -20.5z" />
    <glyph glyph-name="m" unicode="m" horiz-adv-x="517" 
d="M489 343q2 -33 -2 -63t-12 -59t-19 -56.5t-22 -54.5h1q-16 -38 -30 -78t-21 -92q-18 0 -31.5 6.5t-22.5 16.5t-13.5 21.5t-4.5 22.5q5 37 15 71t21 66q11 34 21 65t14 67q-11 -8 -19.5 -17t-18.5 -19q-16 -16 -32.5 -31.5t-35 -27t-40 -17.5t-46.5 -3l-27 33
q-14 -19 -27 -39.5t-24 -40.5q-13 -22 -27 -44.5t-31.5 -43.5t-39.5 -40.5t-50 -34.5l-40 55l257 393q22 4 37 0.5t24 -12.5t12.5 -22t3.5 -28q0 -19 -5 -41l135 125q15 -1 32 -7t31.5 -16.5t24.5 -24t12 -29.5v-1z" />
    <glyph glyph-name="n" unicode="n" horiz-adv-x="437" 
d="M494 342q5 -14 1 -21.5t-10 -13.5l-9 -17q-12 6 -17.5 8t-8.5 2.5t-3.5 1.5t-1.5 4q-17 -26 -29.5 -57t-23.5 -62q-12 -30 -24.5 -61t-30.5 -59.5t-42.5 -53.5t-58.5 -44q-25 16 -39.5 35t-22 40t-10.5 43.5t-4 45.5q-1 10 -0.5 14.5t0.5 6t-0.5 2t-1.5 2.5l-13 -36
q-8 -23 -17 -46t-22 -44t-31.5 -39.5t-45.5 -31.5l-40 52q44 87 82 176t61 194h21q11 0 23 -0.5t22 -4t17.5 -11.5t9.5 -24q9 -32 11.5 -65t4.5 -65q2 -27 4 -53.5t7 -52.5q21 31 34 66t26 71q15 43 34 85t53 84q20 0 35 -6.5t26.5 -17t19.5 -22.5t14 -24v-1z" />
    <glyph glyph-name="o" unicode="o" horiz-adv-x="447" 
d="M408 313q9 -23 14 -45t5 -44q0 -30 -7.5 -60t-20 -58t-28.5 -54.5t-32 -50.5q-27 -35 -63.5 -47t-76.5 -12q-19 0 -36.5 1.5t-34.5 3.5q-23 10 -42 26.5t-33 36t-24 41.5t-16 43q3 52 23 102t52 92.5t74.5 75.5t90.5 50q25 2 48 -5.5t43 -22t36.5 -33t27.5 -39.5v-1z
M336 247q-16 43 -40 53.5t-50.5 -0.5t-52 -38.5t-44.5 -60.5t-27.5 -67t-1.5 -58q9 -19 27.5 -29t40.5 -10q17 0 30 4l9 8q24 21 45 41.5t36 44t23 50.5t5 62z" />
    <glyph glyph-name="p" unicode="p" horiz-adv-x="410" 
d="M157 226q22 9 39 1t31 -19l2 -1q20 9 37.5 30t30.5 43l2 18q2 11 3.5 22t1.5 19q0 12 -3.5 22.5t-13.5 18.5q-21 3 -39 -4.5t-34.5 -20t-31 -29.5t-27.5 -33q1 -14 1.5 -32t0.5 -32v-3zM387 377q2 -14 3.5 -29.5t1.5 -32.5q0 -35 -8.5 -68t-32.5 -59q-28 -24 -59.5 -46.5
t-67.5 -22.5q-21 0 -49 14l-12 19l1 -1q-3 4 -5 7t-4 7q-3 -41 -8 -80.5t-11 -77.5q-3 -24 -7 -52.5t-7 -51.5l-17 -10q-10 -6 -20 -9t-30 2q-25 47 -37.5 102.5t-12.5 112.5q0 67 16 131.5t46 115.5q19 19 44 41t52.5 40t56.5 30t56 12q35 0 63.5 -20.5t46.5 -69.5z" />
    <glyph glyph-name="q" unicode="q" horiz-adv-x="432" 
d="M405 280q6 -17 8 -32.5t2 -31.5q0 -54 -24.5 -103t-62.5 -93l21 -22h-1q10 -11 19 -21.5t16 -23.5t10 -28.5t0 -35.5q-44 0 -68 17.5t-43 37.5q-14 17 -28 28q-20 -22 -45 -31.5t-53 -9.5q-29 0 -63 13q-24 10 -41 26.5t-28 37.5t-16.5 44.5t-8.5 47.5q1 51 25 94t61 77
t81.5 58.5t86.5 39.5q50 9 90 -17t61 -70zM138 181q-17 -20 -30.5 -43.5t-13.5 -46.5q0 -8 0.5 -14t3.5 -13q3 -3 7.5 -7t7.5 -9v1q9 -10 19 -17.5t24 -1.5q7 1 7.5 3t-1.5 5q-4 7 -7.5 15t-3.5 16.5t4.5 17.5t16.5 19q14 -3 23.5 -0.5t18.5 7.5q11 5 25.5 9t42.5 4l1 -20
q21 28 35.5 56t14.5 60v13.5t-2 11.5q-13 12 -25.5 16.5t-25.5 4.5q-17 0 -35 -7.5t-35.5 -19t-34 -25t-30.5 -26.5z" />
    <glyph glyph-name="r" unicode="r" horiz-adv-x="388" 
d="M356 328q3 -17 5.5 -35t2.5 -38q0 -40 -15.5 -74.5t-60.5 -49.5q-11 -2 -21 0l3 -14q5 -18 12 -35t24 -27q33 4 61 -25q5 -20 3 -31t-8.5 -17.5t-16.5 -9t-20 -3.5q-5 -1 -8 -1.5t-8 -3.5q-26 1 -45.5 12.5t-34.5 27t-26 34t-20 35.5l-5 21l1 -1q-5 19 -9 38t-4 39
q0 15 3.5 30.5t12.5 32.5q20 2 31 -2.5t20 -9.5q6 -3 12.5 -5.5t12.5 -0.5q11 11 16 27t5 33q0 14 -5 36h-1q-10 10 -21 18t-19 2q-47 -74 -79 -161.5t-49 -179.5q-15 -16 -37.5 -23t-45.5 12q-14 53 -14 94q0 54 16.5 105.5t45 98t66.5 87t82 72.5q25 3 47 -6.5t40 -25
t30.5 -35t19.5 -37.5z" />
    <glyph glyph-name="s" unicode="s" horiz-adv-x="347" 
d="M286 380q0 -31 -17.5 -43.5t-37.5 -20.5l-1 -1q29 -16 52 -42t34 -54v1q7 -16 10 -36t3 -42q0 -23 -3 -43.5t-10 -36.5q-15 -22 -33 -36t-38 -23.5t-41 -15t-43 -9.5q-45 3 -82.5 28.5t-57.5 64.5q-3 9 -4 18t-1 17q0 14 6 29.5t23 29.5q20 -1 32 -6.5t19 -14t10 -18.5
t5 -20q2 -11 7 -20.5t18 -10.5q15 -2 30 2t28 12.5t22 20.5t14 26q1 7 1 15v16q0 21 -5.5 39.5t-25.5 24.5q-11 0 -25.5 -3.5t-27.5 -8.5q-17 -5 -32.5 -9t-31.5 -4q-19 0 -36 9.5t-31 32.5v42l204 131q16 0 25 -4.5t17 -11.5q5 -5 13 -9z" />
    <glyph glyph-name="t" unicode="t" horiz-adv-x="429" 
d="M427 372q-25 -36 -58 -49.5t-67 -20.5l-28 -6t-25 -8q-38 -56 -60.5 -118.5t-42.5 -125.5q14 -8 26.5 -19.5t21.5 -34.5q-39 -27 -68 -27t-61 23q-14 36 -14 66q0 35 11 67t24 64q8 20 15.5 40t13.5 43q-17 4 -33 9.5t-30 14t-25 21.5t-17 33q-4 14 1.5 22.5t12.5 15.5
l13 13q30 -14 57 -20t51 -6q31 0 65.5 6t69.5 13q29 6 59 11t65 7z" />
    <glyph glyph-name="u" unicode="u" horiz-adv-x="435" 
d="M186 326q-30 -57 -47.5 -120.5t-23.5 -133.5q7 -3 21.5 5t25.5 17l-1 -1l4 4t5 4q46 34 71 77t46 90q14 32 31.5 66t48.5 72q8 -4 12 -5t7 -2q13 -4 26 -9.5t27 -24.5q-11 -38 -23.5 -66.5t-24.5 -55.5q-23 -54 -42.5 -106.5t-19.5 -111.5v-10t1 -10l45 -37
q-16 -20 -31 -28t-29 -8q-12 0 -22.5 3t-18.5 6q-20 17 -35.5 34.5t-18.5 43.5q-5 -2 -8 -5t-8 -6q-20 -13 -41 -23.5t-46 -10.5q-20 0 -45 12q-31 24 -43.5 53.5t-12.5 62.5q0 38 12 76.5t25 75.5q8 20 14.5 38t9.5 31q-6 36 14 53.5t46 17.5q24 0 41.5 -16.5t8.5 -48.5z
" />
    <glyph glyph-name="v" unicode="v" horiz-adv-x="408" 
d="M149 368q-22 -49 -33 -107t-11 -115q0 -11 -0.5 -15.5t-0.5 -8t0.5 -8t2.5 -14.5q30 32 51.5 69t41.5 75q22 38 46 78t62 81l21 -7h-1q19 -5 36.5 -13t27.5 -34q0 -14 -3 -22t-8 -11.5t-11.5 -4.5t-13.5 -2q-6 0 -7 -3q-22 -29 -39.5 -59.5t-34.5 -61.5
q-17 -32 -35 -63.5t-41 -60t-52.5 -52t-69.5 -39.5q-42 31 -56.5 69t-14.5 80q0 36 7 74t16 76h-1q5 23 9.5 44.5t7.5 41.5l38 114q44 2 60 -13t16 -37q0 -11 -3 -23.5t-6 -25.5z" />
    <glyph glyph-name="w" unicode="w" horiz-adv-x="554" 
d="M602 399q-2 -17 -11.5 -28.5t-20.5 -21.5q-8 -7 -14.5 -14t-9.5 -16q-20 -42 -42 -85t-49 -84t-61 -78.5t-78 -68.5q-21 -2 -37 4t-29 16.5t-24 24.5t-21 28q-17 -24 -36.5 -45t-41.5 -42q-25 -8 -44 -2t-32.5 19t-22 30.5t-13.5 32.5l30 339q13 4 29.5 2.5t31 -8.5
t23.5 -20.5t6 -33.5q1 -33 -2.5 -63t-7.5 -59q-5 -26 -7.5 -52t-2.5 -51v-4q32 41 56.5 90.5t44.5 100.5q52 1 69.5 -19t17.5 -51q0 -15 -2 -29.5t-5 -28.5q-3 -13 -4.5 -26.5t-0.5 -22.5q1 -2 1.5 -5t2.5 -8v2l1 -3h-1h1q44 40 74.5 86.5t58.5 94.5q20 37 44 75t60 81
q15 -9 19 -11t7 -3q14 -5 26.5 -11.5t16.5 -26.5v-5z" />
    <glyph glyph-name="x" unicode="x" horiz-adv-x="513" 
d="M243 332q12 9 24.5 20t26.5 23q15 13 29.5 25t30.5 22t32.5 16t35.5 6q14 0 31.5 -5t41.5 -18q-14 -28 -31.5 -41t-34.5 -23q-10 -5 -20.5 -10.5t-15.5 -10.5l-109 -100q4 -9 7 -18.5t6 -18.5v1l10 -30t12 -26.5t16.5 -18t23.5 -5.5q14 11 28 7t25 -10l-2 1q-2 1 8 -5
t15 -7q-11 -37 -37.5 -53.5t-54.5 -16.5q-10 0 -20.5 1.5t-19.5 5.5q-31 15 -48 38.5t-31 49.5q-4 8 -6 13.5t-10 15.5q-44 -32 -79 -77t-42 -99q-13 -11 -28.5 -11t-28.5 7t-21 19t-5 26q0 30 11 56t28 48.5t38 42t43 38.5q10 9 20.5 18.5t25.5 25.5q-3 23 -11 43t-17 43
q-13 29 -22.5 61.5t-7.5 74.5q33 -2 54 -14t35 -30t22.5 -39.5t15.5 -42.5z" />
    <glyph glyph-name="y" unicode="y" horiz-adv-x="367" 
d="M340 413q-18 -34 -38.5 -68.5t-40.5 -66.5v1q-40 -66 -77 -132t-60 -139l1 2q-1 -3 2 -7t6 -9q6 -9 10.5 -18t3.5 -16.5t-10 -14t-30 -10.5q-27 0 -47.5 14t-31.5 34q4 55 23 103.5t39 90.5l12 24t12 26q-31 22 -51.5 52t-33.5 64.5t-20.5 70.5t-12.5 70q35 4 56 -2.5
t34 -20t19.5 -32t12.5 -38.5q5 -21 14.5 -41t25.5 -28l114 176q19 2 36.5 -4t28 -18t12 -29t-9.5 -35z" />
    <glyph glyph-name="z" unicode="z" horiz-adv-x="493" 
d="M427 426q-8 -48 -31 -91t-56 -82t-72 -72.5t-78 -61.5l47 2q32 2 64 3.5t64 1.5q63 0 124 -9.5t117 -35.5v-50q-36 4 -67 6t-58 2q-78 0 -156 -9.5t-156 -20.5q-39 -5 -84.5 -10.5t-84.5 -9.5q-5 8 -7.5 11.5t-4.5 5.5q-11 12 -20.5 28t-3.5 45q22 17 49 36.5t52 36.5
q33 23 65.5 46.5t62.5 49.5t56 54.5t45 62.5l-11 -5q-32 -15 -69.5 -27t-80.5 -5l-41 71q69 13 116.5 34.5t91.5 45.5l58 29q29 -7 49 -28.5t20 -50.5v-3z" />
    <glyph glyph-name="A" unicode="A" horiz-adv-x="598" 
d="M603 332q-14 -22 -28 -35t-28 -21t-28 -12t-28 -7q-10 -2 -19.5 -4.5t-17.5 -5.5l-11 -33q-14 -40 -24.5 -78.5t-10.5 -83.5v-15t1 -15q13 5 25.5 3t23.5 -28q4 -17 -4 -28t-18 -22l-9 -7q-18 -6 -35 -2t-31 14t-23.5 24.5t-13.5 29.5q-3 36 2 70t11 67q5 21 8 42t4 40
l-106 -6q-8 -13 -14.5 -26t-14.5 -27q-23 -46 -52.5 -94t-77.5 -86q-22 5 -40 14t-23 29q-2 20 2.5 37t13 32t20 28t23.5 26q15 15 28 30t18 32l69 114q58 99 122.5 198.5t151.5 200.5q36 -32 50.5 -64t14.5 -64q0 -33 -9.5 -69t-20.5 -72q-9 -29 -17 -57.5t-11 -56.5z
M358 335q14 25 23 59.5t16 71.5l-80 -135q11 1 19.5 2t21.5 2z" />
    <glyph glyph-name="B" unicode="B" 
d="M389 517q-3 -45 -19.5 -82t-44.5 -69q35 -36 53.5 -77.5t18.5 -89.5q0 -15 -2 -30.5t-7 -32.5l1 1q-6 -28 -20.5 -51t-34 -42.5t-42.5 -35.5t-45 -29q-9 -1 -17.5 -1.5t-19.5 -0.5q-36 0 -68.5 6t-64.5 17q-8 -14 -17 -29.5t-12 -22.5q-23 52 -31.5 90.5t-8.5 68.5
q0 47 11.5 94.5t24.5 92.5q12 42 22.5 85.5t10.5 88.5q8 28 21.5 29t26.5 -8q32 45 73.5 80t92.5 66q18 -9 35.5 -21.5t31.5 -28t22.5 -32.5t8.5 -35v-1zM247 432q13 17 23.5 34t10.5 35v3q-41 -33 -67 -74.5t-42 -88.5t-23 -98t-9 -103l-4 -14q-5 -18 -5 -35q0 -15 11 -17
q16 -6 29 -6q17 0 33.5 8t31.5 20.5t27.5 28.5t21.5 32q16 22 16 45q0 18 -8.5 35.5t-22.5 33t-31 28.5t-33 23q-2 38 11.5 63t29.5 47z" />
    <glyph glyph-name="C" unicode="C" horiz-adv-x="494" 
d="M377 511q4 -26 -4 -48.5t-29 -47.5q-30 7 -39.5 17.5t-17.5 24.5q-3 5 -4.5 9t-5.5 7q-47 -11 -77 -41.5t-48 -71t-28 -87t-17 -88.5v1q-2 -32 2.5 -59.5t30.5 -47.5q30 0 57 8t52 20t49 27.5t48 31.5v-1q22 16 46 31t54 30l44 -54q-33 -37 -71 -71.5t-79.5 -61.5
t-86 -43t-90.5 -16q-18 0 -37.5 3.5t-39.5 8.5q-45 31 -67.5 79.5t-20.5 105.5q10 58 22 117t36 112.5t65 98t108 72.5q8 1 16.5 1h16.5q38 0 69 -14t45 -49z" />
    <glyph glyph-name="D" unicode="D" horiz-adv-x="472" 
d="M290 578q41 0 76.5 -21.5t56.5 -72.5v1q13 -26 18 -50.5t5 -48.5q0 -35 -10 -68t-26 -64.5t-36 -61.5t-39 -58q-14 -12 -27 -25.5t-27 -27.5h1q-17 -18 -35 -36t-37.5 -32t-41.5 -22.5t-47 -8.5q-30 0 -65 16l-1 1l-32 -43q-7 47 -10 80t-3 59q0 53 8 114.5t16 112.5
q7 43 12.5 87.5t8.5 90.5q9 13 17.5 19t16.5 6.5t15.5 -3.5t15.5 -9h2q34 26 79.5 45.5t88.5 19.5zM345 437q-42 27 -73 27.5t-54.5 -17t-39 -49.5t-26 -69.5t-16 -77.5t-8.5 -74q-2 -26 -3.5 -49t-5.5 -46q5 0 13.5 2t13.5 6l-1 -1q37 27 74 60.5t66 72t47 82t18 90.5
q0 10 -1.5 20.5t-3.5 22.5z" />
    <glyph glyph-name="AE" unicode="&#xc6;" horiz-adv-x="845" 
d="M800 561v1v-1zM423 540q-2 -9 -1 -19.5t3 -18.5q3 -10 5 -23q29 8 58 18.5t59 22.5q28 10 56.5 20.5t59.5 19t64.5 14t71.5 6.5l2 -21q2 -7 4 -14.5t2 -27.5l-385 -156q-5 -9 -6.5 -20.5t-1.5 -23.5q23 2 48 9.5t48 16.5q27 10 58 19.5t62 9.5q23 0 47.5 -8t51.5 -27v-47
q-85 -17 -168 -41t-151 -69h-12l-17 -88q18 6 34 12.5t34 13.5q65 26 133.5 48t143.5 22q27 0 57 -3q16 -20 17.5 -33.5t-5.5 -22.5t-19.5 -13.5t-23.5 -6.5q-56 -9 -109.5 -27t-106 -41t-104 -50t-102.5 -55q-29 29 -40 60.5t-11 63.5q0 28 4.5 57.5t9.5 54.5q1 5 1.5 6.5
t0.5 2v1.5t1 6q-37 -3 -71.5 -7t-72.5 -8q-3 -4 -7 -14q-14 -28 -29.5 -56.5t-35.5 -55.5t-46 -51t-61 -43l-41 63l370 607q25 13 44 9.5t33.5 -16.5t25 -31.5t16.5 -33.5zM312 446q-21 -37 -41 -70.5t-45 -77.5l80 13z" />
    <glyph glyph-name="ae" unicode="&#xe6;" horiz-adv-x="686" 
d="M378 369q0 -3 2 -9q42 14 87.5 18t90.5 4q17 0 38 -0.5t37 -0.5q20 -20 20 -42.5t-26 -32.5l-52 -10q-53 -10 -104.5 -20.5t-96.5 -28.5q15 2 30.5 6.5t32.5 9.5q23 6 46.5 12t46.5 6q20 0 39.5 -6t42.5 -23v-52q-38 0 -67.5 -7.5t-57.5 -18.5q-29 -11 -60 -19.5
t-73 -10.5l-9 10l-19 -29q-5 -8 -8.5 -13t-6.5 -13q19 3 39 6.5t38 7.5q37 7 76.5 12.5t81.5 5.5t149 -24q-47 -22 -85 -36.5t-71.5 -24t-63.5 -16.5t-60 -13q-45 -10 -89 -20.5t-91 -27.5q-25 14 -35 29.5t-10 32.5q0 21 9.5 40.5t17.5 34.5h-16q-8 0 -16.5 -0.5t-16.5 1.5
l-112 -112l-55 54q15 28 30 46l30 36q17 19 32.5 39t24.5 48q39 16 65 43.5t50 57.5q20 25 41.5 49t50.5 46q16 -2 25.5 -6t14.5 -10.5t8 -14t5 -14.5zM276 286l28 -14l-23 -97h-100z" />
    <glyph glyph-name="onehalf" unicode="&#xbd;" horiz-adv-x="868" 
d="M122 449q7 -3 14 -18q13 -9 16 -20t1 -21.5t-8 -20.5t-11 -19l-8 -9q-13 -11 -31 -14t-41 0l-29 29l42 338l80 16zM425 467q-12 -54 -44.5 -99.5t-67.5 -87.5q-20 -24 -39 -49.5t-34 -53.5t-24 -58.5t-7 -64.5q-14 -6 -17.5 -10t-5.5 -9l1 1q-4 -8 -9 -15t-12.5 -11
t-18.5 -3t-29 9l-16 37q25 54 54 111.5t58 111.5q26 49 53 101.5t51.5 106.5t45 108t35.5 108q39 -23 54 -45t15 -45q0 -22 -7.5 -44t-16.5 -44h1q-7 -15 -12 -29t-7 -24zM679 321q2 -37 -6.5 -68t-25 -58t-38 -51.5t-45.5 -48.5q31 1 64 6q24 2 47 4t48 2q50 0 96 -13.5
t85 -56.5v-57q-46 20 -84 28t-72 8q-18 0 -41 -2.5t-47.5 -6.5t-48.5 -8.5t-43 -8.5q-41 -9 -85.5 -16.5t-95.5 -10.5l-23 65q35 28 70.5 59t67 64.5t57 70t39.5 75.5q-9 4 -22 4q-19 0 -38 -7t-36 -17q9 -14 1 -34l-24 -10q-14 -5 -27.5 -8.5t-35.5 0.5q-29 33 -29 68
q0 27 20 53l39 15h-2q30 12 65 24t70 12q32 0 58.5 -15t40.5 -55z" />
    <glyph glyph-name="onequarter" unicode="&#xbc;" horiz-adv-x="857" 
d="M143 444q1 -21 2 -43t4 -42q7 -6 13.5 -13t9.5 -15t0.5 -18t-12.5 -23q-34 -10 -53.5 -1t-30 28t-14.5 44.5t-7 48.5l-3 27q0 23 -4.5 43.5t-9.5 40.5q-7 23 -12 44.5t-5 44.5q0 12 4 30t12 41q38 -20 59 -46.5t31.5 -58t12.5 -65.5t3 -67zM426 568
q-74 -155 -151.5 -310.5t-172.5 -312.5h-60v125h26q78 124 139 251.5t116 261.5l15 14q8 8 16 14t19 6q8 0 17 -5t20 -18h-1zM778 368q-13 -10 -22 -24.5t-15.5 -31t-11 -34t-8.5 -33.5l-1 -5q7 -6 20.5 -9t26.5 -5q12 -2 23 -4t19 -5.5t13 -10.5t5 -19q0 -20 -32 -53
l-112 23l-8 -14l1 1q-24 -46 -44.5 -93.5t-20.5 -98.5q0 -24 9 -61q-25 -12 -40.5 -11.5t-25.5 7.5t-16 19.5t-11 24.5q-2 5 -4.5 10t-7.5 13l67 215q-52 6 -104.5 12.5t-103.5 11.5q-20 32 -20 50t8.5 32t22.5 25.5t31.5 21t34.5 18.5q14 7 27 14.5t23 16.5l14 5
q8 2 16.5 4.5t16.5 2.5q12 0 24.5 -8.5t24.5 -28.5q-8 -25 -23 -39t-32 -24l79 -13l94 163q11 0 26 -3.5t27 -11t17.5 -18.5t-1.5 -26z" />
    <glyph glyph-name="threequarters" unicode="&#xbe;" horiz-adv-x="949" 
d="M403 672q1 -25 -6 -44.5t-18.5 -36t-27 -30.5t-31.5 -28q-4 -3 -3 -2t-5 -4q23 -16 44 -37t32 -47q48 57 91.5 118t72.5 133q13 -4 18 -0.5t8 7.5q6 8 12 14.5t13.5 9t17 -0.5t22.5 -15q21 -21 21 -43q0 -19 -11 -35.5t-22 -30.5q-8 -10 -15 -19.5t-11 -20.5
q-43 -62 -91 -118t-98 -111q-31 -33 -61 -67t-59.5 -70t-56.5 -76.5t-52 -86.5h-17q-9 0 -18 0.5t-17.5 4t-14.5 12t-9 24.5q27 62 64 110.5t76 95.5q10 12 12.5 14t3 2t2.5 2.5t11 14.5q-35 -13 -72.5 -20.5t-74.5 -7.5q-34 0 -68 8q-28 12 -43.5 36t-15.5 49q0 28 21 53
q11 2 18.5 7.5t14.5 12.5q9 9 18.5 16.5t20 11t22 0.5t24.5 -15q11 -15 11.5 -27t-5.5 -22.5t-16.5 -19.5t-20.5 -17l-10 -7q4 0 8 -0.5t11 -1.5q45 5 89 21t77 45q-7 11 -21 15.5t-29 6.5q-16 3 -31 6.5t-25.5 12.5t-15 25t-1.5 43l39 24q18 10 35.5 21.5t29.5 26.5
q-12 -4 -25.5 -10.5t-25.5 -12.5q-18 -10 -39 -19t-40 -9q-17 0 -34.5 10.5t-37.5 35.5q21 24 47.5 40.5t54.5 27.5t56.5 17.5t55.5 11.5q19 3 42.5 7.5t41.5 9.5l32 -40zM734 320q23 0 48.5 -0.5t50 -7.5t47 -22.5t39.5 -43.5q-11 -19 -22.5 -26t-25.5 -7q-10 0 -21 2.5
t-24 6.5q-17 5 -35 8.5t-35 -2.5q-25 2 -43.5 -5.5t-32.5 -21t-24.5 -31.5t-19.5 -37l2 4q-2 -6 -3.5 -13t-3.5 -13q-8 -32 -16 -65t-8 -68q-15 -15 -29.5 -14t-25.5 9t-18.5 20.5t-9.5 20.5q-3 15 -3 35q0 35 9.5 67.5t23.5 64.5q-16 -1 -33.5 -6.5t-36.5 -10.5
q-22 -7 -43.5 -13t-41.5 -6q-22 0 -44 11.5t-46 40.5l245 248q29 9 51 -6t40 -36l-125 -125l38 10h-1q14 5 25 7.5t26 5.5l80 176q25 4 50.5 -6t33.5 -35z" />
    <glyph glyph-name="questiondown" unicode="&#xbf;" horiz-adv-x="475" 
d="M6 -39q4 37 18.5 69t36 60.5t47.5 54t53 51.5q37 35 71 70.5t54 77.5q21 29 31.5 59t18.5 61q8 28 16.5 55.5t24.5 54.5q18 8 31 5t22 -11t15 -18.5t9 -18.5q-6 -68 -28 -126.5t-55.5 -110.5t-75 -99.5t-84.5 -94.5q-15 -16 -27 -28.5t-23.5 -24.5t-23 -25.5t-24.5 -30.5
h2q19 0 39 7t40 15l20 8q23 10 45 25t44 32q26 19 52.5 36.5t66.5 31.5q27 -36 27 -56t-13 -35t-36 -27l-47 -29q-29 -18 -58.5 -36t-60 -32t-63.5 -22.5t-67 -8.5q-21 0 -59 8l-34 38zM446 707q-23 -2 -44 11.5t-23 36.5v-1q-7 35 5.5 61.5t42.5 46.5q23 7 36.5 3.5
t21 -13.5t10.5 -24.5t6 -27.5q1 -5 1.5 -9t2.5 -11q3 -15 -1 -28t-12.5 -23t-20.5 -15.5t-25 -6.5z" />
    <glyph glyph-name="registered" unicode="&#xae;" horiz-adv-x="1020" 
d="M435 -156q-42 0 -80.5 5.5t-65.5 10.5h-1q-65 20 -119 63q-48 40 -87 99q-21 32 -36 64.5t-25.5 64t-17.5 60t-11 52.5v1v1q9 104 68 204q26 42 60.5 84t79.5 83l1 1l1 1q40 22 86 45.5t97 42.5q105 39 200 39q64 0 122 -16q79 -14 154 -78q61 -50 114 -131l1 -1v-1
q21 -50 32.5 -103t12.5 -107q2 -59 -10 -111.5t-35 -97.5h-1v-1q-60 -87 -159 -145q-87 -50 -194 -71q-33 -31 -86 -46q-44 -12 -101 -12zM297 -60q5 -1 9.5 -1.5t9.5 -2.5q23 -4 50 -8t53 -4q68 0 87 37l3 6h7q6 -1 12 -1h11q52 0 98 15t88 40t80.5 56.5t76.5 63.5l1 1
q20 33 31.5 75t14 87t-4.5 89t-23 80l-1 1v1q-7 27 -24 53t-40 48.5t-49.5 41t-51.5 29.5q-75 32 -156 32q-88 0 -182 -36t-183 -105l-6 -6q-27 -28 -53 -57t-45.5 -60.5t-30 -66.5t-6.5 -75q6 -30 20 -77.5t40 -96.5t66 -93t98 -66zM369 35q-29 54 -43 124q-12 65 -7 138
q6 73 30 135.5t63 107.5q24 37 60 66.5t73 43.5h1q17 5 31 5q36 0 67 -26q17 -14 27 -29.5t16 -26.5l1 -1v-1q13 -49 11 -97t-18 -93q-16 -42 -41.5 -76.5t-60.5 -60.5q11 -13 20.5 -26t19.5 -27q21 -30 43.5 -57t54.5 -43l5 -3v-6q0 -11 -5.5 -17.5t-11.5 -11.5
q-3 -3 -4 -5l-3 -2h-4q-2 -1 -5 -1q-26 0 -47 8.5t-39 22.5t-33.5 32t-30.5 36q-17 21 -34.5 40t-37.5 32q-6 -23 -9.5 -46t-6.5 -47q-2 -17 -4.5 -33t-5.5 -33v-2l-2 -2q-3 -4 -7.5 -7.5t-9.5 -3.5q-7 0 -10.5 5t-5.5 10q-1 3 -4 6l-24 -43zM477 484q8 -18 7.5 -40
t-2.5 -45q-2 -26 -1 -48t12 -34q10 -12 34 -12q49 37 73.5 91.5t22.5 120.5q-15 36 -55 52q-16 -5 -30.5 -16t-26.5 -23.5t-20.5 -25t-13.5 -20.5z" />
    <glyph glyph-name="copyright" unicode="&#xa9;" horiz-adv-x="1065" 
d="M389 -106l-2 2q-17 14 -39 21t-48 12q-21 5 -42 10.5t-40 16.5q-57 29 -102 71.5t-75 96.5q-32 55 -44 115t-5 122v1l1 2q77 165 257 263q72 38 158 66t189 45h1q8 1 16 1h16q64 0 124 -15.5t112 -45.5q54 -32 96.5 -76.5t70.5 -100.5v-1q49 -116 11 -252
q-17 -57 -47.5 -113.5t-75.5 -108.5l-1 -1q-94 -84 -249 -114q-66 -12 -136 -14.5t-142 -2.5h-4zM568 29q6 0 12 -0.5t12 -0.5l9 -1v-9q0 -18 -9.5 -28t-21.5 -17q37 2 70.5 12.5t65.5 21.5q20 8 41.5 15.5t44.5 12.5q49 32 86.5 76.5t60.5 98t31.5 115t1.5 127.5
q-23 48 -59.5 87t-82 67t-98 43.5t-106.5 15.5q-55 -9 -112.5 -23.5t-113.5 -36.5t-108 -51.5t-94.5 -69t-74 -89.5t-46.5 -112q6 -53 31.5 -100.5t63 -85.5t83 -64.5t90.5 -38.5q27 2 53 7t52 11q31 6 60 11.5t58 5.5zM403 116q-11 0 -22.5 0.5t-22.5 1.5h-1q-27 6 -44 30
t-17 56q6 91 67 173q57 75 143 128l1 1h1q13 3 25 3q37 0 62.5 -24.5t38.5 -52.5l1 -2v-25l-3 -3q-7 -7 -18 -7q-5 0 -13 2q-2 0 -3.5 0.5t-2.5 0.5q-2 -2 -2 -12l-19 -4q-12 30 -38 30q-13 0 -26.5 -8.5t-24.5 -23.5l-1 -1h-1q-79 -70 -97 -161q14 -5 29 -6.5t32 -1.5
q33 0 66 7t65 16q32 8 65.5 15.5t68.5 7.5h16l24 -2l-18 -16q-66 -59 -150 -90q-87 -32 -181 -32z" />
    <glyph glyph-name="sterling" unicode="&#xa3;" horiz-adv-x="667" 
d="M588 719q-37 -68 -73.5 -138.5t-69 -141.5t-58.5 -143t-41 -142q18 -9 37.5 -13t38.5 -4q17 0 37.5 3t41.5 5q20 3 41 6t44 3q26 0 63 -8q1 -18 -2.5 -30t-10.5 -20t-15.5 -12.5t-17.5 -7.5q-5 -2 -12 -5t-12 -7q-34 -10 -71.5 -16.5t-73.5 -6.5q-34 0 -69 7.5t-65 24.5
q-11 -10 -24.5 -25t-23.5 -29q-12 -17 -25.5 -33t-28.5 -28.5t-32.5 -20.5t-37.5 -8q-10 0 -20.5 2t-22.5 7q-35 25 -55 64t-20 79q0 17 3.5 32.5t9.5 30.5q33 70 104 105q35 9 58 0t43 -21q3 -2 5.5 -3.5t10.5 -5.5l23 53q16 35 29.5 69t24.5 70q-20 -4 -41.5 -5t-43.5 -1
q-29 0 -58 4.5t-56 14.5t-51 27t-43 42v51q37 -4 59 -9.5t43 -10.5q26 -8 53 -13.5t56 -5.5q14 0 30 2.5t33 10.5q29 5 50.5 19.5t38.5 34.5t30 44t26 49q14 26 29 53t39 56q13 -5 26 -7q14 -3 26.5 -8.5t20.5 -22.5v-17zM177 144q-13 0 -26.5 -9.5t-24.5 -25.5
q-7 -11 -10 -23t-3 -23q0 -6 1.5 -13.5t5.5 -13.5q22 2 34 20.5t23 40.5q8 14 11 22t11 17q-9 8 -22 8z" />
    <glyph glyph-name="cent" unicode="&#xa2;" horiz-adv-x="523" 
d="M380 688q-20 -20 -27 -44t-12 -53q10 -5 19 -8q14 -6 27.5 -12t23 -15t14 -22t-0.5 -32q3 -13 -2.5 -20t-14.5 -13l-5 -5q-17 -5 -23.5 -3t-13.5 6q-2 1 -7 4.5t-22 22.5q-5 1 -8.5 0.5t-8.5 -0.5h-3l-16 -52q-11 -34 -22.5 -66t-19.5 -68q20 7 36 15.5t36 19.5h-1
q35 19 71.5 34.5t87.5 15.5l14 -30q-56 -59 -126 -100.5t-142 -63.5q-16 -26 -21 -56t-5 -62q0 -10 0.5 -19t0.5 -19t0.5 -26t0.5 -26q-7 -2 -12.5 -3.5t-7.5 -3.5q-16 -9 -30.5 -11.5t-23.5 21.5q-16 17 -21 34t-5 36t4 37t9 36v-1q4 14 7 27t3 26q0 14 -13.5 25t-51.5 16
q-29 21 -41 47.5t-12 55.5q0 27 8 54t17 51q10 23 25.5 39t34 28t38.5 21t40 17q22 9 42.5 18.5t36 24.5t23 37.5t4.5 57.5q6 10 17.5 24t25 22.5t28.5 6.5t28 -24zM161 290q9 39 19 78t20 77q-32 -20 -56 -50t-26 -66q2 -8 6.5 -16.5t10.5 -14.5t12.5 -9t13.5 1z" />
    <glyph glyph-name="exclamdown" unicode="&#xa1;" horiz-adv-x="170" 
d="M151 619q2 -13 2 -28t-4 -28.5t-14 -24t-28 -14.5q-17 -2 -29.5 3.5t-21.5 14.5t-15.5 20.5t-12.5 22.5l-8 17q0 15 0.5 29.5t4 27.5t11 24.5t21.5 20.5q23 6 38.5 0.5t25.5 -17t16 -27t11 -29.5zM134 353q0 -35 -4 -68.5t-9 -65.5q-5 -33 -9 -65.5t-4 -63.5
q0 -23 3 -47.5t12 -54.5q-18 -9 -38.5 -5t-37 16t-27.5 28.5t-11 33.5q2 81 11.5 166t31.5 177l25 -2q9 -2 19 -4t18.5 -7t14 -14t5.5 -24z" />
    <glyph glyph-name="tilde" unicode="&#x2dc;" horiz-adv-x="520" 
d="M477 558v-52l-11 -9l-32 -20q-29 -19 -64 -37t-73 -18q-43 0 -78 28q-15 7 -24 21t-17 28v1q-5 8 -5 10l-3 -4l1 1l-9 -6q-23 -13 -46 -27.5t-34 -34.5l-11 -12h-16q-16 3 -24 11t-12 16q-7 17 0 33t15 25l9 8l2 2q13 12 28 24.5t31.5 23t34 17t35.5 6.5q11 0 21 -2
t20 -8q4 0 9 -5.5t10 -13.5q10 -23 31.5 -38.5t46.5 -15.5q11 0 15 1h-1q6 2 10.5 5t10.5 5l12 8l-1 -1q20 12 40.5 22t45.5 10q1 0 1.5 -0.5t1.5 -0.5h5z" />
    <glyph glyph-name="trademark" unicode="&#x2122;" horiz-adv-x="708" 
d="M500 660q0 -8 -1 -17t-5 -17q5 6 11 13.5t11 15.5q17 22 34 40t38 18q16 0 30 -11.5t28 -38.5q3 -43 -4.5 -79t-18.5 -70v1q-8 -28 -15 -56.5t-7 -60.5q0 -6 -0.5 -11.5t1.5 -13.5q0 -1 1 -1l1 -1q9 -10 15 -22t-2 -34q-23 -13 -41 -13q-29 0 -51 20.5t-22 50.5l9 127
l-7 -6q-10 -10 -21 -20.5t-23.5 -16.5t-26.5 -6t-31 11q-12 11 -17.5 21.5t-8.5 21.5l-10 -20q-14 -26 -28.5 -52t-33.5 -51t-42.5 -47t-54.5 -39q-32 41 -32 67q0 27 17 50t38 46q17 19 32 38t19 42l49 102q-5 2 -9.5 2h-9.5q-18 0 -32 -10t-25.5 -26t-21 -35t-17.5 -38
q-10 -21 -20 -42.5t-21 -35.5v1q-7 -9 -10 -28t-5 -36t-4.5 -32.5t-9 -28t-18.5 -21t-33 -10.5q-20 26 -28 50t-8 47q0 19 4.5 39.5t12 41t16.5 40t18 37.5q4 10 6.5 13.5t7.5 15.5l-25 -4q-13 -2 -26.5 -4t-28.5 -2q-20 0 -42.5 10.5t-47.5 41.5q102 42 206 70t217 36l1 -8
q11 14 24 20t25 6q15 0 28 -8t23 -20.5t16 -29t6 -33.5z" />
    <glyph glyph-name="OE" unicode="&#x152;" horiz-adv-x="767" 
d="M437 408q-2 -7 -2 -16v-18q0 -8 1 -6.5t-1 -6.5q16 5 35.5 13t36.5 17q27 14 53 25t54 11q34 0 88 -42q-42 -29 -75 -44.5t-67 -29.5q-33 -13 -66 -27.5t-60.5 -34t-47 -45.5t-25.5 -62q26 0 51.5 5t53.5 10q31 7 63.5 12t67.5 5q50 0 118 -23l-25 -38l-96 -21
q-56 -12 -111.5 -25.5t-108.5 -33t-103.5 -47t-96.5 -67.5q-17 -9 -41 -9q-29 0 -54 18t-35 49v18q18 18 34 18q-29 37 -47.5 80.5t-11.5 95.5v-2q3 57 19 112.5t44.5 104.5t70 88.5t94.5 63.5q11 5 21.5 7.5t21.5 2.5q27 0 50 -13.5t45 -30.5q8 -5 11.5 -8.5t11.5 -8.5
q37 6 71 18.5t69 26.5q39 15 81.5 28.5t99.5 21.5v-66zM262 446q-63 -46 -101.5 -114t-38.5 -145q0 -22 2.5 -43t9.5 -42q7 -25 12 -34.5t9 -9.5q5 0 13 8t18 19q17 17 34 32.5t39 17.5q34 62 53.5 120t32.5 127q-15 14 -27.5 32.5t-10.5 41.5h-3q-12 1 -22.5 0t-15.5 -7z
" />
    <glyph glyph-name="oe" unicode="&#x153;" horiz-adv-x="705" 
d="M329 104q1 1 1.5 2.5t-2.5 -1.5v-1h1zM350 236q9 2 15.5 6t11.5 6q-9 -2 -18 -4.5t-9 -7.5zM222 422q43 0 77 -25.5t52 -59.5q14 5 28.5 9.5t31.5 10.5q40 14 81.5 25.5t83.5 11.5q20 0 42.5 -5t50.5 -16v-46q-15 -4 -38 -9.5t-38 -8.5q-40 -8 -80 -18t-76 -30l28 4t28 2
q32 0 63.5 -12t56.5 -42v-42q-26 8 -43.5 11t-29.5 3q-32 0 -63 -8.5t-62 -19.5q-20 -7 -39 -13t-39 -11q-4 -5 -5 -10.5t-3 -13.5q-1 -3 -1 -4l-1 -1h1h1l29 8q39 11 84.5 21.5t87.5 10.5q35 0 72 -12.5t78 -44.5q-23 -17 -40 -24t-30 -7q-10 0 -19.5 1t-17.5 3
q-9 2 -19 3.5t-15 1.5q-11 0 -24 -7q-54 -5 -101.5 -26.5t-92.5 -46.5q-17 -9 -37 -19.5t-60 -28.5q-12 19 -15 19q-5 0 -12 -3t-15 -8h1q-8 -5 -17.5 -8.5t-20.5 -5.5l3 1q-26 -6 -44.5 -0.5t-31 17.5t-22 29t-17.5 35v-1q-6 14 -11.5 25t-10.5 19q-8 17 -10.5 33.5
t-2.5 33.5q0 40 13.5 79.5t29.5 76.5q30 49 78 87.5t103 55.5zM165 272q-27 -31 -49 -63t-22 -70q0 -17 4 -33l4 -12q5 -19 15.5 -38.5t30.5 -20.5q20 13 26.5 40t8.5 55q1 5 2 14t2.5 18.5t3 18t2.5 13.5q41 -12 55 -37q-12 23 -5.5 37.5t17.5 30.5q6 8 11 16t5 17
q0 8 -6 23q0 21 -5.5 29.5t-14.5 8.5q-11 0 -23 -4t-23.5 -11t-21.5 -15t-16 -16z" />
    <glyph glyph-name="plusminus" unicode="&#xb1;" horiz-adv-x="440" 
d="M240 530q-2 -8 -1.5 -14t0.5 -12v-16.5t-2 -16.5q10 -2 18.5 -2h17.5q16 -1 32 -2.5t34 -6t38.5 -13.5t45.5 -25q-45 -25 -75 -31t-59 -8q-13 -2 -26.5 -3.5t-24.5 -1.5q-8 -35 -16 -72t-15 -73q-10 -12 -23 -13.5t-24 3.5t-19 15.5t-8 22.5l15 108q-8 2 -16.5 3.5
t-16.5 3.5q-26 4 -49.5 12.5t-42.5 37.5q-4 23 7.5 41t29.5 31l25 -11q18 -9 35 -15.5t37 -3.5q5 11 6.5 25t1.5 30q0 7 -0.5 14t-0.5 14q-1 13 -1 30t2 31q22 4 35.5 1.5t20 -10t9 -18t3.5 -21.5q1 -6 1 -12t2 -8zM397 99q-39 -3 -72.5 -9t-67.5 -12q-42 -8 -84.5 -15
t-89.5 -7q-27 0 -60 3q-14 22 -13.5 36t1.5 28q1 5 1 14.5v21.5q26 -4 38.5 -4.5t22.5 -0.5q24 0 50 2.5t53 4.5q26 3 52 5.5t53 2.5q26 0 54.5 -3.5t61.5 -14.5v-52z" />
    <glyph glyph-name="quotedblleft" unicode="&#x201c;" horiz-adv-x="340" 
d="M208 294q-25 0 -42 17l-2 2l-1 3q-5 23 -13.5 27.5t-18.5 4.5q-5 0 -10.5 -0.5t-11.5 -1.5t-12 -1.5t-12 -0.5q-48 0 -58 59l-1 1v1q3 59 26 107.5t49 92.5q14 23 25 44l3 5h5q2 1 7 1q17 0 32 -8t22 -22q11 -21 -4 -44q2 -10 -2 -18t-9 -16q-7 -11 -9 -17.5t6 -15.5
l3 -4q13 38 30 73.5t47 67.5l3 3h4q16 0 33 -8.5t23 -24.5q2 -7 1.5 -18.5t-14.5 -25.5q-29 -54 -50 -111t-17 -115l29 -12l-3 -9q-5 -16 -21 -26t-37 -10zM121 434q-2 -7 0 -12t4 -7q5 -7 16 -11q10 21 17.5 42.5t14.5 42.5q1 3 3 7l-8 2h-8q-11 0 -15 -6.5t-8 -22.5
q-2 -9 -5.5 -18t-10.5 -17z" />
    <glyph glyph-name="quotedblright" unicode="&#x201d;" horiz-adv-x="347" 
d="M191 341l1 10q3 73 17 150t37 146l2 6h7q20 0 37.5 -16t21.5 -38l1 -1l-1 -1q-2 -16 -3 -31.5t-2 -31.5q-2 -27 -4 -54.5t-9 -52.5t-19.5 -46.5t-34.5 -37.5l-3 -2h-48zM50 360q-13 15 -18 32t-5.5 35t2.5 36.5t6 37.5q5 31 8 61.5t-10 57.5l-3 7l6 5q18 15 37 15
q21 0 39 -19q14 -16 20.5 -40.5t3.5 -47.5v-1q-2 -10 -3 -21t-2 -24q-2 -20 -4.5 -42t-9.5 -41q-15 -46 -57 -55l-6 -1z" />
    <glyph glyph-name="bullet" unicode="&#x2022;" horiz-adv-x="363" 
d="M301 415q-7 -10 -9.5 -22t-6.5 -24q-4 -15 -9 -30t-13.5 -27.5t-22 -21t-33.5 -11.5q-8 1 -18 1h-20q-22 0 -44 1t-39.5 8.5t-27 24.5t-7.5 47q0 24 9.5 46t24.5 40.5t34.5 33t40.5 23.5q24 6 45 2.5t38.5 -13.5t32 -25.5t25.5 -32.5v-20z" />
    <glyph glyph-name="endash" unicode="&#x2013;" horiz-adv-x="720" 
d="M660 291q-8 -17 -19.5 -23.5t-25.5 -6.5t-29.5 6t-30.5 14q-16 9 -32 16t-30 5q-84 3 -157 -13t-143 -36h1q-26 -8 -58 -16t-58 -15l-45 46q28 27 57.5 44.5t60 28t61 16.5t62.5 11q31 5 62.5 10.5t62.5 16.5q18 -2 28.5 -3t17.5 -1h11.5h10.5q30 -1 60 -3t56.5 -10.5
t47 -25.5t30.5 -47z" />
    <glyph glyph-name="divide" unicode="&#xf7;" horiz-adv-x="561" 
d="M324 439q-19 17 -30.5 36t-11.5 37q0 27 28 56q21 -7 32 -19.5t16 -27.5t6 -29.5t1 -25.5zM523 319l-90 -12q-67 -9 -137 -16t-139 -7q-61 0 -127 9q-12 18 -16.5 41.5t11.5 45.5q23 -3 42.5 -4t38.5 -1q35 0 70 3l70 6q37 4 73 7t73 3q27 0 53.5 -2t53.5 -8l24 -28v-37z
M287 184q0 -11 -1 -21t-3 -18q-2 -10 -2 -22t2 -32q-35 -14 -57.5 -5t-24.5 38q-4 11 -6 23t-2 23q0 15 4 28.5t16 25.5q24 12 37 3t21 -20l9 -8z" />
    <glyph glyph-name="multiply" unicode="&#xd7;" horiz-adv-x="451" 
d="M111 547q4 -10 9 -19t12 -16q23 21 50 36t58 15q27 0 54 -15l7 -4q7 -3 14.5 -10t16.5 -27q-14 -13 -27.5 -18.5t-28.5 -7.5q-18 -2 -40.5 -9t-36.5 -23q19 -21 42 -41.5t48.5 -37.5t53.5 -28t57 -13l32 -46q-51 -27 -84 -27q-43 0 -81 21t-73 44l-35 23q-10 9 -10 12
q-17 -21 -21 -54t-6 -65q0 -4 -0.5 -9.5t-0.5 -8.5q-2 -4 1 -9.5t6 -10.5l-1 1q7 -9 12 -18t3.5 -16.5t-11.5 -14t-32 -11.5q-22 12 -36 28.5t-22.5 36t-12 41.5t-4.5 43l57 152q-2 2 -1.5 1.5t-0.5 1.5q-12 15 -23 31.5t-19 36t-11.5 43.5t-0.5 54q22 -3 36.5 -9t23.5 -14
t14.5 -18t11.5 -21z" />
    <glyph glyph-name="paragraph" unicode="&#xb6;" horiz-adv-x="2685" 
d="M3016 -298q-234 30 -463.5 45.5t-466.5 20.5t-487.5 1t-526.5 -14q-110 -2 -220 0q-215 1 -432 -2t-432 -23h-6l-3 4q-8 10 -9 20t1 19t6.5 17.5t8.5 14.5q1 1 1 1.5t1 1.5l2 4h5q405 29 783 43t730 14q200 0 391 -5t375 -15q196 -11 383 -26.5t364 -37.5l9 -1l-3 -83z
M2430 -74q-25 -2 -47 2t-42 12l-2 1q-22 16 -38.5 35t-28.5 39l-3 6l4 6q13 13 25 14q11 1 21 -4.5t20 -11.5q8 -5 17 -9.5t17 -3.5h1h19t18 1q97 9 130 78q2 5 4.5 9.5t4.5 9.5q11 21 17 42t-5 41q-20 32 -52.5 45t-66.5 22q-23 6 -46 14t-40 22t-27 36.5t-8 58.5l-1 3l3 4
q6 7 13 16t15 20q13 19 27.5 39t31 36.5t34 27.5t35.5 13q41 4 75 -46l3 -4l-2 -5q-2 -7 -2 -14v-15q-1 -17 -4.5 -35t-22.5 -31l-8 -5l-5 6q-9 8 -10.5 18.5t-1.5 20.5q-1 5 -1 10t-2 7q-1 0 -2.5 0.5t-5.5 -0.5h-5l-68 -87q8 -3 16 -6.5t16 -7.5q31 -13 63.5 -28.5
t60.5 -35.5q65 -46 80 -110v-1v-1q6 -66 -31 -132q-18 -30 -42.5 -54t-52.5 -41h-1q-27 -11 -50.5 -18t-46.5 -9zM1956 9q-28 16 -45 39.5t-27.5 51t-16 58t-10.5 61.5q-4 30 -9 61t-16 59q-25 -32 -43 -68.5t-33 -72.5q-22 -51 -48.5 -100t-72.5 -84l-7 -5l-5 6
q-10 7 -14.5 18.5t-6 24t0.5 24.5t6 20q6 10 11.5 21t10.5 22q42 83 87.5 165t103.5 149l6 6l7 -4q27 -16 43.5 -38.5t27 -49.5t16 -57t10.5 -60q6 -36 13 -71t22 -65q30 38 50.5 82t38.5 88q23 56 49.5 110t72.5 99l3 3h3q43 4 74 -45l2 -2l4 -46l-14 3l-12 2t-12 0
q-19 -2 -33 -13.5t-24 -29.5t-18 -40.5t-15 -44.5q-6 -20 -12.5 -38t-14.5 -35q-5 -24 -15 -57t-27 -64q-40 -71 -104 -84l-3 -1zM699 -86q-16 -2 -27.5 5t-22.5 16q-8 6 -15.5 11t-17.5 9l-7 3v7q5 72 20 140.5t33 135.5q12 46 23.5 92.5t19.5 94.5l2 12l11 -4q6 -2 9.5 -2
h5.5q3 0 4 3t1 18q-1 8 -0.5 17t4.5 17q7 19 33 22q25 4 50.5 12t53.5 17q33 11 67 22t68 14q83 8 137 -46l2 -2l2 -2q0 -2 0.5 -3.5t0.5 -3.5q4 -11 6.5 -23t4.5 -28v-5l-24 -22l-6 5q-25 21 -52.5 29t-60.5 5t-67 -14t-68 -25q-27 -11 -54.5 -21t-55.5 -15q8 -24 5 -46.5
t-9 -45.5q-2 -8 -4 -16.5t-4 -17.5q14 5 28.5 10.5t30.5 12.5q26 11 53 20.5t56 12.5q48 3 85 -17l1 -1h1q24 -21 33 -53q8 -34 -1 -62q-8 -17 -19 -20.5t-23 -4.5l-17 -2l7 16q10 22 0 36q-7 10 -21 14.5t-31 2.5q-14 -2 -24 -6l-2 -1h-2q-4 1 -8 0q-14 -1 -28.5 -6.5
t-30.5 -12.5q-15 -7 -30.5 -12.5t-29.5 -7.5q-25 -1 -42 14q-14 -35 -24 -75.5t-18 -76.5q66 36 139 59.5t144 29.5q32 3 63 2.5t60 -5.5q83 56 147 122.5t127 138.5q29 33 59.5 67t63.5 68l5 5l8 -4q26 -16 39.5 -37.5t15.5 -50.5q1 -25 -5 -51t-14 -52t-14 -52t-4 -49v-3
v-3q-19 -39 -28.5 -80t-17.5 -86q-4 -18 -7.5 -36.5t-8.5 -36.5l-1 -7l-7 -1q-3 0 -6.5 -1t-6.5 -1q-10 -2 -14 -2q-32 -3 -35 31v1v1q2 37 9.5 71.5t16.5 68.5q3 12 5.5 23.5t5.5 23.5q-20 5 -40.5 6.5t-40.5 2.5h-16.5t-16.5 1q-20 -25 -41.5 -48.5t-45 -44t-50.5 -36.5
t-57 -25l-8 -1l-25 44q-35 -18 -72 -30.5t-75 -23.5q-33 -10 -64.5 -20t-60 -24.5t-53.5 -33.5t-44 -47v-1l-1 -1q-21 -16 -40 -18zM1458 315l10 52l-37 -51zM289 -36q-55 -5 -105.5 4t-95.5 32h-1l-1 1q-4 4 -6.5 7t-6.5 6q-14 15 -26 33.5t-6 46.5l1 3l23 27
q-44 305 136 562q1 5 1 9t1 9q1 26 6 50.5t28 41.5l7 6l37 -35q6 5 11.5 11t12.5 12q20 18 42 37.5t45.5 36t47.5 28t47 13.5q59 6 96 -59v-1q26 -79 -11 -165q-16 -38 -40 -72.5t-49 -67.5q-5 -6 -9 -12t-8 -11q32 -21 59 -47.5t45 -56.5q22 -37 30.5 -76t2.5 -79
q-3 -37 -15 -74t-32 -70q-20 -35 -48 -62t-60 -44q-74 -36 -159 -44zM174 41q15 -4 31 -4t35 2q29 2 58 8.5t58 14.5q10 2 19.5 5t18.5 5q40 15 63 43.5t35 63.5t16 74.5t6 77.5q-1 2 -0.5 5t0.5 5q-7 29 -28 45t-45 30q-15 9 -29 17.5t-25 20t-18 25.5t-8 34v3l2 3
q12 22 27 42.5t30 40.5q17 24 33.5 48t29.5 48.5t21.5 50.5t9.5 55l-16 12q-91 -27 -142.5 -75.5t-78 -112t-35.5 -137.5t-15 -152q-3 -39 -6.5 -78t-9 -77t-14.5 -74t-23 -69z" />
    <glyph glyph-name="dieresis" unicode="&#xa8;" horiz-adv-x="452" 
d="M193 647q-3 -20 -10 -38.5t-17.5 -33.5t-26 -25t-36.5 -13q-25 0 -47 13t-30 34q-7 17 -7 35q0 31 19 55t39 43l16 15q39 0 69.5 -20.5t30.5 -61.5v-3zM413 616q3 -17 -0.5 -31t-11.5 -25.5t-19 -20.5t-23 -16q-22 -3 -38.5 3t-29 16.5t-22 25t-17.5 28.5v-1
q-5 7 -9 14.5t-9 12.5q-2 13 3.5 27.5t15.5 25.5t22.5 18.5t25.5 7.5q5 0 13.5 -3.5t15.5 -5.5q1 0 3.5 2.5t4.5 10.5q22 -2 36 -8.5t21.5 -16.5t10.5 -22.5t5 -24.5l3 -18z" />
    <glyph glyph-name="guillemotleft" unicode="&#xab;" horiz-adv-x="833" 
d="M765 530q-33 -35 -74.5 -56t-84.5 -40q-28 -11 -55 -23t-51 -29q0 -1 -0.5 -2t-1.5 -5q17 -6 31 -10t27 -9q37 -11 74.5 -24t69 -35.5t55.5 -58t35 -90.5q-41 13 -61 22.5t-37 18.5q-20 11 -42.5 21.5t-51.5 15.5q-19 9 -35.5 14t-33.5 10q-23 6 -44.5 12.5t-39.5 17.5
t-31 28t-17 44l22 99l298 140q12 3 21.5 -1.5t16.5 -12.5t10.5 -17t4.5 -16zM446 525q-38 -52 -94 -83t-117 -57q-26 -11 -53 -24t-52 -27q29 -13 62 -15t68 -3q32 -1 63.5 -3t61 -11.5t56 -29.5t49.5 -56l-14 -72q-32 24 -61.5 37.5t-58 20t-56 8.5t-54.5 3q-30 1 -59.5 3
t-58 8t-56 18t-52.5 33q-22 29 -22 55q0 22 13 39.5t31 31t38 23t34 15.5l59 25q29 12 58.5 25t57.5 29t55 36t52 46q31 -6 39.5 -19.5t12.5 -31.5l2 -13z" />
    <glyph glyph-name="guillemotright" unicode="&#xbb;" horiz-adv-x="833" 
d="M469 470q15 -23 15 -54q0 -17 -6.5 -33t-20.5 -27l-365 -227q-7 2 -10 2h-5q-11 0 -21.5 2t-19 7t-13 16t-2.5 29l14 38l299 171l-45 5q-31 3 -62 7t-59 14.5t-50 31t-35 55.5l39 63q33 -29 70.5 -46t77.5 -26t79 -12t75 -5q7 0 14.5 -1t14.5 -1zM738 509
q11 -12 15.5 -25t4.5 -25q0 -23 -12 -43t-25 -38l-398 -332l-65 23l11 67l342 284q-11 3 -23 4.5t-26 3.5q-22 3 -47.5 8t-47.5 13q-16 4 -32 10.5t-31 17t-27 25t-19 34.5q3 9 3.5 13t1.5 7q1 8 3 16.5t6.5 14.5t13.5 10t25 3q30 -28 68.5 -44.5t80 -25.5t83.5 -11.5
t81 -2.5z" />
    <glyph glyph-name="Lslash" unicode="&#x141;" horiz-adv-x="592" 
d="M272 395q-4 -16 -7.5 -30.5t-5.5 -27.5q17 -2 32.5 -2.5t31.5 -1.5q23 -1 46 -3t50.5 -8t61 -18.5t77.5 -35.5l-310 -31q-22 -34 -36 -73t-26 -78q42 6 85 8.5t88 2.5q54 0 107 -4t106 -12q4 -7 5.5 -9t3.5 -3q7 -5 13.5 -10t8.5 -11.5t-2.5 -15t-17.5 -20.5l-90 -3
q-54 -1 -107.5 -3.5t-106 -10.5t-103.5 -24t-100 -44l-53 43q35 49 54 95.5t35 93.5q3 10 5 17.5t4 13.5t4.5 13t7.5 17q-5 0 -9.5 -0.5t-9.5 -1.5q-8 -1 -17.5 -1.5t-17.5 -0.5q-24 0 -43 11t-26 46q12 16 26 25t29 13.5t31 5.5t32 1h16t16 1q14 31 20 66.5t11 72.5
q3 24 5.5 47.5t12.5 63.5q45 -17 61.5 -40t16.5 -52q0 -18 -4 -39t-11 -43z" />
    <glyph glyph-name="lslash" unicode="&#x142;" horiz-adv-x="478" 
d="M276 331q-5 -8 -10 -16.5t-7 -15.5h21.5t21.5 1q9 1 20 1h20q29 0 57.5 -6t52.5 -25v-33q-33 -12 -60.5 -16t-54.5 -7q-29 -3 -57.5 -7t-52.5 -14t-42 -29t-25 -52q5 -2 16 -2q13 0 31 3q10 2 19.5 3.5t22.5 1.5q9 0 15.5 -0.5t14.5 -3.5q26 -1 47 -17t32 -40
q0 -24 -6 -34.5t-15.5 -13t-21.5 0.5t-25 8q-6 2 -11 2l-240 -43q-13 18 -19.5 32t-6.5 26q0 27 17 49.5t38 44.5h-1q11 12 22 24.5t18 24.5l-17 2h1q-15 1 -29 3.5t-26 8.5t-20.5 16.5t-11.5 29.5q-5 15 4 25.5t22 22.5q16 0 28.5 -2t24.5 -5l-1 1q10 -2 20 -4.5t17 -2.5
q13 0 27 7q9 1 12.5 9t5.5 19q1 4 1.5 5.5t1 4t2 6t4.5 11.5q-10 15 -10 27q0 17 11 28t25 21q7 6 14 13.5t12 23.5q44 -10 60 -24t16 -32q0 -16 -8 -31t-17 -30z" />
    <glyph glyph-name="circumflex" unicode="&#x2c6;" horiz-adv-x="595" 
d="M456 804q3 -13 4 -29.5t2 -33.5q0 -18 1 -35t5.5 -30.5t13 -22.5t24.5 -10q11 -1 18 -7t12 -12q-1 2 3 0t7 -4q-4 -31 -24.5 -60t-51.5 -33q-22 13 -39.5 33t-31 44t-23.5 50.5t-16 51.5q4 21 1 37.5t-5 33.5q-1 4 -1.5 5l-0.5 1v0.5v5.5q-66 -57 -134 -116.5
t-133 -115.5q-17 6 -27.5 15.5t-16 21t-8 24t-4.5 24.5q33 31 72.5 64t74.5 62q60 50 121.5 105t118.5 125q36 -14 49.5 -31t13.5 -36q0 -14 -4 -27.5t-9 -27.5q-8 -18 -13.5 -36t1.5 -34v-2z" />
    <glyph glyph-name="Edieresis" unicode="&#xcb;" horiz-adv-x="581" 
d="M556 429q-17 -19 -46 -29.5t-56 -12.5q-20 -1 -38 -3t-38 -4q-23 -3 -46.5 -5.5t-49.5 -2.5q-14 0 -27.5 1t-28.5 4q-16 -72 -35.5 -142t-51.5 -137q35 3 73 8.5t75 10.5q48 8 97.5 14.5t108.5 8.5l46 -46q-13 -4 -30.5 -9t-36.5 -10.5t-36.5 -11t-30.5 -9.5
q-75 -23 -150 -42.5t-150 -19.5q-12 0 -26.5 1t-31.5 3l-40 37q12 37 27.5 79.5t28.5 79.5q26 71 51 146.5t43 172.5q35 -22 64 -30.5t54 -8.5q19 0 41 2.5t43 5.5q20 3 42 5t42 2q29 0 56 -6.5t53 -23.5zM270 272q11 -13 27 -24.5t33 -11.5q13 0 27 1.5t30 2.5q14 2 30 3.5
t30 1.5q4 0 9.5 7t11 15.5t11 15t9.5 5.5q-8 16 -23.5 19.5t-35.5 3.5q-13 0 -25 -1t-26 -2q-14 -2 -28 -2.5t-26 -0.5t-32 3t-30 6zM262 647q-3 -20 -10 -38.5t-17.5 -33.5t-26 -25t-36.5 -13q-25 0 -47 13t-30 34q-7 17 -7 35q0 31 19 55t39 43l16 15q39 0 69.5 -20.5
t30.5 -61.5v-3zM482 616q3 -17 -0.5 -31t-11.5 -25.5t-19 -20.5t-23 -16q-22 -3 -38.5 3t-29 16.5t-22 25t-17.5 28.5v-1q-5 7 -9 14.5t-9 12.5q-2 13 3.5 27.5t15.5 25.5t22.5 18.5t25.5 7.5q5 0 13.5 -3.5t15.5 -5.5q1 0 3.5 2.5t4.5 10.5q22 -2 36 -8.5t21.5 -16.5
t10.5 -22.5t5 -24.5l3 -18z" />
    <glyph glyph-name="edieresis" unicode="&#xeb;" horiz-adv-x="476" 
d="M62 308l-1 1q0 -1 1 -1zM473 336l-11 -52l-321 -34v-6q0 -6 2.5 -6t-2.5 -3q11 -3 24 -3.5t27 -0.5q31 0 64 3q17 2 33.5 3t33.5 1q11 0 30.5 -1.5t40.5 -3.5q-19 -23 -45 -40.5t-54 -30t-55.5 -19t-49.5 -6.5q-36 0 -55 13l-10 10l-19 -54q21 0 43 4t43 9q26 6 52.5 11
t52.5 5q25 0 51.5 -7t56.5 -26v-57q-23 5 -33 5.5t-17 0.5q-34 0 -67.5 -8.5t-65.5 -18.5q-33 -10 -66 -18t-70 -11l-4 4q1 -21 -13.5 -30.5t-58.5 1.5q-15 14 -22.5 24t-9.5 17.5t0 13t6 10.5q0 1 0.5 2.5t0.5 3.5q8 24 14 50l12 52q11 42 21.5 85.5t27.5 81.5q-4 5 -6 11
t3 20q23 22 46 22q11 0 18.5 -2.5t15.5 -4.5q8 -3 16 -5t16 -1q32 0 64 4t64 9t64.5 9.5t76.5 4.5zM210 528q-3 -20 -10 -38.5t-17.5 -33.5t-26 -25t-36.5 -13q-25 0 -47 13t-30 34q-7 17 -7 35q0 31 19 55t39 43l16 15q39 0 69.5 -20.5t30.5 -61.5v-3zM430 497
q3 -17 -0.5 -31t-11.5 -25.5t-19 -20.5t-23 -16q-22 -3 -38.5 3t-29 16.5t-22 25t-17.5 28.5v-1q-5 7 -9 14.5t-9 12.5q-2 13 3.5 27.5t15.5 25.5t22.5 18.5t25.5 7.5q5 0 13.5 -3.5t15.5 -5.5q1 0 3.5 2.5t4.5 10.5q22 -2 36 -8.5t21.5 -16.5t10.5 -22.5t5 -24.5l3 -18z
" />
    <glyph glyph-name="ecircumflex" unicode="&#xea;" horiz-adv-x="476" 
d="M62 308l-1 1q0 -1 1 -1zM473 336l-11 -52l-321 -34v-6q0 -6 2.5 -6t-2.5 -3q11 -3 24 -3.5t27 -0.5q31 0 64 3q17 2 33.5 3t33.5 1q11 0 30.5 -1.5t40.5 -3.5q-19 -23 -45 -40.5t-54 -30t-55.5 -19t-49.5 -6.5q-36 0 -55 13l-10 10l-19 -54q21 0 43 4t43 9q26 6 52.5 11
t52.5 5q25 0 51.5 -7t56.5 -26v-57q-23 5 -33 5.5t-17 0.5q-34 0 -67.5 -8.5t-65.5 -18.5q-33 -10 -66 -18t-70 -11l-4 4q1 -21 -13.5 -30.5t-58.5 1.5q-15 14 -22.5 24t-9.5 17.5t0 13t6 10.5q0 1 0.5 2.5t0.5 3.5q8 24 14 50l12 52q11 42 21.5 85.5t27.5 81.5q-4 5 -6 11
t3 20q23 22 46 22q11 0 18.5 -2.5t15.5 -4.5q8 -3 16 -5t16 -1q32 0 64 4t64 9t64.5 9.5t76.5 4.5zM396 655q3 -13 4 -29.5t2 -33.5q0 -18 1 -35t5.5 -30.5t13 -22.5t24.5 -10q11 -1 18 -7t12 -12q-1 2 3 0t7 -4q-4 -31 -24.5 -60t-51.5 -33q-22 13 -39.5 33t-31 44
t-23.5 50.5t-16 51.5q4 21 1 37.5t-5 33.5q-1 4 -1.5 5l-0.5 1v0.5v5.5q-66 -57 -134 -116.5t-133 -115.5q-17 6 -27.5 15.5t-16 21t-8 24t-4.5 24.5q33 31 72.5 64t74.5 62q60 50 121.5 105t118.5 125q36 -14 49.5 -31t13.5 -36q0 -14 -4 -27.5t-9 -27.5q-8 -18 -13.5 -36
t1.5 -34v-2z" />
    <glyph glyph-name="otilde" unicode="&#xf5;" horiz-adv-x="447" 
d="M408 313q9 -23 14 -45t5 -44q0 -30 -7.5 -60t-20 -58t-28.5 -54.5t-32 -50.5q-27 -35 -63.5 -47t-76.5 -12q-19 0 -36.5 1.5t-34.5 3.5q-23 10 -42 26.5t-33 36t-24 41.5t-16 43q3 52 23 102t52 92.5t74.5 75.5t90.5 50q25 2 48 -5.5t43 -22t36.5 -33t27.5 -39.5v-1z
M336 247q-16 43 -40 53.5t-50.5 -0.5t-52 -38.5t-44.5 -60.5t-27.5 -67t-1.5 -58q9 -19 27.5 -29t40.5 -10q17 0 30 4l9 8q24 21 45 41.5t36 44t23 50.5t5 62zM447 728v-52l-11 -9l-32 -20q-29 -19 -64 -37t-73 -18q-43 0 -78 28q-15 7 -24 21t-17 28v1q-5 8 -5 10l-3 -4
l1 1l-9 -6q-23 -13 -46 -27.5t-34 -34.5l-11 -12h-16q-16 3 -24 11t-12 16q-7 17 0 33t15 25l9 8l2 2q13 12 28 24.5t31.5 23t34 17t35.5 6.5q11 0 21 -2t20 -8q4 0 9 -5.5t10 -13.5q10 -23 31.5 -38.5t46.5 -15.5q11 0 15 1h-1q6 2 10.5 5t10.5 5l12 8l-1 -1q20 12 40.5 22
t45.5 10q1 0 1.5 -0.5t1.5 -0.5h5z" />
    <glyph glyph-name="eacute" unicode="&#xe9;" horiz-adv-x="476" 
d="M62 308l-1 1q0 -1 1 -1zM473 336l-11 -52l-321 -34v-6q0 -6 2.5 -6t-2.5 -3q11 -3 24 -3.5t27 -0.5q31 0 64 3q17 2 33.5 3t33.5 1q11 0 30.5 -1.5t40.5 -3.5q-19 -23 -45 -40.5t-54 -30t-55.5 -19t-49.5 -6.5q-36 0 -55 13l-10 10l-19 -54q21 0 43 4t43 9q26 6 52.5 11
t52.5 5q25 0 51.5 -7t56.5 -26v-57q-23 5 -33 5.5t-17 0.5q-34 0 -67.5 -8.5t-65.5 -18.5q-33 -10 -66 -18t-70 -11l-4 4q1 -21 -13.5 -30.5t-58.5 1.5q-15 14 -22.5 24t-9.5 17.5t0 13t6 10.5q0 1 0.5 2.5t0.5 3.5q8 24 14 50l12 52q11 42 21.5 85.5t27.5 81.5q-4 5 -6 11
t3 20q23 22 46 22q11 0 18.5 -2.5t15.5 -4.5q8 -3 16 -5t16 -1q32 0 64 4t64 9t64.5 9.5t76.5 4.5zM504 636v-6.5t1 -7.5q1 -8 2 -15.5t-1.5 -14.5t-10 -13t-22.5 -10l-35 17q-39 -20 -72.5 -42t-67.5 -45l-62 -42t-64.5 -39t-69.5 -32t-77 -21q-17 21 -24 36t-7 26
q0 25 21 35t47 16q16 3 30 7t21 15q78 60 164 112.5t183 86.5l40 -48z" />
    <glyph glyph-name="egrave" unicode="&#xe8;" horiz-adv-x="476" 
d="M62 308l-1 1q0 -1 1 -1zM473 336l-11 -52l-321 -34v-6q0 -6 2.5 -6t-2.5 -3q11 -3 24 -3.5t27 -0.5q31 0 64 3q17 2 33.5 3t33.5 1q11 0 30.5 -1.5t40.5 -3.5q-19 -23 -45 -40.5t-54 -30t-55.5 -19t-49.5 -6.5q-36 0 -55 13l-10 10l-19 -54q21 0 43 4t43 9q26 6 52.5 11
t52.5 5q25 0 51.5 -7t56.5 -26v-57q-23 5 -33 5.5t-17 0.5q-34 0 -67.5 -8.5t-65.5 -18.5q-33 -10 -66 -18t-70 -11l-4 4q1 -21 -13.5 -30.5t-58.5 1.5q-15 14 -22.5 24t-9.5 17.5t0 13t6 10.5q0 1 0.5 2.5t0.5 3.5q8 24 14 50l12 52q11 42 21.5 85.5t27.5 81.5q-4 5 -6 11
t3 20q23 22 46 22q11 0 18.5 -2.5t15.5 -4.5q8 -3 16 -5t16 -1q32 0 64 4t64 9t64.5 9.5t76.5 4.5zM398 460q4 -10 1 -23.5t-11 -26t-19.5 -22.5t-24.5 -13q-33 30 -64 51t-62 41q-44 27 -86 57t-80 75l15 50q66 -24 118 -54.5t98 -60.5q26 -17 53.5 -34t53.5 -31z" />
    <glyph glyph-name="guilsinglright" unicode="&#x203a;" horiz-adv-x="604" 
d="M382 269q-15 -8 -29.5 -14t-29.5 -11q-17 -6 -32.5 -12.5t-27 -15t-17 -19.5t-1.5 -26q2 -10 0 -17.5t-6 -13.5q-1 -1 -1 -3v-11q-16 -3 -33 -1.5t-33 6.5t-29 15t-20 24q5 24 18.5 47t32 43.5t40.5 38t44 31.5q21 3 38.5 11.5t33.5 16.5q2 1 1.5 1.5t-1 0.5t0 0t4.5 2
q-75 45 -153 90.5t-151 90.5q-1 18 5 30t15 21t20 15l22 12q41 -21 85 -48t84 -52q67 -41 136.5 -81.5t156.5 -71.5q-2 -35 -10.5 -53t-22 -25.5t-31.5 -8t-37 0.5q-19 2 -38 0.5t-33 -12.5z" />
    <glyph glyph-name="guilsinglleft" unicode="&#x2039;" horiz-adv-x="534" 
d="M188 464q14 8 28 14t29 12q16 6 32 12.5t28 14.5t17.5 19t2.5 26q-3 10 -1 17t6 14v2q0 2 0.5 4.5t0.5 7.5q16 3 33 2t32.5 -6t28.5 -15t21 -24q-5 -25 -18.5 -48t-32 -43.5t-40 -38t-43.5 -30.5q-23 -5 -39.5 -13t-33.5 -16v1l-3 -3q-1 -1 -2 -1q75 -45 153 -90.5
t151 -89.5q1 -18 -5 -30.5t-15 -21.5t-20.5 -15.5t-21.5 -12.5q-40 22 -84.5 49t-83.5 51q-69 43 -139.5 83t-152.5 72q1 34 9.5 52t22 25.5t31 8t37.5 -0.5q19 -2 37.5 -1t32.5 12z" />
    <glyph glyph-name="quoteright" unicode="&#x2019;" horiz-adv-x="220" 
d="M202 496q7 -73 -20 -131.5t-78 -108.5q-23 -5 -42.5 2t-39.5 30q11 25 19 35.5t17 21.5q9 12 18 25t16 28q10 17 15 34.5t3 39.5l-25 18q-12 7 -22.5 15t-16 19t-5 25.5t10.5 34.5q28 10 50 5.5t39.5 -16.5t30 -29t23.5 -32l6 -9z" />
    <glyph glyph-name="quoteleft" unicode="&#x2018;" horiz-adv-x="235" 
d="M60 525l27 27t34 31t36 25.5t32 10.5q16 0 26 -10.5t10 -36.5q0 -14 -6 -42q-24 -20 -46.5 -42.5t-40 -47.5t-28.5 -52.5t-14 -56.5q-13 -16 -25 -16t-22 2q-2 0 -6 0.5t-6 0.5q-18 17 -25 33.5t-7 33.5q0 26 11 50t24 46h-1l19 36z" />
    <glyph glyph-name="Acircumflex" unicode="&#xc2;" horiz-adv-x="631" 
d="M544 332q-14 -22 -28 -35t-28 -21t-28 -12t-28 -7q-10 -2 -19.5 -4.5t-17.5 -5.5l-11 -33q-14 -40 -24.5 -78.5t-10.5 -83.5v-15t1 -15q13 5 25.5 3t23.5 -28q4 -17 -4 -28t-18 -22l-9 -7q-18 -6 -35 -2t-31 14t-23.5 24.5t-13.5 29.5q-3 36 2 70t11 67q5 21 8 42t4 40
l-106 -6q-8 -13 -14.5 -26t-14.5 -27q-23 -46 -52.5 -94t-77.5 -86q-22 5 -40 14t-23 29q-2 20 2.5 37t13 32t20 28t23.5 26q15 15 28 30t18 32l69 114q58 99 122.5 198.5t151.5 200.5q36 -32 50.5 -64t14.5 -64q0 -33 -9.5 -69t-20.5 -72q-9 -29 -17 -57.5t-11 -56.5z
M299 335q14 25 23 59.5t16 71.5l-80 -135q11 1 19.5 2t21.5 2zM552 795q3 -13 4 -29.5t2 -33.5q0 -18 1 -35t5.5 -30.5t13 -22.5t24.5 -10q11 -1 18 -7t12 -12q-1 2 3 0t7 -4q-4 -31 -24.5 -60t-51.5 -33q-22 13 -39.5 33t-31 44t-23.5 50.5t-16 51.5q4 21 1 37.5t-5 33.5
q-1 4 -1.5 5l-0.5 1v0.5v5.5q-66 -57 -134 -116.5t-133 -115.5q-17 6 -27.5 15.5t-16 21t-8 24t-4.5 24.5q33 31 72.5 64t74.5 62q60 50 121.5 105t118.5 125q36 -14 49.5 -31t13.5 -36q0 -14 -4 -27.5t-9 -27.5q-8 -18 -13.5 -36t1.5 -34v-2z" />
    <glyph glyph-name="Agrave" unicode="&#xc0;" horiz-adv-x="564" 
d="M524 332q-14 -22 -28 -35t-28 -21t-28 -12t-28 -7q-10 -2 -19.5 -4.5t-17.5 -5.5l-11 -33q-14 -40 -24.5 -78.5t-10.5 -83.5v-15t1 -15q13 5 25.5 3t23.5 -28q4 -17 -4 -28t-18 -22l-9 -7q-18 -6 -35 -2t-31 14t-23.5 24.5t-13.5 29.5q-3 36 2 70t11 67q5 21 8 42t4 40
l-106 -6q-8 -13 -14.5 -26t-14.5 -27q-23 -46 -52.5 -94t-77.5 -86q-22 5 -40 14t-23 29q-2 20 2.5 37t13 32t20 28t23.5 26q15 15 28 30t18 32l69 114q58 99 122.5 198.5t151.5 200.5q36 -32 50.5 -64t14.5 -64q0 -33 -9.5 -69t-20.5 -72q-9 -29 -17 -57.5t-11 -56.5z
M279 335q14 25 23 59.5t16 71.5l-80 -135q11 1 19.5 2t21.5 2zM525 769q4 -10 1 -23.5t-11 -26t-19.5 -22.5t-24.5 -13q-33 30 -64 51t-62 41q-44 27 -86 57t-80 75l15 50q66 -24 118 -54.5t98 -60.5q26 -17 53.5 -34t53.5 -31z" />
    <glyph glyph-name="Aacute" unicode="&#xc1;" horiz-adv-x="631" 
d="M544 332q-14 -22 -28 -35t-28 -21t-28 -12t-28 -7q-10 -2 -19.5 -4.5t-17.5 -5.5l-11 -33q-14 -40 -24.5 -78.5t-10.5 -83.5v-15t1 -15q13 5 25.5 3t23.5 -28q4 -17 -4 -28t-18 -22l-9 -7q-18 -6 -35 -2t-31 14t-23.5 24.5t-13.5 29.5q-3 36 2 70t11 67q5 21 8 42t4 40
l-106 -6q-8 -13 -14.5 -26t-14.5 -27q-23 -46 -52.5 -94t-77.5 -86q-22 5 -40 14t-23 29q-2 20 2.5 37t13 32t20 28t23.5 26q15 15 28 30t18 32l69 114q58 99 122.5 198.5t151.5 200.5q36 -32 50.5 -64t14.5 -64q0 -33 -9.5 -69t-20.5 -72q-9 -29 -17 -57.5t-11 -56.5z
M299 335q14 25 23 59.5t16 71.5l-80 -135q11 1 19.5 2t21.5 2zM620 925v-6.5t1 -7.5q1 -8 2 -15.5t-1.5 -14.5t-10 -13t-22.5 -10l-35 17q-39 -20 -72.5 -42t-67.5 -45l-62 -42t-64.5 -39t-69.5 -32t-77 -21q-17 21 -24 36t-7 26q0 25 21 35t47 16q16 3 30 7t21 15
q78 60 164 112.5t183 86.5l40 -48z" />
    <glyph glyph-name="Atilde" unicode="&#xc3;" horiz-adv-x="631" 
d="M603 332q-14 -22 -28 -35t-28 -21t-28 -12t-28 -7q-10 -2 -19.5 -4.5t-17.5 -5.5l-11 -33q-14 -40 -24.5 -78.5t-10.5 -83.5v-15t1 -15q13 5 25.5 3t23.5 -28q4 -17 -4 -28t-18 -22l-9 -7q-18 -6 -35 -2t-31 14t-23.5 24.5t-13.5 29.5q-3 36 2 70t11 67q5 21 8 42t4 40
l-106 -6q-8 -13 -14.5 -26t-14.5 -27q-23 -46 -52.5 -94t-77.5 -86q-22 5 -40 14t-23 29q-2 20 2.5 37t13 32t20 28t23.5 26q15 15 28 30t18 32l69 114q58 99 122.5 198.5t151.5 200.5q36 -32 50.5 -64t14.5 -64q0 -33 -9.5 -69t-20.5 -72q-9 -29 -17 -57.5t-11 -56.5z
M358 335q14 25 23 59.5t16 71.5l-80 -135q11 1 19.5 2t21.5 2zM700 857v-52l-11 -9l-32 -20q-29 -19 -64 -37t-73 -18q-43 0 -78 28q-15 7 -24 21t-17 28v1q-5 8 -5 10l-3 -4l1 1l-9 -6q-23 -13 -46 -27.5t-34 -34.5l-11 -12h-16q-16 3 -24 11t-12 16q-7 17 0 33t15 25l9 8
l2 2q13 12 28 24.5t31.5 23t34 17t35.5 6.5q11 0 21 -2t20 -8q4 0 9 -5.5t10 -13.5q10 -23 31.5 -38.5t46.5 -15.5q11 0 15 1h-1q6 2 10.5 5t10.5 5l12 8l-1 -1q20 12 40.5 22t45.5 10q1 0 1.5 -0.5t1.5 -0.5h5z" />
    <glyph glyph-name="Ntilde" unicode="&#xd1;" horiz-adv-x="640" 
d="M611 444q8 -17 7.5 -26.5t-6.5 -15.5t-15.5 -9t-19.5 -6l-2 -1q-5 -1 -3.5 0t-1.5 -1q-26 -36 -41.5 -79.5t-28.5 -88.5q-10 -34 -21.5 -67.5t-28.5 -65t-42 -60t-63 -52.5q-36 24 -58.5 53t-36.5 62t-22 68t-15 70q-2 12 -2.5 16.5t-1 8t-1.5 8.5t-4 17
q-7 -14 -11.5 -25.5t-10.5 -24.5q-27 -62 -59.5 -127t-87.5 -128q-30 19 -43 36.5t-13 34.5q0 24 15 45.5t35 44.5q18 20 33 41t15 44l24 62q18 46 37.5 93t49.5 98q30 4 48.5 -3.5t29 -23t15.5 -35.5t8 -39q2 -9 4.5 -20.5t5.5 -20.5q8 -57 18 -111.5t27 -102.5
q35 38 51.5 83t33.5 96q16 49 35 98t55 95q16 6 30 4t26 -8.5t21.5 -16.5t14.5 -20zM586 626v-52l-11 -9l-32 -20q-29 -19 -64 -37t-73 -18q-43 0 -78 28q-15 7 -24 21t-17 28v1q-5 8 -5 10l-3 -4l1 1l-9 -6q-23 -13 -46 -27.5t-34 -34.5l-11 -12h-16q-16 3 -24 11t-12 16
q-7 17 0 33t15 25l9 8l2 2q13 12 28 24.5t31.5 23t34 17t35.5 6.5q11 0 21 -2t20 -8q4 0 9 -5.5t10 -13.5q10 -23 31.5 -38.5t46.5 -15.5q11 0 15 1h-1q6 2 10.5 5t10.5 5l12 8l-1 -1q20 12 40.5 22t45.5 10q1 0 1.5 -0.5t1.5 -0.5h5z" />
    <glyph glyph-name="Ugrave" unicode="&#xd9;" horiz-adv-x="535" 
d="M231 471q-8 -30 -21.5 -61t-28.5 -60q-21 -45 -40 -91t-19 -87q0 -27 12.5 -54.5t37.5 -50.5q43 4 71 21.5t47 43t30.5 57t20.5 64.5q8 28 17.5 57t23.5 57t35 53t52 46q16 -11 23 -13q9 -3 19.5 -9t23.5 -21q-6 -31 -17 -50.5t-23 -38.5q-11 -17 -20.5 -35t-11.5 -38
q-29 -49 -50 -111t-21 -123q0 -35 10 -70t33 -69q-29 -29 -54 -29q-11 0 -24 5.5t-27 18.5q-23 24 -30.5 54t-12.5 62q-22 -11 -47.5 -20t-54.5 -9q-30 0 -60 16q-22 13 -43 33t-36 44t-23 51.5t-4 57.5q8 45 19 89.5t27.5 88t40 86t55.5 83.5l60 -27zM457 573
q4 -10 1 -23.5t-11 -26t-19.5 -22.5t-24.5 -13q-33 30 -64 51t-62 41q-44 27 -86 57t-80 75l15 50q66 -24 118 -54.5t98 -60.5q26 -17 53.5 -34t53.5 -31z" />
    <glyph glyph-name="Uacute" unicode="&#xda;" horiz-adv-x="535" 
d="M231 471q-8 -30 -21.5 -61t-28.5 -60q-21 -45 -40 -91t-19 -87q0 -27 12.5 -54.5t37.5 -50.5q43 4 71 21.5t47 43t30.5 57t20.5 64.5q8 28 17.5 57t23.5 57t35 53t52 46q16 -11 23 -13q9 -3 19.5 -9t23.5 -21q-6 -31 -17 -50.5t-23 -38.5q-11 -17 -20.5 -35t-11.5 -38
q-29 -49 -50 -111t-21 -123q0 -35 10 -70t33 -69q-29 -29 -54 -29q-11 0 -24 5.5t-27 18.5q-23 24 -30.5 54t-12.5 62q-22 -11 -47.5 -20t-54.5 -9q-30 0 -60 16q-22 13 -43 33t-36 44t-23 51.5t-4 57.5q8 45 19 89.5t27.5 88t40 86t55.5 83.5l60 -27zM542 776v-6.5t1 -7.5
q1 -8 2 -15.5t-1.5 -14.5t-10 -13t-22.5 -10l-35 17q-39 -20 -72.5 -42t-67.5 -45l-62 -42t-64.5 -39t-69.5 -32t-77 -21q-17 21 -24 36t-7 26q0 25 21 35t47 16q16 3 30 7t21 15q78 60 164 112.5t183 86.5l40 -48z" />
    <glyph glyph-name="Ucircumflex" unicode="&#xdb;" horiz-adv-x="535" 
d="M231 471q-8 -30 -21.5 -61t-28.5 -60q-21 -45 -40 -91t-19 -87q0 -27 12.5 -54.5t37.5 -50.5q43 4 71 21.5t47 43t30.5 57t20.5 64.5q8 28 17.5 57t23.5 57t35 53t52 46q16 -11 23 -13q9 -3 19.5 -9t23.5 -21q-6 -31 -17 -50.5t-23 -38.5q-11 -17 -20.5 -35t-11.5 -38
q-29 -49 -50 -111t-21 -123q0 -35 10 -70t33 -69q-29 -29 -54 -29q-11 0 -24 5.5t-27 18.5q-23 24 -30.5 54t-12.5 62q-22 -11 -47.5 -20t-54.5 -9q-30 0 -60 16q-22 13 -43 33t-36 44t-23 51.5t-4 57.5q8 45 19 89.5t27.5 88t40 86t55.5 83.5l60 -27zM455 788
q3 -13 4 -29.5t2 -33.5q0 -18 1 -35t5.5 -30.5t13 -22.5t24.5 -10q11 -1 18 -7t12 -12q-1 2 3 0t7 -4q-4 -31 -24.5 -60t-51.5 -33q-22 13 -39.5 33t-31 44t-23.5 50.5t-16 51.5q4 21 1 37.5t-5 33.5q-1 4 -1.5 5l-0.5 1v0.5v5.5q-66 -57 -134 -116.5t-133 -115.5
q-17 6 -27.5 15.5t-16 21t-8 24t-4.5 24.5q33 31 72.5 64t74.5 62q60 50 121.5 105t118.5 125q36 -14 49.5 -31t13.5 -36q0 -14 -4 -27.5t-9 -27.5q-8 -18 -13.5 -36t1.5 -34v-2z" />
    <glyph glyph-name="Udieresis" unicode="&#xdc;" horiz-adv-x="535" 
d="M231 471q-8 -30 -21.5 -61t-28.5 -60q-21 -45 -40 -91t-19 -87q0 -27 12.5 -54.5t37.5 -50.5q43 4 71 21.5t47 43t30.5 57t20.5 64.5q8 28 17.5 57t23.5 57t35 53t52 46q16 -11 23 -13q9 -3 19.5 -9t23.5 -21q-6 -31 -17 -50.5t-23 -38.5q-11 -17 -20.5 -35t-11.5 -38
q-29 -49 -50 -111t-21 -123q0 -35 10 -70t33 -69q-29 -29 -54 -29q-11 0 -24 5.5t-27 18.5q-23 24 -30.5 54t-12.5 62q-22 -11 -47.5 -20t-54.5 -9q-30 0 -60 16q-22 13 -43 33t-36 44t-23 51.5t-4 57.5q8 45 19 89.5t27.5 88t40 86t55.5 83.5l60 -27zM304 674
q-3 -20 -10 -38.5t-17.5 -33.5t-26 -25t-36.5 -13q-25 0 -47 13t-30 34q-7 17 -7 35q0 31 19 55t39 43l16 15q39 0 69.5 -20.5t30.5 -61.5v-3zM524 643q3 -17 -0.5 -31t-11.5 -25.5t-19 -20.5t-23 -16q-22 -3 -38.5 3t-29 16.5t-22 25t-17.5 28.5v-1q-5 7 -9 14.5t-9 12.5
q-2 13 3.5 27.5t15.5 25.5t22.5 18.5t25.5 7.5q5 0 13.5 -3.5t15.5 -5.5q1 0 3.5 2.5t4.5 10.5q22 -2 36 -8.5t21.5 -16.5t10.5 -22.5t5 -24.5l3 -18z" />
    <glyph glyph-name="Yacute" unicode="&#xdd;" horiz-adv-x="511" 
d="M450 454q-50 -51 -99.5 -103t-94 -106.5t-80.5 -112t-59 -118.5q8 -2 15 -6t13 -16q2 -12 -1.5 -22t-10.5 -17.5t-16 -12.5t-18 -5q-32 -2 -58 18t-30 58q17 71 47.5 129.5t72.5 112.5q-17 9 -34 22.5t-32 30t-26.5 35t-16.5 36.5v-3q-8 20 -10.5 44.5t-2.5 49.5
q0 10 0.5 18.5t0.5 17.5v11t0.5 14.5t0.5 14v9.5q30 0 49 -11t30.5 -28t17.5 -38.5t10 -43.5q3 -16 6.5 -31.5t9 -28t13 -20t18.5 -7.5q10 0 24 4.5t31 14.5l221 224q11 -4 25 -12t24.5 -19.5t13 -26t-9.5 -31.5zM520 821v-6.5t1 -7.5q1 -8 2 -15.5t-1.5 -14.5t-10 -13
t-22.5 -10l-35 17q-39 -20 -72.5 -42t-67.5 -45l-62 -42t-64.5 -39t-69.5 -32t-77 -21q-17 21 -24 36t-7 26q0 25 21 35t47 16q16 3 30 7t21 15q78 60 164 112.5t183 86.5l40 -48z" />
    <glyph glyph-name="agrave" unicode="&#xe0;" 
d="M383 221q-2 -30 -8 -53.5t-13 -45.5q-6 -20 -11 -37.5t-5 -39.5q0 -5 1.5 -15t3.5 -24q-15 -12 -31.5 -12.5t-30 6.5t-21.5 20t-6 27l5 25q2 13 4.5 25.5t5.5 22.5q-21 5 -40 8.5t-41 8.5q-10 -10 -20.5 -24t-19.5 -28q-11 -17 -22.5 -32.5t-25 -28t-29.5 -20t-36 -7.5
q-8 0 -16.5 2t-17.5 5q-15 11 -20.5 20.5t-4.5 18.5t7 16.5t14 15.5v-1q3 5 6.5 9.5t1.5 15.5q59 47 100 100.5t76 106.5q29 43 63 89.5t81 93.5q24 4 39 -4.5t23.5 -23.5t12 -32.5t4.5 -32.5zM294 220q1 14 2 20.5t1.5 12t2 14t3.5 27.5q-22 -38 -36 -72zM482 563
q4 -10 1 -23.5t-11 -26t-19.5 -22.5t-24.5 -13q-33 30 -64 51t-62 41q-44 27 -86 57t-80 75l15 50q66 -24 118 -54.5t98 -60.5q26 -17 53.5 -34t53.5 -31z" />
    <glyph glyph-name="aacute" unicode="&#xe1;" 
d="M383 221q-2 -30 -8 -53.5t-13 -45.5q-6 -20 -11 -37.5t-5 -39.5q0 -5 1.5 -15t3.5 -24q-15 -12 -31.5 -12.5t-30 6.5t-21.5 20t-6 27l5 25q2 13 4.5 25.5t5.5 22.5q-21 5 -40 8.5t-41 8.5q-10 -10 -20.5 -24t-19.5 -28q-11 -17 -22.5 -32.5t-25 -28t-29.5 -20t-36 -7.5
q-8 0 -16.5 2t-17.5 5q-15 11 -20.5 20.5t-4.5 18.5t7 16.5t14 15.5v-1q3 5 6.5 9.5t1.5 15.5q59 47 100 100.5t76 106.5q29 43 63 89.5t81 93.5q24 4 39 -4.5t23.5 -23.5t12 -32.5t4.5 -32.5zM294 220q1 14 2 20.5t1.5 12t2 14t3.5 27.5q-22 -38 -36 -72zM581 726v-6.5
t1 -7.5q1 -8 2 -15.5t-1.5 -14.5t-10 -13t-22.5 -10l-35 17q-39 -20 -72.5 -42t-67.5 -45l-62 -42t-64.5 -39t-69.5 -32t-77 -21q-17 21 -24 36t-7 26q0 25 21 35t47 16q16 3 30 7t21 15q78 60 164 112.5t183 86.5l40 -48z" />
    <glyph glyph-name="acircumflex" unicode="&#xe2;" 
d="M383 221q-2 -30 -8 -53.5t-13 -45.5q-6 -20 -11 -37.5t-5 -39.5q0 -5 1.5 -15t3.5 -24q-15 -12 -31.5 -12.5t-30 6.5t-21.5 20t-6 27l5 25q2 13 4.5 25.5t5.5 22.5q-21 5 -40 8.5t-41 8.5q-10 -10 -20.5 -24t-19.5 -28q-11 -17 -22.5 -32.5t-25 -28t-29.5 -20t-36 -7.5
q-8 0 -16.5 2t-17.5 5q-15 11 -20.5 20.5t-4.5 18.5t7 16.5t14 15.5v-1q3 5 6.5 9.5t1.5 15.5q59 47 100 100.5t76 106.5q29 43 63 89.5t81 93.5q24 4 39 -4.5t23.5 -23.5t12 -32.5t4.5 -32.5zM294 220q1 14 2 20.5t1.5 12t2 14t3.5 27.5q-22 -38 -36 -72zM456 686
q3 -13 4 -29.5t2 -33.5q0 -18 1 -35t5.5 -30.5t13 -22.5t24.5 -10q11 -1 18 -7t12 -12q-1 2 3 0t7 -4q-4 -31 -24.5 -60t-51.5 -33q-22 13 -39.5 33t-31 44t-23.5 50.5t-16 51.5q4 21 1 37.5t-5 33.5q-1 4 -1.5 5l-0.5 1v0.5v5.5q-66 -57 -134 -116.5t-133 -115.5
q-17 6 -27.5 15.5t-16 21t-8 24t-4.5 24.5q33 31 72.5 64t74.5 62q60 50 121.5 105t118.5 125q36 -14 49.5 -31t13.5 -36q0 -14 -4 -27.5t-9 -27.5q-8 -18 -13.5 -36t1.5 -34v-2z" />
    <glyph glyph-name="atilde" unicode="&#xe3;" 
d="M383 221q-2 -30 -8 -53.5t-13 -45.5q-6 -20 -11 -37.5t-5 -39.5q0 -5 1.5 -15t3.5 -24q-15 -12 -31.5 -12.5t-30 6.5t-21.5 20t-6 27l5 25q2 13 4.5 25.5t5.5 22.5q-21 5 -40 8.5t-41 8.5q-10 -10 -20.5 -24t-19.5 -28q-11 -17 -22.5 -32.5t-25 -28t-29.5 -20t-36 -7.5
q-8 0 -16.5 2t-17.5 5q-15 11 -20.5 20.5t-4.5 18.5t7 16.5t14 15.5v-1q3 5 6.5 9.5t1.5 15.5q59 47 100 100.5t76 106.5q29 43 63 89.5t81 93.5q24 4 39 -4.5t23.5 -23.5t12 -32.5t4.5 -32.5zM294 220q1 14 2 20.5t1.5 12t2 14t3.5 27.5q-22 -38 -36 -72zM554 558v-52
l-11 -9l-32 -20q-29 -19 -64 -37t-73 -18q-43 0 -78 28q-15 7 -24 21t-17 28v1q-5 8 -5 10l-3 -4l1 1l-9 -6q-23 -13 -46 -27.5t-34 -34.5l-11 -12h-16q-16 3 -24 11t-12 16q-7 17 0 33t15 25l9 8l2 2q13 12 28 24.5t31.5 23t34 17t35.5 6.5q11 0 21 -2t20 -8q4 0 9 -5.5
t10 -13.5q10 -23 31.5 -38.5t46.5 -15.5q11 0 15 1h-1q6 2 10.5 5t10.5 5l12 8l-1 -1q20 12 40.5 22t45.5 10q1 0 1.5 -0.5t1.5 -0.5h5z" />
    <glyph glyph-name="Otilde" unicode="&#xd5;" horiz-adv-x="522" 
d="M481 429q5 -20 6.5 -41.5t1.5 -42.5q0 -102 -44 -196.5t-116 -175.5h-19q-18 0 -35 1.5t-33 12.5q-39 -18 -82 -18q-50 0 -94 25q-33 28 -41.5 62.5t-11.5 70.5l-4 31q17 67 54 124t85.5 106t104 92t109.5 83q51 -17 79.5 -54t39.5 -79v-1zM377 457l-15 -13q-3 7 -10 15z
M353 196q13 -38 8 -63l-35 13l18 29l-1 -1zM387 348q0 26 -6 51t-19 45q-42 -34 -85.5 -71t-79 -79t-58.5 -89.5t-25 -101.5q6 -13 20 -24.5t28 -11.5q10 0 17 4h-1q32 22 55 52.5t25 68.5q2 8 -4 14t-11 8q-13 5 -25.5 13.5t-18.5 34.5l27 23q9 -2 14 -2h10q16 0 32.5 -4.5
t27.5 -18.5q15 -13 25.5 -30t17.5 -34q14 33 24 72.5t10 79.5zM580 732v-52l-11 -9l-32 -20q-29 -19 -64 -37t-73 -18q-43 0 -78 28q-15 7 -24 21t-17 28v1q-5 8 -5 10l-3 -4l1 1l-9 -6q-23 -13 -46 -27.5t-34 -34.5l-11 -12h-16q-16 3 -24 11t-12 16q-7 17 0 33t15 25l9 8
l2 2q13 12 28 24.5t31.5 23t34 17t35.5 6.5q11 0 21 -2t20 -8q4 0 9 -5.5t10 -13.5q10 -23 31.5 -38.5t46.5 -15.5q11 0 15 1h-1q6 2 10.5 5t10.5 5l12 8l-1 -1q20 12 40.5 22t45.5 10q1 0 1.5 -0.5t1.5 -0.5h5z" />
    <glyph glyph-name="Scaron" unicode="&#x160;" horiz-adv-x="394" 
d="M382 533q3 -18 -2.5 -33t-15.5 -28t-22 -23.5t-24 -19.5q-6 -4 -11.5 -8.5t-13.5 -11.5h-37v17q-26 -14 -51 -37.5t-48 -46.5q57 -16 106 -52t78 -90l9 -28v1q5 -14 9.5 -28t4.5 -31q0 -13 -3.5 -26.5t-14.5 -25.5q-34 -36 -76 -56.5t-88 -20.5q-14 0 -27 1t-27 6
q-36 6 -70 28.5t-51 58.5l4 81q29 8 45.5 7t25.5 -8t12 -19t6 -25q2 -13 7.5 -24t24.5 -11q38 2 73.5 11t56.5 38q-4 24 -15 40.5t-27 27.5t-35.5 19t-39.5 16q-26 11 -51.5 23t-53.5 36q-3 34 9 62.5t32.5 52.5t45.5 44t48 36q8 5 18.5 12.5t21.5 18.5q23 20 48 37.5
t54 17.5q31 0 60 -28zM202 678q23 30 51 64t61 63t70.5 49.5t79.5 23.5q30 -14 48.5 -39t18.5 -52q0 -16 -25 -72q-15 35 -25 49t-16 14q-17 0 -36.5 -16t-36.5 -33v1l-15 -14q-30 -15 -47 -42.5t-32 -55.5q-11 -21 -22.5 -40.5t-27 -35t-38 -25.5t-54.5 -12q-19 27 -29 54
t-15.5 55t-6.5 56l-2 56q-1 38 -3.5 76t-16.5 76l19 61q35 -18 54 -41t28.5 -49.5t11.5 -55t3 -57.5q0 -13 -0.5 -19.5t-1 -11t0.5 -10t4 -17.5z" />
    <glyph glyph-name="Ecircumflex" unicode="&#xca;" horiz-adv-x="581" 
d="M556 429q-17 -19 -46 -29.5t-56 -12.5q-20 -1 -38 -3t-38 -4q-23 -3 -46.5 -5.5t-49.5 -2.5q-14 0 -27.5 1t-28.5 4q-16 -72 -35.5 -142t-51.5 -137q35 3 73 8.5t75 10.5q48 8 97.5 14.5t108.5 8.5l46 -46q-13 -4 -30.5 -9t-36.5 -10.5t-36.5 -11t-30.5 -9.5
q-75 -23 -150 -42.5t-150 -19.5q-12 0 -26.5 1t-31.5 3l-40 37q12 37 27.5 79.5t28.5 79.5q26 71 51 146.5t43 172.5q35 -22 64 -30.5t54 -8.5q19 0 41 2.5t43 5.5q20 3 42 5t42 2q29 0 56 -6.5t53 -23.5zM270 272q11 -13 27 -24.5t33 -11.5q13 0 27 1.5t30 2.5q14 2 30 3.5
t30 1.5q4 0 9.5 7t11 15.5t11 15t9.5 5.5q-8 16 -23.5 19.5t-35.5 3.5q-13 0 -25 -1t-26 -2q-14 -2 -28 -2.5t-26 -0.5t-32 3t-30 6zM468 732q3 -13 4 -29.5t2 -33.5q0 -18 1 -35t5.5 -30.5t13 -22.5t24.5 -10q11 -1 18 -7t12 -12q-1 2 3 0t7 -4q-4 -31 -24.5 -60t-51.5 -33
q-22 13 -39.5 33t-31 44t-23.5 50.5t-16 51.5q4 21 1 37.5t-5 33.5q-1 4 -1.5 5l-0.5 1v0.5v5.5q-66 -57 -134 -116.5t-133 -115.5q-17 6 -27.5 15.5t-16 21t-8 24t-4.5 24.5q33 31 72.5 64t74.5 62q60 50 121.5 105t118.5 125q36 -14 49.5 -31t13.5 -36q0 -14 -4 -27.5
t-9 -27.5q-8 -18 -13.5 -36t1.5 -34v-2z" />
    <glyph glyph-name="Egrave" unicode="&#xc8;" horiz-adv-x="581" 
d="M556 429q-17 -19 -46 -29.5t-56 -12.5q-20 -1 -38 -3t-38 -4q-23 -3 -46.5 -5.5t-49.5 -2.5q-14 0 -27.5 1t-28.5 4q-16 -72 -35.5 -142t-51.5 -137q35 3 73 8.5t75 10.5q48 8 97.5 14.5t108.5 8.5l46 -46q-13 -4 -30.5 -9t-36.5 -10.5t-36.5 -11t-30.5 -9.5
q-75 -23 -150 -42.5t-150 -19.5q-12 0 -26.5 1t-31.5 3l-40 37q12 37 27.5 79.5t28.5 79.5q26 71 51 146.5t43 172.5q35 -22 64 -30.5t54 -8.5q19 0 41 2.5t43 5.5q20 3 42 5t42 2q29 0 56 -6.5t53 -23.5zM270 272q11 -13 27 -24.5t33 -11.5q13 0 27 1.5t30 2.5q14 2 30 3.5
t30 1.5q4 0 9.5 7t11 15.5t11 15t9.5 5.5q-8 16 -23.5 19.5t-35.5 3.5q-13 0 -25 -1t-26 -2q-14 -2 -28 -2.5t-26 -0.5t-32 3t-30 6zM497 551q4 -10 1 -23.5t-11 -26t-19.5 -22.5t-24.5 -13q-33 30 -64 51t-62 41q-44 27 -86 57t-80 75l15 50q66 -24 118 -54.5t98 -60.5
q26 -17 53.5 -34t53.5 -31z" />
    <glyph glyph-name="Eacute" unicode="&#xc9;" horiz-adv-x="581" 
d="M556 429q-17 -19 -46 -29.5t-56 -12.5q-20 -1 -38 -3t-38 -4q-23 -3 -46.5 -5.5t-49.5 -2.5q-14 0 -27.5 1t-28.5 4q-16 -72 -35.5 -142t-51.5 -137q35 3 73 8.5t75 10.5q48 8 97.5 14.5t108.5 8.5l46 -46q-13 -4 -30.5 -9t-36.5 -10.5t-36.5 -11t-30.5 -9.5
q-75 -23 -150 -42.5t-150 -19.5q-12 0 -26.5 1t-31.5 3l-40 37q12 37 27.5 79.5t28.5 79.5q26 71 51 146.5t43 172.5q35 -22 64 -30.5t54 -8.5q19 0 41 2.5t43 5.5q20 3 42 5t42 2q29 0 56 -6.5t53 -23.5zM270 272q11 -13 27 -24.5t33 -11.5q13 0 27 1.5t30 2.5q14 2 30 3.5
t30 1.5q4 0 9.5 7t11 15.5t11 15t9.5 5.5q-8 16 -23.5 19.5t-35.5 3.5q-13 0 -25 -1t-26 -2q-14 -2 -28 -2.5t-26 -0.5t-32 3t-30 6zM609 764v-6.5t1 -7.5q1 -8 2 -15.5t-1.5 -14.5t-10 -13t-22.5 -10l-35 17q-39 -20 -72.5 -42t-67.5 -45l-62 -42t-64.5 -39t-69.5 -32
t-77 -21q-17 21 -24 36t-7 26q0 25 21 35t47 16q16 3 30 7t21 15q78 60 164 112.5t183 86.5l40 -48z" />
    <glyph glyph-name="Adieresis" unicode="&#xc4;" horiz-adv-x="631" 
d="M603 332q-14 -22 -28 -35t-28 -21t-28 -12t-28 -7q-10 -2 -19.5 -4.5t-17.5 -5.5l-11 -33q-14 -40 -24.5 -78.5t-10.5 -83.5v-15t1 -15q13 5 25.5 3t23.5 -28q4 -17 -4 -28t-18 -22l-9 -7q-18 -6 -35 -2t-31 14t-23.5 24.5t-13.5 29.5q-3 36 2 70t11 67q5 21 8 42t4 40
l-106 -6q-8 -13 -14.5 -26t-14.5 -27q-23 -46 -52.5 -94t-77.5 -86q-22 5 -40 14t-23 29q-2 20 2.5 37t13 32t20 28t23.5 26q15 15 28 30t18 32l69 114q58 99 122.5 198.5t151.5 200.5q36 -32 50.5 -64t14.5 -64q0 -33 -9.5 -69t-20.5 -72q-9 -29 -17 -57.5t-11 -56.5z
M358 335q14 25 23 59.5t16 71.5l-80 -135q11 1 19.5 2t21.5 2zM454 850q-3 -20 -10 -38.5t-17.5 -33.5t-26 -25t-36.5 -13q-25 0 -47 13t-30 34q-7 17 -7 35q0 31 19 55t39 43l16 15q39 0 69.5 -20.5t30.5 -61.5v-3zM674 819q3 -17 -0.5 -31t-11.5 -25.5t-19 -20.5t-23 -16
q-22 -3 -38.5 3t-29 16.5t-22 25t-17.5 28.5v-1q-5 7 -9 14.5t-9 12.5q-2 13 3.5 27.5t15.5 25.5t22.5 18.5t25.5 7.5q5 0 13.5 -3.5t15.5 -5.5q1 0 3.5 2.5t4.5 10.5q22 -2 36 -8.5t21.5 -16.5t10.5 -22.5t5 -24.5l3 -18z" />
    <glyph glyph-name="adieresis" unicode="&#xe4;" 
d="M383 221q-2 -30 -8 -53.5t-13 -45.5q-6 -20 -11 -37.5t-5 -39.5q0 -5 1.5 -15t3.5 -24q-15 -12 -31.5 -12.5t-30 6.5t-21.5 20t-6 27l5 25q2 13 4.5 25.5t5.5 22.5q-21 5 -40 8.5t-41 8.5q-10 -10 -20.5 -24t-19.5 -28q-11 -17 -22.5 -32.5t-25 -28t-29.5 -20t-36 -7.5
q-8 0 -16.5 2t-17.5 5q-15 11 -20.5 20.5t-4.5 18.5t7 16.5t14 15.5v-1q3 5 6.5 9.5t1.5 15.5q59 47 100 100.5t76 106.5q29 43 63 89.5t81 93.5q24 4 39 -4.5t23.5 -23.5t12 -32.5t4.5 -32.5zM294 220q1 14 2 20.5t1.5 12t2 14t3.5 27.5q-22 -38 -36 -72zM337 604
q-3 -20 -10 -38.5t-17.5 -33.5t-26 -25t-36.5 -13q-25 0 -47 13t-30 34q-7 17 -7 35q0 31 19 55t39 43l16 15q39 0 69.5 -20.5t30.5 -61.5v-3zM557 573q3 -17 -0.5 -31t-11.5 -25.5t-19 -20.5t-23 -16q-22 -3 -38.5 3t-29 16.5t-22 25t-17.5 28.5v-1q-5 7 -9 14.5t-9 12.5
q-2 13 3.5 27.5t15.5 25.5t22.5 18.5t25.5 7.5q5 0 13.5 -3.5t15.5 -5.5q1 0 3.5 2.5t4.5 10.5q22 -2 36 -8.5t21.5 -16.5t10.5 -22.5t5 -24.5l3 -18z" />
    <glyph glyph-name="idieresis" unicode="&#xef;" horiz-adv-x="136" 
d="M125 169q-7 -14 -10 -34.5t-6 -40.5q-3 -24 -7 -47t-14.5 -42t-29.5 -32t-52 -17q-5 25 -6.5 43.5t-1.5 32.5q0 45 9 90t20 90l-1 -1q5 25 11.5 55.5t10.5 54.5q27 5 44 2t27.5 -12t14.5 -22t4 -29t-2.5 -29.5t-4.5 -25.5q-2 -10 -3 -17.5t-1 -11.5zM77 451
q-3 -20 -10 -38.5t-17.5 -33.5t-26 -25t-36.5 -13q-25 0 -47 13t-30 34q-7 17 -7 35q0 31 19 55t39 43l16 15q39 0 69.5 -20.5t30.5 -61.5v-3zM297 420q3 -17 -0.5 -31t-11.5 -25.5t-19 -20.5t-23 -16q-22 -3 -38.5 3t-29 16.5t-22 25t-17.5 28.5v-1q-5 7 -9 14.5t-9 12.5
q-2 13 3.5 27.5t15.5 25.5t22.5 18.5t25.5 7.5q5 0 13.5 -3.5t15.5 -5.5q1 0 3.5 2.5t4.5 10.5q22 -2 36 -8.5t21.5 -16.5t10.5 -22.5t5 -24.5l3 -18z" />
    <glyph glyph-name="icircumflex" unicode="&#xee;" horiz-adv-x="136" 
d="M125 169q-7 -14 -10 -34.5t-6 -40.5q-3 -24 -7 -47t-14.5 -42t-29.5 -32t-52 -17q-5 25 -6.5 43.5t-1.5 32.5q0 45 9 90t20 90l-1 -1q5 25 11.5 55.5t10.5 54.5q27 5 44 2t27.5 -12t14.5 -22t4 -29t-2.5 -29.5t-4.5 -25.5q-2 -10 -3 -17.5t-1 -11.5zM237 623
q3 -13 4 -29.5t2 -33.5q0 -18 1 -35t5.5 -30.5t13 -22.5t24.5 -10q11 -1 18 -7t12 -12q-1 2 3 0t7 -4q-4 -31 -24.5 -60t-51.5 -33q-22 13 -39.5 33t-31 44t-23.5 50.5t-16 51.5q4 21 1 37.5t-5 33.5q-1 4 -1.5 5l-0.5 1v0.5v5.5q-66 -57 -134 -116.5t-133 -115.5
q-17 6 -27.5 15.5t-16 21t-8 24t-4.5 24.5q33 31 72.5 64t74.5 62q60 50 121.5 105t118.5 125q36 -14 49.5 -31t13.5 -36q0 -14 -4 -27.5t-9 -27.5q-8 -18 -13.5 -36t1.5 -34v-2z" />
    <glyph glyph-name="iacute" unicode="&#xed;" horiz-adv-x="136" 
d="M125 169q-7 -14 -10 -34.5t-6 -40.5q-3 -24 -7 -47t-14.5 -42t-29.5 -32t-52 -17q-5 25 -6.5 43.5t-1.5 32.5q0 45 9 90t20 90l-1 -1q5 25 11.5 55.5t10.5 54.5q27 5 44 2t27.5 -12t14.5 -22t4 -29t-2.5 -29.5t-4.5 -25.5q-2 -10 -3 -17.5t-1 -11.5zM350 591v-6.5t1 -7.5
q1 -8 2 -15.5t-1.5 -14.5t-10 -13t-22.5 -10l-35 17q-39 -20 -72.5 -42t-67.5 -45l-62 -42t-64.5 -39t-69.5 -32t-77 -21q-17 21 -24 36t-7 26q0 25 21 35t47 16q16 3 30 7t21 15q78 60 164 112.5t183 86.5l40 -48z" />
    <glyph glyph-name="igrave" unicode="&#xec;" horiz-adv-x="136" 
d="M125 169q-7 -14 -10 -34.5t-6 -40.5q-3 -24 -7 -47t-14.5 -42t-29.5 -32t-52 -17q-5 25 -6.5 43.5t-1.5 32.5q0 45 9 90t20 90l-1 -1q5 25 11.5 55.5t10.5 54.5q27 5 44 2t27.5 -12t14.5 -22t4 -29t-2.5 -29.5t-4.5 -25.5q-2 -10 -3 -17.5t-1 -11.5zM237 433
q4 -10 1 -23.5t-11 -26t-19.5 -22.5t-24.5 -13q-33 30 -64 51t-62 41q-44 27 -86 57t-80 75l15 50q66 -24 118 -54.5t98 -60.5q26 -17 53.5 -34t53.5 -31z" />
    <glyph glyph-name="odieresis" unicode="&#xf6;" horiz-adv-x="447" 
d="M408 313q9 -23 14 -45t5 -44q0 -30 -7.5 -60t-20 -58t-28.5 -54.5t-32 -50.5q-27 -35 -63.5 -47t-76.5 -12q-19 0 -36.5 1.5t-34.5 3.5q-23 10 -42 26.5t-33 36t-24 41.5t-16 43q3 52 23 102t52 92.5t74.5 75.5t90.5 50q25 2 48 -5.5t43 -22t36.5 -33t27.5 -39.5v-1z
M336 247q-16 43 -40 53.5t-50.5 -0.5t-52 -38.5t-44.5 -60.5t-27.5 -67t-1.5 -58q9 -19 27.5 -29t40.5 -10q17 0 30 4l9 8q24 21 45 41.5t36 44t23 50.5t5 62zM241 536q-3 -20 -10 -38.5t-17.5 -33.5t-26 -25t-36.5 -13q-25 0 -47 13t-30 34q-7 17 -7 35q0 31 19 55t39 43
l16 15q39 0 69.5 -20.5t30.5 -61.5v-3zM461 505q3 -17 -0.5 -31t-11.5 -25.5t-19 -20.5t-23 -16q-22 -3 -38.5 3t-29 16.5t-22 25t-17.5 28.5v-1q-5 7 -9 14.5t-9 12.5q-2 13 3.5 27.5t15.5 25.5t22.5 18.5t25.5 7.5q5 0 13.5 -3.5t15.5 -5.5q1 0 3.5 2.5t4.5 10.5
q22 -2 36 -8.5t21.5 -16.5t10.5 -22.5t5 -24.5l3 -18z" />
    <glyph glyph-name="ocircumflex" unicode="&#xf4;" horiz-adv-x="447" 
d="M408 313q9 -23 14 -45t5 -44q0 -30 -7.5 -60t-20 -58t-28.5 -54.5t-32 -50.5q-27 -35 -63.5 -47t-76.5 -12q-19 0 -36.5 1.5t-34.5 3.5q-23 10 -42 26.5t-33 36t-24 41.5t-16 43q3 52 23 102t52 92.5t74.5 75.5t90.5 50q25 2 48 -5.5t43 -22t36.5 -33t27.5 -39.5v-1z
M336 247q-16 43 -40 53.5t-50.5 -0.5t-52 -38.5t-44.5 -60.5t-27.5 -67t-1.5 -58q9 -19 27.5 -29t40.5 -10q17 0 30 4l9 8q24 21 45 41.5t36 44t23 50.5t5 62zM449 626q3 -13 4 -29.5t2 -33.5q0 -18 1 -35t5.5 -30.5t13 -22.5t24.5 -10q11 -1 18 -7t12 -12q-1 2 3 0t7 -4
q-4 -31 -24.5 -60t-51.5 -33q-22 13 -39.5 33t-31 44t-23.5 50.5t-16 51.5q4 21 1 37.5t-5 33.5q-1 4 -1.5 5l-0.5 1v0.5v5.5q-66 -57 -134 -116.5t-133 -115.5q-17 6 -27.5 15.5t-16 21t-8 24t-4.5 24.5q33 31 72.5 64t74.5 62q60 50 121.5 105t118.5 125q36 -14 49.5 -31
t13.5 -36q0 -14 -4 -27.5t-9 -27.5q-8 -18 -13.5 -36t1.5 -34v-2z" />
    <glyph glyph-name="oacute" unicode="&#xf3;" horiz-adv-x="447" 
d="M408 313q9 -23 14 -45t5 -44q0 -30 -7.5 -60t-20 -58t-28.5 -54.5t-32 -50.5q-27 -35 -63.5 -47t-76.5 -12q-19 0 -36.5 1.5t-34.5 3.5q-23 10 -42 26.5t-33 36t-24 41.5t-16 43q3 52 23 102t52 92.5t74.5 75.5t90.5 50q25 2 48 -5.5t43 -22t36.5 -33t27.5 -39.5v-1z
M336 247q-16 43 -40 53.5t-50.5 -0.5t-52 -38.5t-44.5 -60.5t-27.5 -67t-1.5 -58q9 -19 27.5 -29t40.5 -10q17 0 30 4l9 8q24 21 45 41.5t36 44t23 50.5t5 62zM522 674v-6.5t1 -7.5q1 -8 2 -15.5t-1.5 -14.5t-10 -13t-22.5 -10l-35 17q-39 -20 -72.5 -42t-67.5 -45l-62 -42
t-64.5 -39t-69.5 -32t-77 -21q-17 21 -24 36t-7 26q0 25 21 35t47 16q16 3 30 7t21 15q78 60 164 112.5t183 86.5l40 -48z" />
    <glyph glyph-name="ograve" unicode="&#xf2;" horiz-adv-x="447" 
d="M408 313q9 -23 14 -45t5 -44q0 -30 -7.5 -60t-20 -58t-28.5 -54.5t-32 -50.5q-27 -35 -63.5 -47t-76.5 -12q-19 0 -36.5 1.5t-34.5 3.5q-23 10 -42 26.5t-33 36t-24 41.5t-16 43q3 52 23 102t52 92.5t74.5 75.5t90.5 50q25 2 48 -5.5t43 -22t36.5 -33t27.5 -39.5v-1z
M336 247q-16 43 -40 53.5t-50.5 -0.5t-52 -38.5t-44.5 -60.5t-27.5 -67t-1.5 -58q9 -19 27.5 -29t40.5 -10q17 0 30 4l9 8q24 21 45 41.5t36 44t23 50.5t5 62zM430 493q4 -10 1 -23.5t-11 -26t-19.5 -22.5t-24.5 -13q-33 30 -64 51t-62 41q-44 27 -86 57t-80 75l15 50
q66 -24 118 -54.5t98 -60.5q26 -17 53.5 -34t53.5 -31z" />
    <glyph glyph-name="ntilde" unicode="&#xf1;" horiz-adv-x="437" 
d="M494 342q5 -14 1 -21.5t-10 -13.5l-9 -17q-12 6 -17.5 8t-8.5 2.5t-3.5 1.5t-1.5 4q-17 -26 -29.5 -57t-23.5 -62q-12 -30 -24.5 -61t-30.5 -59.5t-42.5 -53.5t-58.5 -44q-25 16 -39.5 35t-22 40t-10.5 43.5t-4 45.5q-1 10 -0.5 14.5t0.5 6t-0.5 2t-1.5 2.5l-13 -36
q-8 -23 -17 -46t-22 -44t-31.5 -39.5t-45.5 -31.5l-40 52q44 87 82 176t61 194h21q11 0 23 -0.5t22 -4t17.5 -11.5t9.5 -24q9 -32 11.5 -65t4.5 -65q2 -27 4 -53.5t7 -52.5q21 31 34 66t26 71q15 43 34 85t53 84q20 0 35 -6.5t26.5 -17t19.5 -22.5t14 -24v-1zM521 588v-52
l-11 -9l-32 -20q-29 -19 -64 -37t-73 -18q-43 0 -78 28q-15 7 -24 21t-17 28v1q-5 8 -5 10l-3 -4l1 1l-9 -6q-23 -13 -46 -27.5t-34 -34.5l-11 -12h-16q-16 3 -24 11t-12 16q-7 17 0 33t15 25l9 8l2 2q13 12 28 24.5t31.5 23t34 17t35.5 6.5q11 0 21 -2t20 -8q4 0 9 -5.5
t10 -13.5q10 -23 31.5 -38.5t46.5 -15.5q11 0 15 1h-1q6 2 10.5 5t10.5 5l12 8l-1 -1q20 12 40.5 22t45.5 10q1 0 1.5 -0.5t1.5 -0.5h5z" />
    <glyph glyph-name="ugrave" unicode="&#xf9;" horiz-adv-x="435" 
d="M186 326q-30 -57 -47.5 -120.5t-23.5 -133.5q7 -3 21.5 5t25.5 17l-1 -1l4 4t5 4q46 34 71 77t46 90q14 32 31.5 66t48.5 72q8 -4 12 -5t7 -2q13 -4 26 -9.5t27 -24.5q-11 -38 -23.5 -66.5t-24.5 -55.5q-23 -54 -42.5 -106.5t-19.5 -111.5v-10t1 -10l45 -37
q-16 -20 -31 -28t-29 -8q-12 0 -22.5 3t-18.5 6q-20 17 -35.5 34.5t-18.5 43.5q-5 -2 -8 -5t-8 -6q-20 -13 -41 -23.5t-46 -10.5q-20 0 -45 12q-31 24 -43.5 53.5t-12.5 62.5q0 38 12 76.5t25 75.5q8 20 14.5 38t9.5 31q-6 36 14 53.5t46 17.5q24 0 41.5 -16.5t8.5 -48.5z
M423 487q4 -10 1 -23.5t-11 -26t-19.5 -22.5t-24.5 -13q-33 30 -64 51t-62 41q-44 27 -86 57t-80 75l15 50q66 -24 118 -54.5t98 -60.5q26 -17 53.5 -34t53.5 -31z" />
    <glyph glyph-name="uacute" unicode="&#xfa;" horiz-adv-x="435" 
d="M186 326q-30 -57 -47.5 -120.5t-23.5 -133.5q7 -3 21.5 5t25.5 17l-1 -1l4 4t5 4q46 34 71 77t46 90q14 32 31.5 66t48.5 72q8 -4 12 -5t7 -2q13 -4 26 -9.5t27 -24.5q-11 -38 -23.5 -66.5t-24.5 -55.5q-23 -54 -42.5 -106.5t-19.5 -111.5v-10t1 -10l45 -37
q-16 -20 -31 -28t-29 -8q-12 0 -22.5 3t-18.5 6q-20 17 -35.5 34.5t-18.5 43.5q-5 -2 -8 -5t-8 -6q-20 -13 -41 -23.5t-46 -10.5q-20 0 -45 12q-31 24 -43.5 53.5t-12.5 62.5q0 38 12 76.5t25 75.5q8 20 14.5 38t9.5 31q-6 36 14 53.5t46 17.5q24 0 41.5 -16.5t8.5 -48.5z
M525 674v-6.5t1 -7.5q1 -8 2 -15.5t-1.5 -14.5t-10 -13t-22.5 -10l-35 17q-39 -20 -72.5 -42t-67.5 -45l-62 -42t-64.5 -39t-69.5 -32t-77 -21q-17 21 -24 36t-7 26q0 25 21 35t47 16q16 3 30 7t21 15q78 60 164 112.5t183 86.5l40 -48z" />
    <glyph glyph-name="ucircumflex" unicode="&#xfb;" horiz-adv-x="435" 
d="M186 326q-30 -57 -47.5 -120.5t-23.5 -133.5q7 -3 21.5 5t25.5 17l-1 -1l4 4t5 4q46 34 71 77t46 90q14 32 31.5 66t48.5 72q8 -4 12 -5t7 -2q13 -4 26 -9.5t27 -24.5q-11 -38 -23.5 -66.5t-24.5 -55.5q-23 -54 -42.5 -106.5t-19.5 -111.5v-10t1 -10l45 -37
q-16 -20 -31 -28t-29 -8q-12 0 -22.5 3t-18.5 6q-20 17 -35.5 34.5t-18.5 43.5q-5 -2 -8 -5t-8 -6q-20 -13 -41 -23.5t-46 -10.5q-20 0 -45 12q-31 24 -43.5 53.5t-12.5 62.5q0 38 12 76.5t25 75.5q8 20 14.5 38t9.5 31q-6 36 14 53.5t46 17.5q24 0 41.5 -16.5t8.5 -48.5z
M399 670q3 -13 4 -29.5t2 -33.5q0 -18 1 -35t5.5 -30.5t13 -22.5t24.5 -10q11 -1 18 -7t12 -12q-1 2 3 0t7 -4q-4 -31 -24.5 -60t-51.5 -33q-22 13 -39.5 33t-31 44t-23.5 50.5t-16 51.5q4 21 1 37.5t-5 33.5q-1 4 -1.5 5l-0.5 1v0.5v5.5q-66 -57 -134 -116.5t-133 -115.5
q-17 6 -27.5 15.5t-16 21t-8 24t-4.5 24.5q33 31 72.5 64t74.5 62q60 50 121.5 105t118.5 125q36 -14 49.5 -31t13.5 -36q0 -14 -4 -27.5t-9 -27.5q-8 -18 -13.5 -36t1.5 -34v-2z" />
    <glyph glyph-name="udieresis" unicode="&#xfc;" horiz-adv-x="435" 
d="M186 326q-30 -57 -47.5 -120.5t-23.5 -133.5q7 -3 21.5 5t25.5 17l-1 -1l4 4t5 4q46 34 71 77t46 90q14 32 31.5 66t48.5 72q8 -4 12 -5t7 -2q13 -4 26 -9.5t27 -24.5q-11 -38 -23.5 -66.5t-24.5 -55.5q-23 -54 -42.5 -106.5t-19.5 -111.5v-10t1 -10l45 -37
q-16 -20 -31 -28t-29 -8q-12 0 -22.5 3t-18.5 6q-20 17 -35.5 34.5t-18.5 43.5q-5 -2 -8 -5t-8 -6q-20 -13 -41 -23.5t-46 -10.5q-20 0 -45 12q-31 24 -43.5 53.5t-12.5 62.5q0 38 12 76.5t25 75.5q8 20 14.5 38t9.5 31q-6 36 14 53.5t46 17.5q24 0 41.5 -16.5t8.5 -48.5z
M191 647q-3 -20 -10 -38.5t-17.5 -33.5t-26 -25t-36.5 -13q-25 0 -47 13t-30 34q-7 17 -7 35q0 31 19 55t39 43l16 15q39 0 69.5 -20.5t30.5 -61.5v-3zM411 616q3 -17 -0.5 -31t-11.5 -25.5t-19 -20.5t-23 -16q-22 -3 -38.5 3t-29 16.5t-22 25t-17.5 28.5v-1q-5 7 -9 14.5
t-9 12.5q-2 13 3.5 27.5t15.5 25.5t22.5 18.5t25.5 7.5q5 0 13.5 -3.5t15.5 -5.5q1 0 3.5 2.5t4.5 10.5q22 -2 36 -8.5t21.5 -16.5t10.5 -22.5t5 -24.5l3 -18z" />
    <glyph glyph-name="yacute" unicode="&#xfd;" horiz-adv-x="367" 
d="M340 413q-18 -34 -38.5 -68.5t-40.5 -66.5v1q-40 -66 -77 -132t-60 -139l1 2q-1 -3 2 -7t6 -9q6 -9 10.5 -18t3.5 -16.5t-10 -14t-30 -10.5q-27 0 -47.5 14t-31.5 34q4 55 23 103.5t39 90.5l12 24t12 26q-31 22 -51.5 52t-33.5 64.5t-20.5 70.5t-12.5 70q35 4 56 -2.5
t34 -20t19.5 -32t12.5 -38.5q5 -21 14.5 -41t25.5 -28l114 176q19 2 36.5 -4t28 -18t12 -29t-9.5 -35zM459 786v-6.5t1 -7.5q1 -8 2 -15.5t-1.5 -14.5t-10 -13t-22.5 -10l-35 17q-39 -20 -72.5 -42t-67.5 -45l-62 -42t-64.5 -39t-69.5 -32t-77 -21q-17 21 -24 36t-7 26
q0 25 21 35t47 16q16 3 30 7t21 15q78 60 164 112.5t183 86.5l40 -48z" />
    <glyph glyph-name="ydieresis" unicode="&#xff;" horiz-adv-x="367" 
d="M340 413q-18 -34 -38.5 -68.5t-40.5 -66.5v1q-40 -66 -77 -132t-60 -139l1 2q-1 -3 2 -7t6 -9q6 -9 10.5 -18t3.5 -16.5t-10 -14t-30 -10.5q-27 0 -47.5 14t-31.5 34q4 55 23 103.5t39 90.5l12 24t12 26q-31 22 -51.5 52t-33.5 64.5t-20.5 70.5t-12.5 70q35 4 56 -2.5
t34 -20t19.5 -32t12.5 -38.5q5 -21 14.5 -41t25.5 -28l114 176q19 2 36.5 -4t28 -18t12 -29t-9.5 -35zM157 647q-3 -20 -10 -38.5t-17.5 -33.5t-26 -25t-36.5 -13q-25 0 -47 13t-30 34q-7 17 -7 35q0 31 19 55t39 43l16 15q39 0 69.5 -20.5t30.5 -61.5v-3zM377 616
q3 -17 -0.5 -31t-11.5 -25.5t-19 -20.5t-23 -16q-22 -3 -38.5 3t-29 16.5t-22 25t-17.5 28.5v-1q-5 7 -9 14.5t-9 12.5q-2 13 3.5 27.5t15.5 25.5t22.5 18.5t25.5 7.5q5 0 13.5 -3.5t15.5 -5.5q1 0 3.5 2.5t4.5 10.5q22 -2 36 -8.5t21.5 -16.5t10.5 -22.5t5 -24.5l3 -18z
" />
    <glyph glyph-name="Ocircumflex" unicode="&#xd4;" horiz-adv-x="522" 
d="M481 429q5 -20 6.5 -41.5t1.5 -42.5q0 -102 -44 -196.5t-116 -175.5h-19q-18 0 -35 1.5t-33 12.5q-39 -18 -82 -18q-50 0 -94 25q-33 28 -41.5 62.5t-11.5 70.5l-4 31q17 67 54 124t85.5 106t104 92t109.5 83q51 -17 79.5 -54t39.5 -79v-1zM377 457l-15 -13q-3 7 -10 15z
M353 196q13 -38 8 -63l-35 13l18 29l-1 -1zM387 348q0 26 -6 51t-19 45q-42 -34 -85.5 -71t-79 -79t-58.5 -89.5t-25 -101.5q6 -13 20 -24.5t28 -11.5q10 0 17 4h-1q32 22 55 52.5t25 68.5q2 8 -4 14t-11 8q-13 5 -25.5 13.5t-18.5 34.5l27 23q9 -2 14 -2h10q16 0 32.5 -4.5
t27.5 -18.5q15 -13 25.5 -30t17.5 -34q14 33 24 72.5t10 79.5zM468 819q3 -13 4 -29.5t2 -33.5q0 -18 1 -35t5.5 -30.5t13 -22.5t24.5 -10q11 -1 18 -7t12 -12q-1 2 3 0t7 -4q-4 -31 -24.5 -60t-51.5 -33q-22 13 -39.5 33t-31 44t-23.5 50.5t-16 51.5q4 21 1 37.5t-5 33.5
q-1 4 -1.5 5l-0.5 1v0.5v5.5q-66 -57 -134 -116.5t-133 -115.5q-17 6 -27.5 15.5t-16 21t-8 24t-4.5 24.5q33 31 72.5 64t74.5 62q60 50 121.5 105t118.5 125q36 -14 49.5 -31t13.5 -36q0 -14 -4 -27.5t-9 -27.5q-8 -18 -13.5 -36t1.5 -34v-2z" />
    <glyph glyph-name="Oacute" unicode="&#xd3;" horiz-adv-x="522" 
d="M481 429q5 -20 6.5 -41.5t1.5 -42.5q0 -102 -44 -196.5t-116 -175.5h-19q-18 0 -35 1.5t-33 12.5q-39 -18 -82 -18q-50 0 -94 25q-33 28 -41.5 62.5t-11.5 70.5l-4 31q17 67 54 124t85.5 106t104 92t109.5 83q51 -17 79.5 -54t39.5 -79v-1zM377 457l-15 -13q-3 7 -10 15z
M353 196q13 -38 8 -63l-35 13l18 29l-1 -1zM387 348q0 26 -6 51t-19 45q-42 -34 -85.5 -71t-79 -79t-58.5 -89.5t-25 -101.5q6 -13 20 -24.5t28 -11.5q10 0 17 4h-1q32 22 55 52.5t25 68.5q2 8 -4 14t-11 8q-13 5 -25.5 13.5t-18.5 34.5l27 23q9 -2 14 -2h10q16 0 32.5 -4.5
t27.5 -18.5q15 -13 25.5 -30t17.5 -34q14 33 24 72.5t10 79.5zM565 783v-6.5t1 -7.5q1 -8 2 -15.5t-1.5 -14.5t-10 -13t-22.5 -10l-35 17q-39 -20 -72.5 -42t-67.5 -45l-62 -42t-64.5 -39t-69.5 -32t-77 -21q-17 21 -24 36t-7 26q0 25 21 35t47 16q16 3 30 7t21 15
q78 60 164 112.5t183 86.5l40 -48z" />
    <glyph glyph-name="Ograve" unicode="&#xd2;" horiz-adv-x="522" 
d="M481 429q5 -20 6.5 -41.5t1.5 -42.5q0 -102 -44 -196.5t-116 -175.5h-19q-18 0 -35 1.5t-33 12.5q-39 -18 -82 -18q-50 0 -94 25q-33 28 -41.5 62.5t-11.5 70.5l-4 31q17 67 54 124t85.5 106t104 92t109.5 83q51 -17 79.5 -54t39.5 -79v-1zM377 457l-15 -13q-3 7 -10 15z
M353 196q13 -38 8 -63l-35 13l18 29l-1 -1zM387 348q0 26 -6 51t-19 45q-42 -34 -85.5 -71t-79 -79t-58.5 -89.5t-25 -101.5q6 -13 20 -24.5t28 -11.5q10 0 17 4h-1q32 22 55 52.5t25 68.5q2 8 -4 14t-11 8q-13 5 -25.5 13.5t-18.5 34.5l27 23q9 -2 14 -2h10q16 0 32.5 -4.5
t27.5 -18.5q15 -13 25.5 -30t17.5 -34q14 33 24 72.5t10 79.5zM483 612q4 -10 1 -23.5t-11 -26t-19.5 -22.5t-24.5 -13q-33 30 -64 51t-62 41q-44 27 -86 57t-80 75l15 50q66 -24 118 -54.5t98 -60.5q26 -17 53.5 -34t53.5 -31z" />
    <glyph glyph-name="Idieresis" unicode="&#xcf;" horiz-adv-x="276" 
d="M132 67q12 -8 26 -16.5t23 -14.5q-5 -24 -14.5 -37t-22.5 -18t-27 -5h-26h-18q-23 25 -35.5 55t-12.5 60q0 20 6 43q11 34 22.5 67.5t22.5 65.5q24 66 45.5 133t26.5 144q12 22 26.5 24.5t27.5 -5.5t24 -22t17 -24l-32 -180zM165 710q-3 -20 -10 -38.5t-17.5 -33.5
t-26 -25t-36.5 -13q-25 0 -47 13t-30 34q-7 17 -7 35q0 31 19 55t39 43l16 15q39 0 69.5 -20.5t30.5 -61.5v-3zM385 679q3 -17 -0.5 -31t-11.5 -25.5t-19 -20.5t-23 -16q-22 -3 -38.5 3t-29 16.5t-22 25t-17.5 28.5v-1q-5 7 -9 14.5t-9 12.5q-2 13 3.5 27.5t15.5 25.5
t22.5 18.5t25.5 7.5q5 0 13.5 -3.5t15.5 -5.5q1 0 3.5 2.5t4.5 10.5q22 -2 36 -8.5t21.5 -16.5t10.5 -22.5t5 -24.5l3 -18z" />
    <glyph glyph-name="Icircumflex" unicode="&#xce;" horiz-adv-x="276" 
d="M132 67q12 -8 26 -16.5t23 -14.5q-5 -24 -14.5 -37t-22.5 -18t-27 -5h-26h-18q-23 25 -35.5 55t-12.5 60q0 20 6 43q11 34 22.5 67.5t22.5 65.5q24 66 45.5 133t26.5 144q12 22 26.5 24.5t27.5 -5.5t24 -22t17 -24l-32 -180zM349 801q3 -13 4 -29.5t2 -33.5q0 -18 1 -35
t5.5 -30.5t13 -22.5t24.5 -10q11 -1 18 -7t12 -12q-1 2 3 0t7 -4q-4 -31 -24.5 -60t-51.5 -33q-22 13 -39.5 33t-31 44t-23.5 50.5t-16 51.5q4 21 1 37.5t-5 33.5q-1 4 -1.5 5l-0.5 1v0.5v5.5q-66 -57 -134 -116.5t-133 -115.5q-17 6 -27.5 15.5t-16 21t-8 24t-4.5 24.5
q33 31 72.5 64t74.5 62q60 50 121.5 105t118.5 125q36 -14 49.5 -31t13.5 -36q0 -14 -4 -27.5t-9 -27.5q-8 -18 -13.5 -36t1.5 -34v-2z" />
    <glyph glyph-name="Iacute" unicode="&#xcd;" horiz-adv-x="276" 
d="M132 67q12 -8 26 -16.5t23 -14.5q-5 -24 -14.5 -37t-22.5 -18t-27 -5h-26h-18q-23 25 -35.5 55t-12.5 60q0 20 6 43q11 34 22.5 67.5t22.5 65.5q24 66 45.5 133t26.5 144q12 22 26.5 24.5t27.5 -5.5t24 -22t17 -24l-32 -180zM442 831v-6.5t1 -7.5q1 -8 2 -15.5
t-1.5 -14.5t-10 -13t-22.5 -10l-35 17q-39 -20 -72.5 -42t-67.5 -45l-62 -42t-64.5 -39t-69.5 -32t-77 -21q-17 21 -24 36t-7 26q0 25 21 35t47 16q16 3 30 7t21 15q78 60 164 112.5t183 86.5l40 -48z" />
    <glyph glyph-name="Igrave" unicode="&#xcc;" horiz-adv-x="276" 
d="M132 67q12 -8 26 -16.5t23 -14.5q-5 -24 -14.5 -37t-22.5 -18t-27 -5h-26h-18q-23 25 -35.5 55t-12.5 60q0 20 6 43q11 34 22.5 67.5t22.5 65.5q24 66 45.5 133t26.5 144q12 22 26.5 24.5t27.5 -5.5t24 -22t17 -24l-32 -180zM344 622q4 -10 1 -23.5t-11 -26t-19.5 -22.5
t-24.5 -13q-33 30 -64 51t-62 41q-44 27 -86 57t-80 75l15 50q66 -24 118 -54.5t98 -60.5q26 -17 53.5 -34t53.5 -31z" />
    <glyph glyph-name="Odieresis" unicode="&#xd6;" horiz-adv-x="522" 
d="M481 429q5 -20 6.5 -41.5t1.5 -42.5q0 -102 -44 -196.5t-116 -175.5h-19q-18 0 -35 1.5t-33 12.5q-39 -18 -82 -18q-50 0 -94 25q-33 28 -41.5 62.5t-11.5 70.5l-4 31q17 67 54 124t85.5 106t104 92t109.5 83q51 -17 79.5 -54t39.5 -79v-1zM377 457l-15 -13q-3 7 -10 15z
M353 196q13 -38 8 -63l-35 13l18 29l-1 -1zM387 348q0 26 -6 51t-19 45q-42 -34 -85.5 -71t-79 -79t-58.5 -89.5t-25 -101.5q6 -13 20 -24.5t28 -11.5q10 0 17 4h-1q32 22 55 52.5t25 68.5q2 8 -4 14t-11 8q-13 5 -25.5 13.5t-18.5 34.5l27 23q9 -2 14 -2h10q16 0 32.5 -4.5
t27.5 -18.5q15 -13 25.5 -30t17.5 -34q14 33 24 72.5t10 79.5zM319 702q-3 -20 -10 -38.5t-17.5 -33.5t-26 -25t-36.5 -13q-25 0 -47 13t-30 34q-7 17 -7 35q0 31 19 55t39 43l16 15q39 0 69.5 -20.5t30.5 -61.5v-3zM539 671q3 -17 -0.5 -31t-11.5 -25.5t-19 -20.5t-23 -16
q-22 -3 -38.5 3t-29 16.5t-22 25t-17.5 28.5v-1q-5 7 -9 14.5t-9 12.5q-2 13 3.5 27.5t15.5 25.5t22.5 18.5t25.5 7.5q5 0 13.5 -3.5t15.5 -5.5q1 0 3.5 2.5t4.5 10.5q22 -2 36 -8.5t21.5 -16.5t10.5 -22.5t5 -24.5l3 -18z" />
    <glyph glyph-name="Zcaron" unicode="&#x17d;" horiz-adv-x="720" 
d="M540 537q-2 -68 -28 -124t-66.5 -104t-90.5 -89t-99 -80q-11 -9 -16.5 -13t-10.5 -7t-10.5 -7.5t-16.5 -14.5q27 2 54 5t56 6q59 6 119 11t120 5q82 0 171 -19.5t192 -73.5q-42 -5 -68 -7.5t-39 -2.5q-26 0 -52.5 2t-52.5 5q-27 3 -53 5.5t-52 2.5q-23 0 -47.5 -2.5
t-47.5 -10.5q-118 -2 -237.5 -21.5t-229.5 -40.5l-67 -14q-14 20 -19.5 40t-5.5 40q21 15 46.5 33t48.5 33q54 36 109 74.5t106 82t95 92t75 104.5q-20 -5 -40.5 -13t-39.5 -15q-21 -8 -46 -17t-51.5 -15.5t-53.5 -9t-54 0.5q-16 17 -23.5 37t-3.5 45q15 10 29.5 11.5
t29.5 1.5q11 0 22 0.5t20 4.5q38 9 72.5 23t66.5 29q34 14 71 28.5t79 25.5l33 -33zM391 714q23 30 51 64t61 63t70.5 49.5t79.5 23.5q30 -14 48.5 -39t18.5 -52q0 -16 -25 -72q-15 35 -25 49t-16 14q-17 0 -36.5 -16t-36.5 -33v1l-15 -14q-30 -15 -47 -42.5t-32 -55.5
q-11 -21 -22.5 -40.5t-27 -35t-38 -25.5t-54.5 -12q-19 27 -29 54t-15.5 55t-6.5 56l-2 56q-1 38 -3.5 76t-16.5 76l19 61q35 -18 54 -41t28.5 -49.5t11.5 -55t3 -57.5q0 -13 -0.5 -19.5t-1 -11t0.5 -10t4 -17.5z" />
    <glyph glyph-name="zcaron" unicode="&#x17e;" horiz-adv-x="493" 
d="M427 426q-8 -48 -31 -91t-56 -82t-72 -72.5t-78 -61.5l47 2q32 2 64 3.5t64 1.5q63 0 124 -9.5t117 -35.5v-50q-36 4 -67 6t-58 2q-78 0 -156 -9.5t-156 -20.5q-39 -5 -84.5 -10.5t-84.5 -9.5q-5 8 -7.5 11.5t-4.5 5.5q-11 12 -20.5 28t-3.5 45q22 17 49 36.5t52 36.5
q33 23 65.5 46.5t62.5 49.5t56 54.5t45 62.5l-11 -5q-32 -15 -69.5 -27t-80.5 -5l-41 71q69 13 116.5 34.5t91.5 45.5l58 29q29 -7 49 -28.5t20 -50.5v-3zM283 650q23 30 51 64t61 63t70.5 49.5t79.5 23.5q30 -14 48.5 -39t18.5 -52q0 -16 -25 -72q-15 35 -25 49t-16 14
q-17 0 -36.5 -16t-36.5 -33v1l-15 -14q-30 -15 -47 -42.5t-32 -55.5q-11 -21 -22.5 -40.5t-27 -35t-38 -25.5t-54.5 -12q-19 27 -29 54t-15.5 55t-6.5 56l-2 56q-1 38 -3.5 76t-16.5 76l19 61q35 -18 54 -41t28.5 -49.5t11.5 -55t3 -57.5q0 -13 -0.5 -19.5t-1 -11t0.5 -10
t4 -17.5z" />
    <glyph glyph-name="dagger" unicode="&#x2020;" horiz-adv-x="921" 
d="M361 -78q-26 0 -50 6t-41 11v1h-1q-123 72 -190 156q-90 114 -66 238q5 99 59 181q47 71 135 129q39 26 83 48t88 40t88 33.5t83 28.5l12 4h1q3 0 5.5 0.5t5.5 0.5q94 0 178 -49q89 -50 136 -139v-1v-1q17 -51 23.5 -107t1.5 -113q-5 -60 -22 -112t-46 -94v-1
q-86 -100 -175 -154q-100 -61 -211 -63q-31 -43 -97 -43zM101 243q9 -33 28.5 -63t44 -56.5t52.5 -49.5t54 -41q31 -23 61 -23h2l-1 1q-38 50 -54.5 112t-11.5 134q5 64 25.5 127t55.5 117v1v1q5 5 10 11.5t10 13.5q15 22 34 42.5t48 22.5q4 1 8 1h8q40 0 74 -22.5t56 -63.5
l1 -1v-1q15 -49 -13 -103q-19 -39 -65 -85q-19 -19 -41.5 -29t-44.5 -10q-5 0 -9.5 0.5t-9.5 1.5l-2 1l-1 1v-35t1 -37q2 -48 1 -95.5t-11 -85.5q4 2 7 3t7 3q22 11 44.5 19.5t47.5 8.5q5 0 11 -0.5t11 -1.5q45 19 91.5 47.5t85.5 66.5t66.5 84.5t35.5 100.5h1q7 31 11.5 68
t1.5 73t-16 68t-43 55h-1v1q-80 79 -182 79q-51 0 -102 -17.5t-100.5 -45t-96.5 -60.5t-89 -64l-24 -18q-25 -27 -40 -57.5t-23 -63.5t-11 -67.5t-3 -68.5zM358 12q13 1 30 8l-17 10zM435 449q-3 -5 -5.5 -10t-4.5 -10q-11 -23 -18 -42t1 -42l21 8q19 11 36.5 26t30.5 34
t18 40t-2 44q-7 4 -17 4q-27 0 -60 -52z" />
    <glyph glyph-name="Ydieresis" unicode="&#x178;" horiz-adv-x="511" 
d="M450 454q-50 -51 -99.5 -103t-94 -106.5t-80.5 -112t-59 -118.5q8 -2 15 -6t13 -16q2 -12 -1.5 -22t-10.5 -17.5t-16 -12.5t-18 -5q-32 -2 -58 18t-30 58q17 71 47.5 129.5t72.5 112.5q-17 9 -34 22.5t-32 30t-26.5 35t-16.5 36.5v-3q-8 20 -10.5 44.5t-2.5 49.5
q0 10 0.5 18.5t0.5 17.5v11t0.5 14.5t0.5 14v9.5q30 0 49 -11t30.5 -28t17.5 -38.5t10 -43.5q3 -16 6.5 -31.5t9 -28t13 -20t18.5 -7.5q10 0 24 4.5t31 14.5l221 224q11 -4 25 -12t24.5 -19.5t13 -26t-9.5 -31.5zM227 747q-3 -20 -10 -38.5t-17.5 -33.5t-26 -25t-36.5 -13
q-25 0 -47 13t-30 34q-7 17 -7 35q0 31 19 55t39 43l16 15q39 0 69.5 -20.5t30.5 -61.5v-3zM447 716q3 -17 -0.5 -31t-11.5 -25.5t-19 -20.5t-23 -16q-22 -3 -38.5 3t-29 16.5t-22 25t-17.5 28.5v-1q-5 7 -9 14.5t-9 12.5q-2 13 3.5 27.5t15.5 25.5t22.5 18.5t25.5 7.5
q5 0 13.5 -3.5t15.5 -5.5q1 0 3.5 2.5t4.5 10.5q22 -2 36 -8.5t21.5 -16.5t10.5 -22.5t5 -24.5l3 -18z" />
    <glyph glyph-name="scaron" unicode="&#x161;" horiz-adv-x="347" 
d="M286 380q0 -31 -17.5 -43.5t-37.5 -20.5l-1 -1q29 -16 52 -42t34 -54v1q7 -16 10 -36t3 -42q0 -23 -3 -43.5t-10 -36.5q-15 -22 -33 -36t-38 -23.5t-41 -15t-43 -9.5q-45 3 -82.5 28.5t-57.5 64.5q-3 9 -4 18t-1 17q0 14 6 29.5t23 29.5q20 -1 32 -6.5t19 -14t10 -18.5
t5 -20q2 -11 7 -20.5t18 -10.5q15 -2 30 2t28 12.5t22 20.5t14 26q1 7 1 15v16q0 21 -5.5 39.5t-25.5 24.5q-11 0 -25.5 -3.5t-27.5 -8.5q-17 -5 -32.5 -9t-31.5 -4q-19 0 -36 9.5t-31 32.5v42l204 131q16 0 25 -4.5t17 -11.5q5 -5 13 -9zM203 614q23 30 51 64t61 63
t70.5 49.5t79.5 23.5q30 -14 48.5 -39t18.5 -52q0 -16 -25 -72q-15 35 -25 49t-16 14q-17 0 -36.5 -16t-36.5 -33v1l-15 -14q-30 -15 -47 -42.5t-32 -55.5q-11 -21 -22.5 -40.5t-27 -35t-38 -25.5t-54.5 -12q-19 27 -29 54t-15.5 55t-6.5 56l-2 56q-1 38 -3.5 76t-16.5 76
l19 61q35 -18 54 -41t28.5 -49.5t11.5 -55t3 -57.5q0 -13 -0.5 -19.5t-1 -11t0.5 -10t4 -17.5z" />
    <glyph glyph-name="ogonek" unicode="&#x2db;" horiz-adv-x="259" 
d="M218 50q2 -7 5 -15t7 -16q8 -18 13.5 -36.5t-2.5 -41.5q-14 -11 -20.5 -30t-11.5 -39q-5 -19 -10.5 -37t-14.5 -32t-22 -22.5t-34 -8.5q-19 0 -43 9h1l-12 6q-26 14 -47.5 31t-27.5 53q3 37 24 62.5t44 47.5q19 17 34 33.5t15 33.5q0 13 -12 33l26 100q31 6 47.5 1.5
t23.5 -16t7 -27.5t-1 -33v-28t5 -19zM143 -87q-11 -11 -20.5 -22t-6.5 -19l-10 11q3 -1 4 3.5t1.5 10.5t0.5 13.5t-1 12.5z" />
    <glyph glyph-name="ccedilla" unicode="&#xe7;" horiz-adv-x="454" 
d="M345 78q-28 -21 -56.5 -40t-57.5 -32q0 -10 1 -19.5t9 -15.5q4 -17 7 -23.5t7 -14.5q8 -18 13.5 -36.5t-2.5 -41.5q-14 -11 -20.5 -30t-11.5 -39q-5 -19 -10.5 -37t-14.5 -32t-22 -22.5t-34 -8.5q-19 0 -43 9h1l-12 6q-26 14 -48 31t-27 53q3 37 24 62.5t44 46.5
q19 18 34 34.5t15 33.5q0 11 -10 27q-14 2 -29.5 6.5t-31.5 12.5q-35 27 -49 60t-17 74q5 41 17.5 84t34.5 81.5t54.5 69t79.5 45.5h12q19 0 39 -1t38 -7t32.5 -18.5t24.5 -34.5q8 -23 -2.5 -38t-22.5 -24l-9 -8q-26 -8 -37 1t-19 23v-1q-2 4 -5 8t-7 3q-18 0 -34.5 -9.5
t-30.5 -24t-25 -32t-18 -33.5l-2 -8q-5 -18 -8.5 -37.5t-3.5 -39.5q0 -17 5 -32.5t17 -29.5l17 2l4 14q17 4 27.5 5t18.5 -3q23 9 41 19t36 21q27 16 56 31t67 26q27 -21 27 -61q-23 -13 -43 -27zM141 -214q-3 8 6.5 19t20.5 22l-32 10q2 -11 1 -26.5t-6 -13.5z" />
    <glyph glyph-name="Ccedilla" unicode="&#xc7;" horiz-adv-x="494" 
d="M484 161q-48 -54 -107 -100t-126 -67q-2 -13 0 -24t10 -19q3 -10 6.5 -18.5t7.5 -17.5q8 -19 13.5 -37.5t-2.5 -42.5q-14 -11 -20.5 -30t-11.5 -39t-10.5 -38t-14.5 -32.5t-22.5 -23t-34.5 -8.5q-20 0 -43 10h1l-12 5q-13 7 -25.5 14.5t-23 17t-17.5 23t-10 31.5
q2 37 23.5 62.5t44.5 47.5q19 18 34.5 34.5t15.5 34.5q0 8 -13 34l1 3q-27 3 -58 11q-45 31 -67.5 79.5t-19.5 105.5q9 58 21.5 117t36.5 112.5t65 98t108 72.5q8 1 16 1h17q38 0 69.5 -14.5t45.5 -50.5q4 -26 -4.5 -49.5t-28.5 -48.5q-30 7 -40 17.5t-17 24.5q-3 5 -5 9
t-5 7q-47 -11 -77 -41.5t-48 -71t-28 -87t-17 -88.5v1q-2 -32 2.5 -59.5t30.5 -47.5q30 0 56.5 8t51.5 20t49 27.5t49 31.5v-1q22 16 46 31t53 30l35 -41zM160 -234q-3 8 6.5 19t20.5 22l-32 10q1 -11 0.5 -26.5t-6.5 -13.5z" />
    <glyph glyph-name="Oslash" unicode="&#xd8;" horiz-adv-x="554" 
d="M418 366l-9 -10.5t-24 -27.5t-34 -39t-39 -44q-48 -53 -107 -121q13 -3 27 -3q12 0 26.5 1.5t29.5 8.5q15 6 34 25t36.5 40t30 39t14.5 24q1 6 6.5 17t10.5 23t9.5 22t4.5 13t-3 8.5l-6 11t-5.5 9t-1.5 3.5zM313 452l-3 -2h-6zM368 442q-23 11 -58 8
q-76 -42 -127.5 -109.5t-59.5 -154.5q65 64 124 126t121 130zM543 495q-12 -19 -26.5 -40.5t-31.5 -41.5q2 -11 3 -22t1 -22q0 -57 -22 -108.5t-46 -101.5v1l-19 -37l-14 -15q-21 -21 -43 -42.5t-46.5 -38t-53 -26.5t-61.5 -8q-15 -2 -32 0t-33 10q-28 -17 -56 -31t-64 -16
q-22 17 -28.5 36.5t-6.5 39.5l41 39h-1l29 28q-7 20 -9.5 40.5t-2.5 41.5q0 54 18 106.5t44 97.5q42 57 100 105t125 71q39 5 70 -7t55 -38h1q1 0 1 1q7 9 15.5 18t16.5 17q25 11 37.5 2.5t23.5 -22.5l-1 1q4 -7 13 -14z" />
    <glyph glyph-name="oslash" unicode="&#xf8;" horiz-adv-x="447" 
d="M494 341q1 -20 -5 -31.5t-17.5 -18t-26.5 -8.5t-31 -2v-9q0 -61 -27 -117.5t-61 -105.5q-27 -35 -63.5 -47t-76.5 -12q-37 0 -74 6q-30 13 -56 39l-37 -35l-63 18q22 65 51 101l-7 23q3 52 23 102t52.5 93t74.5 75.5t90 49.5q22 2 43 -4t39.5 -17.5t34 -27t27.5 -33.5
q7 1 15 1.5t14 0.5q20 0 38.5 -6t35.5 -22zM298 347q-7 8 -16 13t-21 5q-44 -22 -81 -58.5t-57 -81.5q25 20 48 39.5t44 41.5q17 7 36 17t36 19zM78 189l30 -18q4 26 15 54l-8 -6zM261 365q1 0 5 2zM215 98l-1 -1q20 18 38.5 35.5t33.5 36.5t24.5 41t12.5 49
q-62 -32 -108 -72t-92 -85q10 -9 23.5 -13t28.5 -4q17 0 30 4zM343 269l10 6l-29 15v-15.5t-1 -15.5z" />
    <glyph glyph-name="emdash" unicode="&#x2014;" horiz-adv-x="959" 
d="M883 273q-17 -17 -39 -17q-14 0 -27 5.5t-25 13.5q-11 5 -21 10.5t-21 4.5q-21 3 -62 3q-51 0 -124.5 -3t-152.5 -7q-78 -3 -151.5 -6t-127.5 -3q-27 0 -51.5 1.5t-50.5 6.5q13 29 13 34q0 13 2.5 24.5t18.5 17.5q27 8 72.5 13.5t102.5 9.5t121.5 5.5t129.5 1.5
q57 0 111 -1.5t101.5 -4t84.5 -6t59 -8.5l13 -11q2 -1 5 -5.5t6 -8.5q10 -13 17 -28t2 -33z" />
    <glyph glyph-name="ellipsis" unicode="&#x2026;" horiz-adv-x="554" 
d="M135 57q5 -15 3 -24.5t-9 -16.5t-16.5 -11t-19.5 -7l-15 -4q-27 0 -34.5 10.5t-11.5 26.5q0 1 -0.5 3t-5.5 10l23 84q22 4 37.5 -1.5t25.5 -16t15.5 -25t7.5 -28.5l-2 5q0 -1 2 -5zM444 6q-7 6 -15 14.5t-14.5 19t-10 23t-1.5 26.5q20 30 46 30q19 0 39.5 -16t35.5 -39z
M319 14q-8 4 -20.5 2t-23.5 -6q-18 -6 -31 -6q-18 0 -28.5 12t-8.5 46q10 13 11.5 17t4.5 9q9 18 20 32t30 14q20 0 40 -21q14 -16 20 -33t10 -34l-1 1l3 -12z" />
    <glyph glyph-name="onesuperior" unicode="&#xb9;" horiz-adv-x="214" 
d="M165 241l13.5 -13.5t9 -14.5t0 -18t-13.5 -23q-33 -10 -53 -1t-30.5 28.5t-14 45.5t-5.5 50l-3 24q0 23 -5.5 49t-12.5 52q-8 32 -14.5 64t-6.5 60q0 23 15 68q39 -20 60.5 -51.5t32.5 -69.5t14.5 -79.5t5.5 -80.5q2 -23 2.5 -46t3.5 -42z" />
    <glyph glyph-name="twosuperior" unicode="&#xb2;" horiz-adv-x="510" 
d="M323 518q2 -36 -7 -67t-24.5 -58.5t-37 -52t-45.5 -48.5q15 1 30.5 2t32.5 3q23 2 46.5 4.5t48.5 2.5q50 0 96 -14t85 -57v-57q-47 20 -85.5 28t-71.5 8q-18 0 -41 -2.5t-47.5 -6.5t-48.5 -8.5t-43 -8.5q-41 -9 -84.5 -16.5t-95.5 -10.5l-23 65q35 28 70 59t66.5 65
t57 70.5t40.5 75.5q-11 3 -22 3q-20 0 -38 -6.5t-35 -17.5q5 -13 0 -33l-20 -8q-13 -6 -29.5 -9.5t-38.5 -0.5q-15 17 -21.5 34t-6.5 33q0 27 19 55l40 14h-2q30 13 65 24.5t70 11.5q32 0 58.5 -15.5t40.5 -55.5z" />
    <glyph glyph-name="threesuperior" unicode="&#xb3;" horiz-adv-x="424" 
d="M392 277q-37 -42 -63 -68q-11 -11 -20.5 -19t-14.5 -10t-5 3.5t8 21.5q-38 -17 -79 -26t-83 -9q-34 0 -69 8q-28 12 -43.5 36.5t-15.5 49.5q0 26 19 52q12 2 20 8t16 13q9 8 18.5 15.5t19.5 10.5t21.5 0.5t24.5 -14.5q11 -14 11.5 -26t-5.5 -23t-16.5 -20.5t-20.5 -17.5
l-8 -7q3 0 7 -0.5t10 -1.5q46 5 88.5 21t77.5 46q-7 11 -21 15.5t-29 6.5q-16 3 -30.5 6.5t-25 12.5t-15.5 25t-2 43q7 4 18 11t19 12v-1q18 11 35.5 22.5t31.5 26.5q-13 -4 -26 -10t-26 -13q-20 -11 -39.5 -19t-39.5 -8q-17 0 -34 9.5t-37 35.5q24 26 50 42.5t53 26.5
t54.5 16t54.5 12q24 4 46 8.5t40 9.5l37 -45q1 -27 -5.5 -47.5t-18 -37.5t-27 -31.5t-31.5 -28.5l-1 -1l-4 -2q0 -1 -4 -4q16 -11 32 -25t28 -31t17.5 -37t1.5 -43z" />
    <glyph glyph-name="degree" unicode="&#xb0;" horiz-adv-x="419" 
d="M367 572q10 -20 14 -38t4 -37q0 -42 -17 -81.5t-36 -77.5q-5 -7 -8 -13.5t-6 -13.5l-11 -12q-15 -16 -31.5 -32t-35 -28t-40 -19t-46.5 -5q-17 -2 -35 2.5t-34 14t-28 24.5t-16 33q-6 15 -8.5 32.5t-2.5 35.5q0 41 13 80t33 73q32 44 75 80t93 53q41 5 74 -16t49 -56v1z
M295 516q-5 14 -19.5 17.5t-30.5 3.5q-29 -16 -52.5 -38t-39.5 -48.5t-23.5 -57.5t-3.5 -64q0 -15 10 -20t21 -3q0 8 3.5 17.5t15.5 17.5q12 -4 20 -2.5t13 6t7.5 11.5t5.5 14q4 11 9 24t23 35l16 -16q14 23 21 50t4 53v0z" />
    <glyph glyph-name="ordmasculine" unicode="&#xba;" horiz-adv-x="408" 
d="M285 623q23 -19 37 -41t21.5 -46t10 -49.5t2.5 -51.5q0 -10 -0.5 -19t-0.5 -18q0 -7 -0.5 -15.5t-0.5 -15.5l-5 -13q-8 -23 -16 -45t-19 -41.5t-27 -35t-40 -24.5q-13 -8 -26.5 -11t-28.5 -3q-21 0 -42.5 8t-36.5 25q-35 38 -50 86.5t-15 95.5v31q10 53 34 105t62 89
q27 18 61 18q46 0 81 -29h-1zM191 542q-2 -2 -2 -3l-2 -1q-1 0 -1 -1zM224 549q-8 0 -17.5 -3t-17.5 -7q-21 -31 -33.5 -66t-12.5 -72q0 -55 29 -103q3 -6 13 -6q6 0 15 4.5t15 9.5q14 21 27 52t21 60q5 20 5 39q0 49 -25 86l2 -3q-11 9 -21 9z" />
    <glyph glyph-name="dotlessi" unicode="&#x131;" horiz-adv-x="211" 
d="M203 495q-5 -29 -12.5 -59.5t-14.5 -60.5q-17 -71 -31 -142t-14 -147q0 -19 2 -42.5t6 -52.5q-31 -16 -47 -16q-20 0 -37.5 13t-25.5 36q-2 20 -3.5 39t-1.5 39q0 77 16.5 157t36.5 158l24 102q11 18 23.5 22.5t24.5 1.5t23.5 -11t20.5 -15l5 -5z" />
    <glyph glyph-name="fraction" unicode="&#x2044;" horiz-adv-x="561" 
d="M563 533q-48 -78 -111.5 -144.5t-130.5 -130.5v1q-15 -14 -27.5 -25.5t-24 -23t-23.5 -23t-25 -25.5q13 -13 20 -31.5t-11 -39.5q-23 -8 -42.5 -19t-39.5 -24q-29 -17 -58 -31.5t-65 -16.5q-22 17 -28.5 36.5t-6.5 39.5q135 127 259.5 256t237.5 257q13 5 22.5 5
t16.5 -3.5t12.5 -9.5t10.5 -12q2 -3 5.5 -7t5.5 -6z" />
    <glyph glyph-name="Eth" unicode="&#xd0;" horiz-adv-x="484" 
d="M301 563q42 0 77 -21.5t56 -72.5q13 -26 18.5 -50.5t5.5 -47.5q0 -35 -10 -68t-26 -64.5t-36 -61.5t-39 -58q-14 -12 -27 -25.5t-27 -27.5h1q-17 -18 -35 -36t-37.5 -32t-42 -22.5t-47.5 -8.5q-29 0 -64 16l-1 1l-32 -43q-7 47 -10 81t-3 59q0 35 2.5 68.5t6.5 67.5
q-26 1 -52.5 7.5t-55.5 20.5l-12 66l137 11q1 3 0.5 4.5t0.5 5.5q6 37 11 74t7 79q18 27 33.5 25.5t31.5 -12.5h1q17 13 37.5 24.5t42.5 20.5t44.5 14.5t43.5 5.5zM157 74q37 27 74 60.5t65.5 72t46.5 82t18 90.5q0 10 -1 20.5t-3 22.5q-11 19 -31.5 27.5t-41.5 10.5
q-52 -15 -79 -49.5t-41 -79.5q28 2 56.5 4.5t54.5 4.5q8 -9 15 -19.5t10 -22.5t0.5 -25t-11.5 -27q-34 0 -64 -4.5t-59 -9.5l-20 -4q-2 -13 -3 -27.5t-2 -28.5q-2 -27 -4 -53t-6 -52q5 0 13.5 2t13.5 6z" />
    <glyph glyph-name="cedilla" unicode="&#xb8;" horiz-adv-x="311" 
d="M232 50q2 -7 5.5 -15t6.5 -16q8 -18 13.5 -36.5t-2.5 -41.5q-13 -11 -19.5 -30t-11.5 -39q-5 -19 -10.5 -37t-14.5 -32t-22.5 -22.5t-34.5 -8.5q-20 0 -42 9h1l-12 6q-26 13 -48 30.5t-27 53.5q1 18 7.5 33.5t16 29t21 25l22.5 22.5q19 17 34 33.5t15 33.5q0 6 -2.5 14.5
t-9.5 18.5l26 100q31 6 47.5 1.5t24 -16t7.5 -27.5t-1 -33q-1 -14 -1 -28t6 -19zM157 -87q-11 -11 -20 -22t-7 -19l-10 11q3 -1 4 3.5t2 10.5t0.5 13.5t-0.5 12.5z" />
    <glyph glyph-name="periodcentered" unicode="&#xb7;" horiz-adv-x="221" 
d="M189 331q3 -17 -0.5 -31t-11.5 -25.5t-19 -20.5t-23 -16q-22 -3 -38.5 3t-29 16.5t-22 25t-17.5 28.5v-1q-5 7 -9 14.5t-9 12.5q-2 13 3.5 27.5t15.5 25.5t22.5 18.5t25.5 7.5q5 0 13.5 -3.5t15.5 -6.5q2 0 4 2.5t4 10.5q22 -1 36 -7.5t21.5 -16.5t10.5 -22.5t5 -24.5
l3 -18z" />
    <glyph glyph-name="Aring" unicode="&#xc5;" horiz-adv-x="631" 
d="M577 827q-5 -9 -8.5 -21t-7.5 -25v1q-4 -16 -8.5 -31.5t-12.5 -28.5t-22 -22t-36 -12q-8 1 -18 1h-20q-23 0 -45.5 1t-40 9t-27 25t-6.5 48q0 24 9.5 46.5t24.5 41t34.5 33.5t40.5 24q24 6 45.5 2t39.5 -14.5t32.5 -25.5t25.5 -32v-20zM441 823l1 1q-14 -4 -21 -7t-5 -13
q2 -13 4.5 -17.5t16.5 -0.5h-1q11 3 17 4t11 3q17 4 30.5 8t13.5 12q0 5 -8.5 7.5t-18.5 4.5q-11 2 -26 3zM613 351q-14 -22 -28 -35t-28 -21t-28 -12t-28 -7q-10 -2 -19.5 -4.5t-17.5 -5.5l-11 -33q-14 -40 -24.5 -78.5t-10.5 -83.5v-15t1 -15q13 5 25.5 3t23.5 -28
q4 -17 -4 -28t-18 -22l-9 -7q-18 -6 -35 -2t-31 14t-23.5 24.5t-13.5 29.5q-3 36 2 70t11 67q5 21 8 42t4 40l-106 -6q-8 -13 -14.5 -26t-14.5 -27q-23 -46 -52.5 -94t-77.5 -86q-22 5 -40 14t-23 29q-2 20 2.5 37t13 32t20 28t23.5 26q15 15 28 30t18 32l69 114
q58 99 122.5 198.5t151.5 200.5q36 -32 50.5 -64t14.5 -64q0 -33 -9.5 -69t-20.5 -72q-9 -29 -17 -57.5t-11 -56.5zM368 354q14 25 23 59.5t16 71.5l-80 -135q11 1 19.5 2t21.5 2z" />
    <glyph glyph-name="aring" unicode="&#xe5;" 
d="M461 599q-5 -9 -9 -21t-7 -24v1q-4 -16 -8.5 -31.5t-12.5 -28t-21.5 -21.5t-35.5 -12q-8 1 -18 1h-20q-22 0 -44.5 1t-39.5 8.5t-27 24.5t-7 47q0 24 9.5 46t24.5 41t34.5 33.5t40.5 23.5q24 6 45 2.5t38.5 -14t32 -25.5t25.5 -32v-20zM326 595l1 1q-13 -3 -20.5 -6.5
t-5.5 -12.5q2 -14 5 -18t17 -1h-1q11 4 16.5 5t10.5 3q17 3 30 7t13 12q0 5 -8 7.5t-18 4.5q-11 2 -26 3zM392 240q-2 -30 -8 -53.5t-13 -45.5q-6 -20 -11 -37.5t-5 -39.5q0 -5 1.5 -15t3.5 -24q-15 -12 -31.5 -12.5t-30 6.5t-21.5 20t-6 27l5 25q2 13 4.5 25.5t5.5 22.5
q-21 5 -40 8.5t-41 8.5q-10 -10 -20.5 -24t-19.5 -28q-11 -17 -22.5 -32.5t-25 -28t-29.5 -20t-36 -7.5q-8 0 -16.5 2t-17.5 5q-15 11 -20.5 20.5t-4.5 18.5t7 16.5t14 15.5v-1q3 5 6.5 9.5t1.5 15.5q59 47 100 100.5t76 106.5q29 43 63 89.5t81 93.5q24 4 39 -4.5
t23.5 -23.5t12 -32.5t4.5 -32.5zM303 239q1 14 2 20.5t1.5 12t2 14t3.5 27.5q-22 -38 -36 -72z" />
    <glyph glyph-name="eth" unicode="&#xf0;" horiz-adv-x="499" 
d="M454 352q19 -44 19 -89q0 -31 -7.5 -60.5t-20 -57.5t-28.5 -54.5t-32 -50.5q-27 -35 -63.5 -47t-76.5 -12q-19 0 -36.5 1t-34.5 4q-23 10 -42 26.5t-33 36t-24 41.5t-16 43q4 76 42.5 145.5t98.5 117.5q-8 5 -15 8t-18 6l-96 -112q-15 -6 -27 -1.5t-19.5 15t-9 23.5
t4.5 23l65 87q-5 6 -11.5 11t-14.5 11q-20 14 -37.5 33t-19.5 54q8 23 26.5 33t41.5 14l17 -25q10 -14 22.5 -27.5t29.5 -19.5q14 11 25.5 30.5t21.5 39.5v-1q5 11 13 25.5t17 28.5q21 -8 30.5 -17t12 -18.5t0 -19.5t-6.5 -20q-2 -6 -4.5 -13t-1.5 -15q-12 -15 -14 -19.5
t-4 -9.5l1 1q-4 -7 -8 -15t-9 -14q8 -7 17 -12t17 -11q11 -7 18.5 -11t18.5 -12l16 7q25 1 48.5 -6.5t43.5 -21.5t36 -32.5t27 -39.5v-1zM273 88q24 21 45 41.5t36 43.5t23 50.5t5 62.5q-9 25 -22.5 47.5t-38.5 22.5q-34 -17 -64 -43t-51.5 -57.5t-32.5 -67.5t-7 -73
q9 -19 27.5 -29t40.5 -10q7 0 14.5 1t14.5 3z" />
    <glyph glyph-name="mu" unicode="&#xb5;" horiz-adv-x="411" 
d="M382 234q-1 -5 -1 -12q0 -8 -1.5 -13.5t-7.5 -13.5q-9 -9 -19.5 -12t-24.5 3q-9 3 -15 6q-4 2 -7 3l-1 20l-10 -6q-22 -6 -39.5 -4t-32.5 9t-28.5 17.5t-25.5 21.5l-3 3l-3 3q2 -30 4.5 -71.5t2.5 -80.5q0 -26 -2 -48t-7.5 -38.5t-14 -25t-21.5 -6.5q-15 3 -25.5 23
t-17.5 49.5t-11 62.5t-6.5 62t-3 48.5t-0.5 21.5q-4 66 -15 122.5t-24 112.5q-8 34 -16 73.5t-14 76.5q18 17 29.5 20.5t22.5 5.5l27 2q24 -42 35.5 -78t22.5 -71q13 -48 31.5 -95t57.5 -89l3.5 -3.5t3.5 -2.5q5 -5 10.5 -11t11 -10.5t11 -7t9.5 -0.5q2 15 2 29.5v28.5
q0 54 -8 104.5t-25 100.5q-4 31 11.5 45.5t38.5 14.5q13 0 26 -5.5t22 -15.5t12 -25t-3 -34q2 -14 5.5 -33t7.5 -40q7 -30 11.5 -62.5t3.5 -64.5q1 -8 3.5 -24t4.5 -33t3 -32t0 -21z" />
    <glyph glyph-name="mu" unicode="&#x3bc;" horiz-adv-x="411" 
d="M382 234q-1 -5 -1 -12q0 -8 -1.5 -13.5t-7.5 -13.5q-9 -9 -19.5 -12t-24.5 3q-9 3 -15 6q-4 2 -7 3l-1 20l-10 -6q-22 -6 -39.5 -4t-32.5 9t-28.5 17.5t-25.5 21.5l-3 3l-3 3q2 -30 4.5 -71.5t2.5 -80.5q0 -26 -2 -48t-7.5 -38.5t-14 -25t-21.5 -6.5q-15 3 -25.5 23
t-17.5 49.5t-11 62.5t-6.5 62t-3 48.5t-0.5 21.5q-4 66 -15 122.5t-24 112.5q-8 34 -16 73.5t-14 76.5q18 17 29.5 20.5t22.5 5.5l27 2q24 -42 35.5 -78t22.5 -71q13 -48 31.5 -95t57.5 -89l3.5 -3.5t3.5 -2.5q5 -5 10.5 -11t11 -10.5t11 -7t9.5 -0.5q2 15 2 29.5v28.5
q0 54 -8 104.5t-25 100.5q-4 31 11.5 45.5t38.5 14.5q13 0 26 -5.5t22 -15.5t12 -25t-3 -34q2 -14 5.5 -33t7.5 -40q7 -30 11.5 -62.5t3.5 -64.5q1 -8 3.5 -24t4.5 -33t3 -32t0 -21z" />
    <glyph glyph-name="thorn" unicode="&#xfe;" horiz-adv-x="469" 
d="M440 455q6 -36 -5 -66t-31 -55.5t-45.5 -46.5t-48.5 -39q-13 -1 -23 -4t-18 -7q-20 -8 -40.5 -13t-49.5 11q-12 13 -16.5 23.5t-4.5 17.5q0 23 16.5 27t38.5 6q14 1 26.5 3.5t16.5 10.5q30 23 56 53t34 65q-3 17 -22 26.5t-39 15.5q-5 2 -8 3t-8 3q-38 -10 -61.5 -27.5
t-37 -41.5t-18.5 -53t-5 -61q0 -23 2 -48t4 -51l2 -16q5 -8 6.5 -18.5t1.5 -21.5t-1 -20.5t-3 -16.5q1 -36 -2.5 -69.5t-17.5 -63.5q-7 -11 -17 -18.5t-19 -10.5q0 -1 -1 -3q-30 -4 -49.5 5.5t-32.5 23.5q1 21 1 44v45q-4 19 -5.5 41t-1.5 45q0 28 2 56.5t4 56.5
q-2 106 -7 214.5t-13 211.5q5 13 11 19.5t13.5 9t15.5 2t16 -1.5q4 -1 11.5 -1t21.5 2q14 -52 20.5 -100t8.5 -95q18 17 39.5 33t45.5 30q36 -2 72 -9.5t67.5 -23t56.5 -39.5t39 -59z" />
    <glyph glyph-name="Thorn" unicode="&#xde;" horiz-adv-x="393" 
d="M363 423q2 -14 3.5 -30t1.5 -33q0 -35 -8.5 -68.5t-32.5 -59.5q-14 -12 -29.5 -24.5t-31.5 -22.5t-33 -16.5t-35 -6.5q-23 0 -49 14l-13 19l1 -1l-9 13l-3 -36q2 -45 6.5 -92.5t9.5 -93.5q-14 -29 -33 -41.5t-41 -17.5q-8 -4 -19 -4t-26 6q0 38 -0.5 83.5t-2.5 83.5
q-2 32 -3 65.5t-1 61.5q0 40 3 72q-3 85 -6 168.5t-3 165.5q8 20 19 28.5t22 8.5q9 0 18 -6.5t16 -15.5t12 -19t7 -18q2 -23 4 -40.5t3 -33t2 -32.5t2 -40q32 25 67 41.5t70 16.5q34 0 62.5 -20.5t48.5 -70.5zM131 270q23 9 39.5 1t30.5 -19l2 -1q20 8 37.5 29.5t31.5 43.5
l2 19q2 11 3.5 22t1.5 19q0 12 -3.5 23t-13.5 19q-21 3 -39.5 -4.5t-35 -20.5t-31.5 -30t-28 -34q3 -33 3 -66v-1z" />
    <glyph glyph-name="ring" unicode="&#x2da;" horiz-adv-x="326" 
d="M285 599q-5 -9 -8.5 -21t-7.5 -24v1q-4 -16 -8 -31.5t-12.5 -28t-22 -21.5t-35.5 -12q-8 1 -18 1h-20q-22 0 -44.5 1t-39.5 8.5t-26.5 24.5t-6.5 47q0 24 9.5 46t24.5 41t34 33.5t40 23.5q24 6 45 2.5t38.5 -14t32 -25.5t25.5 -32v-20zM151 595l1 1q-14 -3 -21 -6.5
t-5 -12.5q2 -14 4.5 -18t16.5 -1h-1q11 4 16.5 5t11.5 3q17 3 29.5 7t12.5 12q0 5 -8 7.5t-18 4.5q-11 2 -26 3z" />
    <glyph glyph-name="dotaccent" unicode="&#x2d9;" horiz-adv-x="268" 
d="M211 647q-3 -20 -9.5 -38.5t-17 -33.5t-26.5 -25t-37 -13q-24 0 -46 13t-30 34q-7 17 -7 35q0 31 19 55t39 43l15 15q40 0 70 -20.5t30 -61.5v-3z" />
    <glyph glyph-name="hungarumlaut" unicode="&#x2dd;" horiz-adv-x="457" 
d="M217 730q10 -34 10 -68q0 -63 -29 -121t-69 -107q-11 -11 -26.5 -24t-34.5 -13t-35 18l-26 21q20 23 40.5 48.5t37.5 52.5t27.5 56t10.5 59q0 5 -0.5 11.5t-0.5 12.5l-1 1q-10 8 -21 18.5t-18 23.5t-8 28.5t8 32.5q19 32 48 32q14 0 28 -8t26 -20.5t20.5 -27t12.5 -26.5z
M380 737q12 -39 12 -79q0 -60 -24.5 -116t-62.5 -103q-11 -11 -30.5 -23t-39.5 -12q-11 0 -23.5 6t-24.5 22l15 50q17 19 31 37.5t24.5 38t16.5 40.5t6 46q0 18 -3 38l-15 8q-12 6 -23.5 13.5t-19 17.5t-8.5 22t9 29q11 20 26 27.5t33 7.5q16 0 32.5 -6.5t30.5 -16.5
t24.5 -23t13.5 -25v1z" />
    <glyph glyph-name="quotedblbase" unicode="&#x201e;" horiz-adv-x="494" 
d="M228 100q10 -33 10 -68q0 -63 -29.5 -121t-68.5 -106q-11 -11 -27 -24t-35 -13t-35 17l-26 21q20 23 41 48.5t38 53t27.5 56t10.5 58.5q0 6 -0.5 12t-1.5 12l-1 1q-10 8 -21 19t-18 24t-8 28t8 32q9 15 22 23.5t26 8.5q14 0 28 -8t26 -20.5t21 -27t13 -26.5zM400 107
q13 -38 13 -78q0 -61 -25 -117t-63 -103q-11 -11 -30 -23t-39 -12q-12 0 -24 6t-24 23l15 50q17 19 31 37.5t24.5 37.5t16 40t5.5 46v18t-2 21l-15 7q-12 7 -24 14.5t-19.5 17t-8.5 22t9 29.5q11 20 26 27.5t34 7.5q16 0 32 -6.5t30 -17t24.5 -23.5t13.5 -25v1z" />
    <glyph glyph-name="quotesinglbase" unicode="&#x201a;" horiz-adv-x="340" 
d="M234 106q10 -33 10 -67q0 -63 -29 -121t-69 -107q-11 -11 -26.5 -24t-34.5 -13t-35 18l-26 21q20 23 40.5 48.5t37.5 52.5t27.5 56t10.5 59q0 5 -0.5 11t-1.5 13v1q-10 8 -21 18.5t-18 23.5t-8 28t8 32q19 33 48 33q14 0 28 -8t26 -20.5t20.5 -27t12.5 -27.5z" />
    <glyph glyph-name="minus" unicode="&#x2212;" horiz-adv-x="649" 
d="M599 331q-7 -45 -25 -61t-42 -16q-19 0 -48 8l1 -1q-15 4 -29.5 6.5t-27.5 1.5h-29q-33 0 -70 -3t-73 -8q-33 -3 -63.5 -6t-58.5 -3q-23 0 -45.5 4.5t-44.5 16.5l-2 15q-3 8 -4 17t-1 17q0 19 9.5 32.5t38.5 17.5q46 -2 92 3t91 11q38 6 77.5 10t80.5 4q33 0 67.5 -4.5
t72.5 -15.5z" />
    </font>
</defs>
</svg>
